<svg xmlns="http://www.w3.org/2000/svg" width="50" height="50" viewBox="0 0 50.0004883 50"><g fill="#FFF"><path d="M40.485 44.75H9.516V5.25h30.969v39.5zm-29.969-1h28.969V6.25H10.516v37.5z"/><path d="M12.36 20.75h11.375v1H12.36zm0 2.75h11.375v1H12.36zm0 2.625h11.375v1H12.36zm0 2.875h11.375v1H12.36zm0 2.75h11.375v1H12.36zm0 2.75h11.375v1H12.36zm0 2.75h11.375v1H12.36zm0 2.75h11.375v1H12.36zm14.088-19.25h11.078v1H26.448zm0 2.75h11.078v1H26.448zm0 2.625h11.078v1H26.448zm0 2.875h11.078v1H26.448zm0 2.75h11.078v1H26.448zm0 2.75h11.078v1H26.448zm0 2.75h11.078v1H26.448zm0 2.75h11.078v1H26.448zm-3.041-21.375h-11.14v-11h11.14v11zm-10.14-1h9.14v-9h-9.14v9z"/></g></svg>