<svg xmlns="http://www.w3.org/2000/svg" width="50" height="50" viewBox="0 0 50 50"><path fill="none" stroke="#000" stroke-miterlimit="10" d="M-35.64 288.836v175.02l-.02.29c-9.27 6.38-21.78 10.311-35.82 10.311s-26.57-3.81-35.84-10.182v-175.02l.01-.288c9.27-6.381 21.78-10.313 35.83-10.313 14.041 0 26.57 3.812 35.84 10.182z"/><path fill="#474747" d="M43.13 9.87l4.12 9.2h-.19v-.26H47l-4-8.9h.13z"/><path fill="#474747" d="M47.06 18.81v.13l-.06-.13z"/><path fill="#474747" d="M47 18.81l.06.13h-.61v-.1h-6.89v.1h-.66l.06-.13h7.9zm.05.13v.13h-.61v-.13h.01z"/><path fill="#474747" d="M43 9.91l4 8.9h-.14L43 10.22l-3.9 8.59h-.14z"/><path fill="#FFF" d="M43 10.22l3.86 8.59H39.1z"/><path fill="#474747" d="M46.44 18.84h.01v.1h-.01zm0 .23v23.61h-6.62v-.13h6.5V19.07zm0-.13v.13h-.12v-.11h-6.63v.11h-.13v-.13z"/><path fill="#474747" d="M39.561 18.84h6.88v.1h-6.88zm6.759.23v23.48h-6.5v-.12h6.37V19.09h-6.37v8.42h-.13v-8.44zm-6.63-.11h6.63v.11h-6.63z"/><path fill="#FFF" d="M46.19 19.09v23.34h-6.37V35.8h1.78v-1.28h-1.78V19.09h6.37zm-2.27 5.74v-2.2c0-.51-.41-.93-.92-.93s-.92.42-.92.93v2.2h1.84z"/><path fill="#474747" d="M45.09 7.9l-1.96.54v1.43l-.12-.27-.01.02-.12.27V7.32l2.21.58zM43 8.35l1.6-.45-1.6-.41v.86z"/><path fill="#474747" d="M44.1 7.9l-.97-.25v.53l.97-.28zm.5 0l-1.6.45v-.86l1.6.41z"/><path fill="#FFF" d="M44.1 7.9l-.97.28v-.53z"/><path fill="#474747" d="M43.92 22.63v2.2h-1.84v-2.2c0-.51.41-.93.92-.93s.92.42.92.93zm-.12 2.07v-2.07a.794.794 0 1 0-1.59 0v2.07h1.59z"/><path fill="#474747" d="M43.8 22.63v2.07h-1.59v-2.07a.794.794 0 1 1 1.59 0zm-.13 1.94v-1.94c0-.37-.31-.67-.67-.67-.37 0-.67.3-.67.67v1.94h1.34zm-.54-14.7v.04H43v-.29l.01-.02zM43 9.62v.29h-.12v-.02z"/><path fill="#474747" d="M43 9.91l-4.04 8.9h-.06v.26h-.21l4.19-9.18v.02zm-1.4 24.61v1.28h-1.78v-.13h1.64v-1.02h-1.64v-.13z"/><path fill="#474747" d="M41.46 34.65v1.02h-1.64v-.13h1.53v-.76h-1.53v-.13z"/><path fill="#FFF" d="M39.82 34.78h1.53v.76h-1.53z"/><path fill="#474747" d="M39.82 42.55v.13h-.26v-.13h.13zm0-.12v.12h-.13V35.8h.13z"/><path fill="#474747" d="M39.69 35.67h.13v.13h-.13zm.13-.13v.13h-.13v-1.02h.13v.13z"/><path fill="#474747" d="M39.69 34.52h.13v.131h-.13zm0-1.18h.13v1.18h-.13zm.13-1.37v1.37h-.13v-1.37zm0-4.46v4.46h-.13v-4.46zm-.13 8.29v6.75h-.13V35.8z"/><path fill="#474747" d="M39.69 35.67v.13h-.13v-1.28h.13v.13zm-.129-2.33h.13v1.18h-.13zm0-.13h.13v.13h-.13zm.129-1.1v1.1h-.13v-1.1z"/><path fill="#474747" d="M39.561 31.97h.13v.141h-.13zm.129-4.34v4.34h-.13v-4.34z"/><path fill="#474747" d="M39.561 27.51h.13v.12h-.13zm0-8.44h.13v8.44h-.13zm-.001 23.48v.13H27.31v-5.1c0-.98-1.01-1.78-2.24-1.78-1.24 0-2.24.8-2.24 1.78v5.1H10.5v-.13h12.19v-.01h.01v-4.96c0-.46.21-.89.54-1.22.44-.42 1.09-.69 1.83-.69.49 0 .95.12 1.33.32a2.298 2.298 0 0 1 .63.52c.13.15.23.32.3.5.06.18.1.37.1.57v4.97h12.13z"/><path fill="#474747" d="M39.56 42.43v.11H27.44v-4.96c0-.2-.04-.39-.11-.57-.07-.18-.17-.35-.3-.5a.684.684 0 0 0-.14-.15c-.14-.15-.31-.27-.49-.37-.38-.2-.84-.32-1.33-.32-.74 0-1.39.27-1.83.69-.35.32-.55.75-.55 1.22v4.96H10.5v-.11h12.08v-4.85c0-1.12 1.11-2.04 2.49-2.04s2.49.92 2.49 2.04v4.85h12z"/><path fill="#FFF" d="M39.56 35.8v6.63h-12v-4.85c0-1.12-1.11-2.04-2.49-2.04s-2.49.92-2.49 2.04v4.85H10.5V27.76h1.94v-1.15h1.69v1.15h2.21v-1.15h1.71v1.15h2.2v-1.15h1.71v1.15h2.21v-1.15h1.7v1.15h2.21v-1.15h1.71v1.15h2.2v-1.15h1.7v1.15h2.22v-1.15h1.7v1.15h1.95v4.21h-1.78v-1.09h-2.3v1.36h2.04v1.1h2.04v2.46z"/><path fill="#474747" d="M39.56 33.21v.13h-2.04v-1.1h.13v.97z"/><path fill="#474747" d="M39.56 33.09v.12h-1.91v-.97h.13v.85z"/><path fill="#FFF" d="M37.78 32.24h1.78v.85h-1.78z"/><path fill="#474747" d="M37.78 32.11h1.78v.13h-1.78z"/><path fill="#474747" d="M37.78 31.97h1.78v.141h-1.78zm1.78-4.34v.13h-1.95v-1.15h-1.7v1.15h-2.22v-1.15h-1.45v-.12h1.58v1.14h1.96v-1.14h1.95v1.14z"/><path fill="#474747" d="M39.56 27.51v.12h-1.83v-1.14h-1.95v1.14h-1.96v-1.14h-1.58v-.13h1.7v1.15h1.71v-1.15h2.21v1.15zm-.66-8.57h.66v.13h-.66zm.06-.13l-.06.13v-.13zm-1.31 13.3h.13v.13h-.13z"/><path fill="#474747" d="M37.65 31.97h.13v.141h-.13z"/><path fill="#474747" d="M37.78 30.88v1.09h-.13V31h-2.04v1.11h1.91v.13h-2.04v-1.36z"/><path fill="#474747" d="M37.521 32.11h.13v.13h-.13z"/><path fill="#474747" d="M37.521 31.97h.13v.141h-.13z"/><path fill="#474747" d="M37.65 31v.97h-.13v-.84h-1.78v.85h1.77v-.01h.01v.14h-1.91V31z"/><path fill="#FFF" d="M35.74 31.97h1.771v.011H35.74zm0-.84h1.771v.84H35.74z"/><path fill="#474747" d="M33.99 10.69v3.85l-.13.02h-1.62v-.12h1.62v-3.62h-1.95v1.14h-1.97v-1.14H28v1.14h-1.95v-1.14h-1.96v1.14h-1.96v-1.14h-1.94v1.14h-1.96v-1.14h-1.95v3.62h1.62v.12h-1.75v-3.87h2.21v1.15h1.69v-1.15h2.21v1.15h1.7v-1.15h2.21v1.15h1.69v-1.15h2.22v1.15h1.7v-1.15z"/><path fill="#474747" d="M33.86 14.41v.03h-1.62v-.13h1.49v-3.37h-1.7v1.15h-2.2v-1.15h-1.7v1.15h-2.21v-1.15h-1.71v1.15h-2.2v-1.15H20.3v1.15h-2.21v-1.15H16.4v3.37h1.5v.13h-1.62v-3.62h1.95v1.14h1.96v-1.14h1.94v1.14h1.96v-1.14h1.96v1.14H28v-1.14h1.94v1.14h1.97v-1.14h1.95z"/><path fill="#FFF" d="M33.73 10.94v3.37H16.4v-3.37h1.69v1.15h2.21v-1.15h1.71v1.15h2.2v-1.15h1.71v1.15h2.21v-1.15h1.7v1.15h2.2v-1.15z"/><path fill="#474747" d="M32.12 26.49h.12v.12h-.12zm.12-.13v.13h-.13v-.13zm-.13-11.8h.13v11.8h-.13zm0-.12h.13v.12h-.13z"/><path fill="#474747" d="M32.11 14.31h.13v.13h-.13zm.01 12.18v.12h-.13v-.12h.12zm-.13-.13h.12v.13h-.12zm.12-11.8v11.8h-.12v-11.8H18.15v11.8h-.14V14.44h14.1z"/><path fill="#474747" d="M18.01 14.31h14.1v.13h-14.1zm13.98 12.3v1.15h-2.2v-1.15h-1.71v1.15h-2.21v-1.15h-1.7v1.15h-2.21v-1.15h-1.71v1.15h-2.1v-1.27h.02v1.14h1.96v-1.14h1.96v1.14h1.96v-1.14H26v1.14h1.96v-1.14h1.95v1.14h1.96v-1.14h.12z"/><path fill="#474747" d="M31.99 26.36v.13h-.13v1.14h-1.95v-1.14h-1.95v1.14H26v-1.14h-1.95v1.14h-1.96v-1.14h-1.96v1.14h-1.96v-1.14h-.02v-.13h.15v1.15h1.71v-1.15h2.2v1.15h1.71v-1.15h2.21v1.15h1.7v-1.15h2.2v1.15h1.71v-1.15z"/><path fill="#FFF" d="M31.99 14.56v11.8h-.25v1.15h-1.71v-1.15h-2.2v1.15h-1.7v-1.15h-2.21v1.15h-1.71v-1.15h-2.2v1.15H18.3v-1.15h-.15v-11.8h13.84zm-.68 2.96v-1.36h-2.3v1.36h2.3zm-5.32 3.49v-2.2c0-.51-.41-.92-.92-.92-.52 0-.94.41-.94.92v2.2h1.86z"/><path fill="#474747" d="M31.31 16.16v1.36h-2.3v-1.36h2.3zm-.14 1.23v-1.11h-2.04v1.11h2.04z"/><path fill="#474747" d="M31.17 16.28v1.11h-2.04v-1.11h2.04zm-.12.98v-.85h-1.78v.85h1.78z"/><path fill="#FFF" d="M29.271 16.41h1.78v.85h-1.78z"/><path fill="#474747" d="M25.99 18.81v2.2h-1.86v-2.2c0-.51.42-.92.94-.92.51 0 .92.41.92.92zm-.13 2.08v-2.08c0-.44-.35-.79-.79-.79-.44 0-.81.35-.81.79v2.08h1.6z"/><path fill="#474747" d="M25.86 18.81v2.08h-1.6v-2.08c0-.44.37-.79.81-.79.44 0 .79.35.79.79zm-.12 1.95v-1.95c0-.37-.3-.67-.67-.67-.38 0-.67.3-.67.67v1.95h1.34zm-2.5 15.6c-.33.33-.54.76-.54 1.22v4.96h-.01v-4.96c0-.47.2-.9.55-1.22zm-5.09-9.87v1.27h-.1v-1.15h-.04v-.12zm-.14-.13h.14v.13h-.14zm-.11.13h.11v.12h-.11zm0-.13h.11v.13h-.11zm0-11.8h.11v11.8h-.11zm0-.12h.11v.12h-.11zm0-.13h.11v.13h-.11zm0 12.18v.12h-1.56v1.15h-2.21v-1.15h-1.69v1.15H10.5v-.13h1.82v-1.14h1.94v1.14h1.97v-1.14z"/><path fill="#474747" d="M17.9 26.36v.13h-1.67v1.14h-1.97v-1.14h-1.94v1.14H10.5v-.12h1.69v-1.15h2.21v1.15h1.69v-1.15zM7.17 9.87l4.13 9.2h-.19v-.26h-.06l-4-8.9h.12z"/><path fill="#474747" d="M10.5 18.94h.61v.13h-.61z"/><path fill="#EC5F64" d="M11.11 18.81v.13l-.06-.13z"/><path fill="#474747" d="M11.05 18.81l.06.13h-.61v-.1H3.61v.1h-.67l.07-.13h7.91z"/><path fill="#474747" d="M7.05 9.91l4 8.9h-.13l-3.87-8.59-3.9 8.59h-.14z"/><path fill="#FFF" d="M7.05 10.22l3.87 8.59H3.15z"/><path fill="#474747" d="M10.5 42.55v.13h-.27v-.13h.14zm0-.01v.01h-.13V27.63h.13v.13h-.02v14.67h.02z"/><path fill="#DADADA" d="M10.48 27.76h.02v14.67h-.02z"/><path fill="#474747" d="M10.5 27.51v.12h-.14v-.12zm-.14-8.44h.14v8.44h-.14zm.14-.13v.13h-.14v-.11H3.73v.11h-.12v-.13zm-6.89-.1h6.89v.1H3.61z"/><path fill="#DADADA" d="M10.36 27.63h.01v14.92h-.01z"/><path fill="#474747" d="M10.36 27.63v14.92h-.13V27.51h.13z"/><path fill="#474747" d="M10.36 19.07v8.44h-.13v-8.42H3.86v15.43h-.12V19.07zm0-.11v.11H3.73v-.11zm-.13 23.59v.13H3.61V35.8h.12v6.75z"/><path fill="#474747" d="M10.23 42.43v.12h-6.5V35.8h.13v6.63z"/><path fill="#FFF" d="M10.23 27.51v14.92H3.86V35.8h1.79v-1.28H3.86V19.09h6.37v8.42zm-2.25-2.68v-2.2c0-.51-.43-.93-.93-.93a.92.92 0 0 0-.92.93v2.2h1.85z"/><path fill="#474747" d="M7.05 9.61v.01l-.12.25V7.32l2.21.58-1.96.54v1.43l-.12-.27-.01.01zm0-1.26l1.6-.45-1.6-.41v.86z"/><path fill="#474747" d="M8.65 7.9l-1.6.45v-.86l1.6.41zm-1.48.28l.98-.28-.98-.25v.53z"/><path fill="#FFF" d="M8.15 7.9l-.98.28v-.53z"/><path fill="#474747" d="M7.98 22.63v2.2H6.13v-2.2c0-.51.4-.93.92-.93.5 0 .93.42.93.93zm-.14 2.07v-2.07a.8.8 0 0 0-.79-.8c-.44 0-.8.36-.8.8v2.07h1.59z"/><path fill="#474747" d="M7.84 22.63v2.07H6.25v-2.07c0-.44.36-.8.8-.8a.8.8 0 0 1 .79.8zm-.13 1.94v-1.94c0-.37-.29-.67-.66-.67-.36 0-.67.3-.67.67v1.94h1.33zm-.54-14.7v.04h-.12v-.3zm-.12-.25v.29h-.13v-.02l.01-.02v.02z"/><path fill="#474747" d="M7.05 9.62l-.12.27v-.02zm0 .29l-4.04 8.9h-.07v.26h-.19l4.17-9.18v.02zm-1.4 24.61v1.28H3.86v-.13h1.65v-1.02H3.86v-.13z"/><path fill="#474747" d="M5.51 34.65v1.02H3.86v-.13H5.4v-.76H3.86v-.13z"/><path fill="#FFF" d="M3.86 34.78H5.4v.76H3.86z"/><path fill="#474747" d="M3.73 35.67h.13v.13h-.13zm.13-.13v.13h-.13v-1.02h.13v.13z"/><path fill="#474747" d="M3.86 34.52v.13h-.13v-.13h.01zm-.13-15.45h.01v15.45h-.01zm0 16.6v.13h-.12v-1.28h.12v.13zm-.12-16.6h.12v15.45h-.12zm-.67-.13h.67v.13h-.67zm.07-.13l-.07.13v-.13z"/></svg>