<svg xmlns="http://www.w3.org/2000/svg" width="50" height="50" viewBox="0 0 50 50"><g fill-rule="evenodd" clip-rule="evenodd"><path fill="#FFF" d="M28.626 24.195l-.434.287c-.796-.203-.985.684-1.576.876-1.602.522-2.01 1.154-1.434 2.744.364 1.006.34 1.794-.105 2.762-.396.862-.228 1.865.495 2.596.508.515 1.174 1.219 1.89.837 1.784-.952 1.754.885 2.194 1.507.782 1.1-.941.636-1.19 1.312-.096.265-.768.189-1.153-.08-.337-.235-1.017-.154-1.016-.074.012 1.846-1.34.67-1.996.85-.769.209-1.638.048-2.465.048 3.447.947 6.911.343 10.383.449-1.92.749-4.072.34-5.784 1.325 1.949.745 3.902.304 5.85-.405.632-.231 1.605-.427 1.716.386.115.85-.944.857-1.611 1.034-.05.013-.106.004-.159 0-3.774-.326-7.568.576-11.386-.24.497.633 1.73.251 1.71 1.187-.013.636-.436 1.375-1.255 1.59-1.443-.293-2.933-.063-4.378-.486-1.746-.512-2.23-1.228-1.348-2.813.912-1.64 2.117-3.118 3.875-3.97 2.625-1.271 3.615-3.175 2.94-6.008-.16-.672.137-1.095.355-1.623.813-1.97-.142-3.167-1.98-4.132-2.21-1.16-3.92-3.09-4.797-5.577-.795-2.253-1.088-4.604-1.381-6.952-.195-1.562-.709-2.952-2.05-4.212 5.457-1.115 10.782-.366 16.059-.642.104.135.212.148.32.002 2.292.058 4.6-.31 6.876.249.211.052.403.068.41.34-1.066.13-2.188-.265-3.205.337-1.552.266-3.146-.38-4.682.226-.615.634-1.428.994-2.109 1.564-1.583 1.323-2.043 2.527-1.206 4.393l-1.395.274c.737.647.713 1.477 1.058 2.14.192.371.246.575.675.568 1.31-.024 2.616.332 3.93.044l.557-.013h2.317c.365 3.222-2.435 4.82-3.515 7.3z"/><path opacity=".5" fill="#D3D3D3" d="M32.996 7.7c1.017-.603 2.139-.208 3.204-.337l1.265.218c-2.381 2.087-2.005 5.003-2.305 7.624-.43 3.752-2.418 6.403-5.132 8.71-.39.33-.838.679-1.402.28 1.08-2.48 3.88-4.078 3.515-7.3h-2.317c.426-.518.778-1.167.31-1.71-.506-.587-1.277-.292-1.935-.096-.39.116-.655.382-.63.807.063 1.087 1.08.555 1.578.908.044.03.08.07.12.104-1.314.288-2.62-.068-3.93-.044-.43.007-.483-.197-.675-.568-.345-.663-.32-1.493-1.058-2.14L25 13.882c-.837-1.866-.377-3.07 1.206-4.393.68-.57 1.494-.93 2.11-1.564 1.595.65 3.14.25 4.681-.226zm-5.992 6.197c2.862.776 2.798.743 3.802-1.168.414-.788.51-1.386-.174-1.94-.675-.546-1.5-.976-2.316-.417-.693.474-1.14 1.555-.68 2.078.835.947-.1.989-.632 1.447zM21.3 43.186c.82-.215 1.242-.954 1.255-1.59.02-.936-1.213-.554-1.71-1.188 3.818.817 7.612-.085 11.386.24.053.005.109.014.159.001.667-.177 1.726-.184 1.611-1.034-.111-.813-1.084-.617-1.717-.386-1.947.709-3.9 1.15-5.85.405 1.713-.986 3.866-.576 5.785-1.325-3.472-.106-6.936.498-10.383-.449.827 0 1.696.16 2.465-.048.656-.18 2.008.996 1.996-.85-.001-.08.679-.161 1.016.074.385.269 1.057.345 1.154.08.248-.676 1.971-.213 1.19-1.312-.441-.622-.41-2.46-2.194-1.507-.717.382-1.383-.322-1.891-.837-.723-.731-.89-1.734-.495-2.596.445-.968.469-1.756.105-2.762-.576-1.59-.168-2.222 1.434-2.744.591-.192.78-1.079 1.576-.876-.732.89-.943 2.082-.577 2.971.56 1.356.358 2.698.544 4.04.252 1.819 1.138 3.257 2.97 3.946 1.95.734 3.218 2.312 4.345 3.905 1.193 1.687.591 2.906-1.455 3.222-4.212.654-8.456.882-12.719.62zm7.66-.541c1.05-.065 2.234.055 2.168-1.06-.07-1.135-1.237-.483-1.928-.605-.05-.008-.104.005-.157.01-.611.066-1.459-.05-1.436.836.028.986.913.796 1.353.819zm-2.794-9.457c1.281-.555.824-1.556.657-2.418-.049-.25-.552-.193-.75-.015-.953.846-.342 1.63.093 2.433z"/><path fill="#B6B6B5" d="M28.914 6.773c-.107.146-.215.133-.32-.002l.32.002z"/><path fill="#FFF" d="M29.268 16.908c-.04-.034-.077-.074-.12-.104-.5-.353-1.516.179-1.58-.908-.024-.425.242-.69.631-.807.658-.196 1.429-.49 1.935.096.468.543.116 1.192-.31 1.71l-.556.013zM32.996 7.7c-1.54.474-3.086.876-4.682.225 1.536-.606 3.13.04 4.682-.226zm-5.992 6.197c.532-.458 1.467-.5.633-1.447-.46-.523-.014-1.604.68-2.078.816-.559 1.64-.129 2.315.417.684.554.588 1.152.174 1.94-1.004 1.91-.94 1.944-3.802 1.168zm1.956 28.748c-.44-.023-1.325.168-1.353-.819-.023-.886.825-.77 1.436-.836.053-.005.107-.018.157-.01.69.122 1.859-.53 1.928.606.066 1.114-1.117.994-2.168 1.059zm-2.794-9.457c-.435-.802-1.046-1.587-.094-2.433.199-.178.702-.235.751.015.167.862.624 1.863-.657 2.418z"/></g></svg>