<svg xmlns="http://www.w3.org/2000/svg" width="100" height="50" viewBox="0 0 100 50"><g fill-rule="evenodd" clip-rule="evenodd" fill="#EFEFEF"><path d="M98.097 26.307c-.436-.897-1.269-1.288-2.15-1.61-.33-.118-.721-.203-.946-.437-.151-.157-.184-.09-.33-.107-.572-.067-1.134-.239-1.7-.372.03-.249.05-.425.092-.753l-.345.56c-.297-.042-.564-.066-.822-.124-.264-.058-.522-.153-.751-.223v-.872c-.15.36-.23.553-.295.717l-1.644-.4v-.85l-.138-.038-.26.603c-.51-.093-1.025-.185-1.53-.278.03-.36.048-.578.068-.793a3.48 3.48 0 0 1-.099-.029l-.25.609c-1.463-.32-2.842-.716-4.071-1.764-.269.646-.639 1.118-1.081 1.456l-39.136-.406c-1.158-.918-1.403-1.68-.903-3.153.35-1.035.83-2.032 1.307-3.018.366-.76.233-1.572.163-2.307-.15-1.545-1.498-2.7-3.053-2.875-1.524-.168-3.016.036-4.454.522-2.3.78-4.565 1.658-6.87 2.421-1.919.637-3.86 1.162-5.93 1.052-1.895-.1-3.665-.636-5.426-1.273-1.367-.495-2.735-1.018-4.14-1.377-2.985-.763-5.478.214-7.01 2.875-.961 1.672-1.756 3.464-2.427 5.278-.733 1.981-1.234 4.05-1.828 6.061-.065-.07-.165-.183-.314-.35l-.174.945.463-.043c-.083.781-.185 1.517-.233 2.253-.145 2.331-.126 4.656.503 6.93.495 1.792 1.317 3.397 2.94 4.432.458.294 1.013.529 1.548.59.99.112 1.997.075 2.947-.303.97-.385 1.966-.733 2.891-1.212 2.222-1.15 4.4-2.39 6.616-3.557 2.347-1.237 4.799-1.532 7.332-.624 1.585.568 3.155 1.183 4.728 1.785 1.432.548 2.898.8 4.433.586 2.175-.303 3.46-1.655 3.536-3.844.027-.735-.094-1.477-.196-2.21-.24-1.72.85-3.321 2.546-3.63.599-.11 1.22-.09 1.827-.167l.204-.028v-.143l35.889-.93c.065.049.145.095.235.143.53.288 1.112.603 1.463 1.066.46.604.963.848 1.683.766.176-.018.356 0 .536.004 2.784.065 5.568.127 8.353.194 1.077.026 1.983.441 2.718 1.227.795.848.975.888 2.034.403 1.487-.681 2.09-2.061 1.45-3.378zM8.822 30.66c.387.032.725.098.748.576a.726.726 0 0 1-.712.74c-.395-.001-.618-.22-.616-.623.059-.333.023-.739.58-.693zm.087 5.183c-.38-.045-.595-.251-.54-.662.059-.356.085-.711.62-.643.404.05.683.162.657.63-.023.42-.34.723-.737.675zm3.355-1.978c-.38-.01-.627-.178-.63-.602-.001-.48.192-.737.698-.852.21.236.516.442.604.718.12.366-.28.75-.672.736zm3.177-1.968c-.302-.028-.58-.208-.52-.614.05-.327.08-.763.6-.72.375.03.706.146.704.623-.002.433-.293.73-.784.711zm3.782-10.85h1.297c0 1.638.006 3.236-.003 4.834-.002.33.1.776-.403.758l.257-5.427c-.552-.115-.5.249-.51.5-.044 1.2-.066 2.4-.094 3.599-.006.254-.014.511-.006.766.01.404-.216.469-.538.394v-5.424zm21.374-5.717c-.172.45-.425.87-.67 1.288-.244.42-.512.825-.79 1.224-.787 1.128-1.071 2.353-.735 3.742h1.645v2.825l-.194.006c0-.147-.004-.296 0-.445.01-.609.043-1.217.013-1.824-.006-.12-.306-.349-.385-.316-.165.065-.376.268-.383.424-.042.724-.02 1.453-.135 2.179 0-.711.002-1.42 0-2.13-.002-.408-.005-.408-.63-.489-.033.939-.068 1.87-.095 2.803-.036 1.24.008 2.463-.366 3.696-.291.957-.206 2.026-.299 3.044-.106 1.171-.521 2.182-1.524 2.882-.95.663-2.003.724-3.087.488-3.08-.671-6.046-1.713-8.966-2.88-1.638-.655-3.24-1.393-4.858-2.094-.14-.062-.312-.096-.412-.198-.174-.179-.306-.403-.455-.607.21-.101.419-.28.636-.294.739-.048 1.481-.038 2.221-.05.743-.01 1.485-.006 2.226-.037.704-.028.991-.27 1.021-.974.07-1.657.09-3.318.129-4.976.005-.3 0-.602 0-1.005H22.38l.005-.16h2.123c.027-.503.069-.953.07-1.404 0-.417.134-.738.503-.965 3.607-2.231 7.213-4.47 11.086-6.228.64-.289 1.36-.459 2.06-.547 1.769-.229 3.002 1.365 2.37 3.022z"/><path d="M28.086 26.45c0 .763-.677 1.381-1.511 1.381-.835 0-1.512-.618-1.512-1.38V21.6c0-.763.677-1.38 1.512-1.38.834 0 1.51.617 1.51 1.38v4.85zm4.755 0c0 .763-.676 1.381-1.51 1.381-.835 0-1.512-.618-1.512-1.38V21.6c0-.763.677-1.38 1.511-1.38.835 0 1.511.617 1.511 1.38v4.85zm4.832 0c0 .763-.676 1.381-1.51 1.381-.836 0-1.512-.618-1.512-1.38V21.6c0-.763.676-1.38 1.511-1.38.835 0 1.51.617 1.51 1.38v4.85z"/></g></svg>