<svg xmlns="http://www.w3.org/2000/svg" width="100" height="50" viewBox="0 0 100.0004883 50.0004883"><path fill="#EFEFEF" d="M45.912 5.5h4.514v30.887h-4.514z"/><ellipse fill="#5E5E5E" cx="48.168" cy="34.961" rx="13.068" ry="4.989"/><circle fill="#5E5E5E" cx="48.169" cy="5.5" r="4.612"/><path fill="#1C5929" d="M22.968 32.942h3.801v1.188h-3.801z"/><path fill="#CF2221" d="M31.521 32.942h3.801v1.188h-3.801z"/><path fill="#3A509E" d="M27.245 33.342h3.801v1.189h-3.801z"/><path fill="#EFEFEF" d="M19.998 33.654h56.31v12.594h-56.31z"/><circle cx="48.169" cy="39.951" r="2.257"/><path fill="#3D3D3D" d="M47.672 41.158c3.652 6.285 12.081 5.07 18.17 6.7 5.218 1.397 8.497 7.639 12.204 11.22 2.866 2.767 6.244 4.164 10.093 4.996.786.17 1.12-1.035.332-1.205-9.351-2.022-12.29-9.524-19.28-14.847-5.97-4.546-16.15-.112-20.44-7.495-.404-.696-1.484-.068-1.079.63z"/></svg>