<svg xmlns="http://www.w3.org/2000/svg" width="100" height="50" viewBox="0 0 100.0004883 50.0004883"><path fill-rule="evenodd" clip-rule="evenodd" fill="#EFEFEF" d="M70.402 9.9c-.403-.07-.842-.06-1.203-.223-2.525-1.142-5.024-.944-7.514.084-.339.14-.683.303-.968.527-.796.625-.723 1.231.196 1.673.386.187.811.295 1.396.502l-1.505.505c.439.18.683.315.946.384 1.617.424 2.442 1.13 2.455 2.822.02 2.417-.26 4.838-.45 7.254-.038.484-.492 1.067.307 1.261.719.174 1.133-.315 1.245-.954.16-.907.174-1.84.33-2.748.193-1.12.466-2.227.742-3.515l-.877 1.157c-.236-.47-.475-.87-.641-1.298-.192-.496-.376-1.006.445-1.185.224-.049.371-.402.575-.593.618-.58 1.244-1.148 2.077-1.912.042.743.06 1.088.084 1.495 1.322-.703 2.478-.289 3.42.659 1.345 1.356 2.594 2.809 4.046 4.183l-2.504-5.058c.723.038 1.244.004 1.738.105.898.182 1.772.583 2.672.634.897.05 1.24.508 1.232 1.218-.013 1.092-.021 2.231-.331 3.26-.432 1.441-1.064 2.836-1.748 4.18-.683 1.342-1.072 2.657-.59 4.144.365 1.133.1 2.17-.805 2.915-1.506 1.243-1.558 2.788-1.22 4.522.376 1.918.674 3.852.941 5.789.576 4.18-3.309 7.11-6.998 6.266-5.11-1.171-10.281-2.106-15.46-2.936-3.647-.584-6.379-4.259-4.152-8.586.826-1.604 1.848-3.108 2.796-4.648.946-1.54 1.367-3.075.333-4.779-.603-.99-.386-2.008.34-2.884 1.087-1.309 1.072-2.769.905-4.376a28.675 28.675 0 0 1-.025-5.509c.206-2.252 1.747-3.713 3.707-4.47 2.489-.962 4.986-2.182 7.791-1.788 1.894.266 3.775.628 5.65 1.003.286.057.512.414.766.633l-.144.287zM48.506 39.816c.116 1.142.83 1.759 1.577 2.365.698.566 1.14-.017 1.652-.326a.631.631 0 0 1 .317-.077c2.138-.002 4.28-.081 6.413.023 3.221.157 6.204 1.215 9.109 2.575 2.15 1.008 3.937-.27 3.73-2.664-.117-1.351-.422-2.698-.765-4.015-1.02-3.899-3.798-5.846-7.576-6.54-3.705-.68-6.904.218-9.246 3.339a23.741 23.741 0 0 0-1.837 2.894c-.382.702-.404 1.75-.95 2.173-.52.4-1.513.187-2.424.253zm7.177-20.076c.346.12.496.232.609.202 1.767-.465 3.479-.296 5.19.308.231.082.815-.24.916-.5.364-.942.535-1.983-.175-2.83-.67-.8-1.61-.531-2.47-.3a5.45 5.45 0 0 0-1.126.444c-1.16.613-2.285 1.276-2.944 2.676zm13.729-1.841c-1.115.026-1.881 1.12-1.98 2.555-.046.68.207 1.04.926 1.054 1.563.031 3.077.226 4.362 1.264.19.154.543.105.82.15.033-.304.176-.651.08-.905-.67-1.75-1.853-3.066-3.528-3.918-.255-.13-.556-.165-.68-.2zM55.7 42.873c.165.052.326.136.494.153 4.473.419 8.784 1.525 13.02 2.99 1.18.407 2.354.155 3.368-.58.367-.268.625-.686.933-1.036l-.264-.315c-.507.248-1.03.47-1.521.748-1.184.672-2.334.894-3.658.262-1.427-.68-2.925-1.226-4.428-1.724-2.573-.854-5.195-1.357-7.944-.498zm4.052-15.915l-.013.485c1.839.334 3.756.45 5.497 1.062 1.773.625 3.373 1.742 5.105 2.673-.322-.298-.612-.57-.906-.838-.321-.29-.647-.576-.968-.861.831-1.006-.506-2.42-2.64-2.821l.54.676-.974.082.424.67-4.437-.825.515-.681-2.143.378zm13.328-2.287c-.956-1.621-2.872-2.612-4.274-2.278.469 1.958 1.24 2.4 4.274 2.278zm-11.76-3.694c-1.104-.592-2.017-.527-2.823.211-.19.173-.185.556-.27.843.259.04.565.19.769.102.753-.322 1.472-.724 2.325-1.156zm6.23 2.948c-.191-.45-.449-1.15-.8-1.798-.082-.152-.481-.132-.735-.191-.03.234-.172.59-.071.683.545.504 1.15.944 1.606 1.306z"/><path fill-rule="evenodd" clip-rule="evenodd" fill="#EFEFEF" d="M38.086 15.001c.127.136.31.41.372.385.475-.193.928-.443 1.626-.796-.494.526-.83.862-1.141 1.22-.584.671-.422 1.262.455 1.257 1.414-.008 2.832-.201 4.238-.39.764-.102 1.5-.396 2.262-.528.384-.066.797.035 1.336.068.021-.075.096-.327.182-.618.13.09.264.132.292.21.62 1.762.233 4.18-2.182 4.673-1.085.222-2.046 1.11-3.034 1.742-1.737 1.109-3.37 2.408-5.194 3.34-2.192 1.121-4.423.352-6.56-.542l2.21.434c.018-.106.038-.212.055-.318l-4.73-.889-.053.28c5.108 2.968 8.975 2.431 13.091-.682 1.03-.78 1.992-1.658 3.071-2.358 1.14-.741 2.395-1.149 3.778-.512.23.106.576-.04.78-.06 1.615.982 1.802 2.572 1.718 4.18-.25 4.833-1.451 9.291-4.967 12.915-5.29 5.45-11.43 4.436-16.393.443-3.172-2.55-5.234-5.983-6.474-9.878-.475-1.49-.555-2.963.064-4.442.432-1.031.403-1.993-.084-3.084-.292-.655-.11-1.653.154-2.394.298-.845.459-1.534.073-2.418a26.327 26.327 0 0 1-1.395-4.078c-.749-2.963-.044-4.961 2.567-6.564 2.027-1.245 4.17-2.409 6.408-3.18 2.397-.827 4.951-.575 7.406.165.084.025.14.147.434.474-1.051 0-1.87.016-2.688-.003-1.814-.043-3.481.418-5.105 1.239-2.65 1.339-2.116 2.56-.608 4.71H27.2c4.494.622 5.525 4.222 6.6 7.647.432 1.38.304 2.927.527 4.384.068.452.44 1.21.684 1.216.738.015 1.029-.548.907-1.31-.311-1.96-.63-3.92-.878-5.887-.147-1.16-.163-2.336-.239-3.525l-.714 2.485c-.635-1.058-1.126-1.87-1.452-2.413.463-.653.853-1.04 1.05-1.51.646-1.545 1.844-2.377 3.401-2.81l-.87.74.087.252c.392-.088.78-.226 1.175-.254 1.38-.1 2.8-.39 4.138-.181 1.82.284 2.81 1.645 3.101 3.509.61-.987.568-.984.432-2.635-.047-.572.176-1.167.523-1.718.48 2.465.258 4.881-.156 7.259-.978.44-1.852.45-2.86.027-1.646-.69-3.177-.028-4.616.82.921-1.272 2.154-1.939 3.73-2.085.447-.041 1.113-.335 1.229-.669.125-.358-.184-.977-.476-1.348-.83-1.054-1.935-1.31-3.054-.826-1.562.676-2.612 2.338-2.603 4.05.005.94.357 1.235 1.221.781zM24.003 28.182l-.25.097c-.013.07-.048.146-.034.21 1.331 5.619 7.306 10.67 13.103 11.028 1.204.074 2.386-.152 3.406-.976-2.05.785-3.943.3-5.803-.583.387-.124.774-.17 1.146-.117 2.276.33 4.315-.197 6.155-1.585 1.883-1.419 3.356-3.196 4.05-5.422.531-1.697.686-3.522.884-5.304.047-.414-.313-1.105-.666-1.262-.322-.143-.953.177-1.333.452-.716.517-1.33 1.172-2.019 1.729-2.723 2.2-5.726 3.603-9.314 2.76-1.713-.402-3.364-1.08-5.028-1.674-1.256-.449-1.619-.172-1.515 1.141.254 3.221 2.069 5.432 4.572 7.214.695.495 1.4.979 2.1 1.468-.043.079-.084.16-.125.238l-2.635-1.135-.06.166c.332.235.665.47 1.15.81-.3 0-.378.023-.432-.004a15.77 15.77 0 0 1-.78-.422c-2.74-1.585-4.546-3.936-5.661-6.868-.255-.672-.605-1.308-.91-1.96zm7.778-12.028c-.041-1.695-1.164-3.146-2.783-3.74-1.842-.675-3.18.069-3.413 2.024-.097.824.118 1.685.223 2.913l1.264-1.526c1.496-.937 2.989.506 4.709.329zm5.691 2.758l-.346.232.124 1.742c.45-.045.955.02 1.335-.167.34-.167.543-.611.806-.933l-1.919-.874zm-7.4.02l.962-1.073c-.363-.27-.695-.66-1.1-.763-.204-.053-.809.507-.767.626.134.381.486.685.905 1.21zm13.974 1.15l-.254-.323-2.883 3.019.332.337 2.805-3.033zM33.25 22.849l.402-.027-.46-3.32c-.06.01-.122.017-.183.025l.24 3.322zm.529 5.942c.033-.154.068-.306.102-.458l-1.981-.461-.106.43c.663.162 1.323.325 1.985.489z"/></svg>