<svg xmlns="http://www.w3.org/2000/svg" width="100" height="50" viewBox="0 0 100.0004883 50.0004883"><path fill-rule="evenodd" clip-rule="evenodd" fill="#E3E3E2" d="M42.918 114.78c.003-8.551.007-17.104.009-25.658.002-2.756-.008-5.512.005-8.268.005-.53-.035-.963-.58-1.256-.472-.254-.55-.789-.707-1.27-.454-1.386-.372-2.814-.418-4.234 1.733.319 3.424.795 5.09 1.36.009.748.05 1.502.014 2.25-.034.703.22.744.837.591.86-.21 1.594-.644 2.37-1.02.457-.222.682-.476.752-1.038.128-1.008.14-2.15 1.427-2.572.244-.08.362-.387.437-.686.262-1.049.233-2.104.087-3.156-.143-1.022-.34-2.035-.51-3.055-.374-2.234-.745-4.47-1.124-6.703-.042-.258-.267-.213-.447-.225-.226-1.191-.026-2.394-.096-3.586-.043-1.43-.043-1.43-1.519-1.529-.122-.012-.246-.012-.367-.035-1.292-.223-1.292-.223-1.27 1.027-.407.07-.805.033-1.21-.045-1.255-.238-2.511-.459-3.768-.683-.405-.069-.854-.21-.861.463-.032-.008-.083-.006-.09-.02-.18-.584.69-1.94 1.263-1.986.368-.033.848.162.91-.492.052-.55-.162-.776-.656-1.04-.54-.285-1.405-.482-1.146-1.488.085-.334-.41-.431-.437-.908-.054-.916.278-1.098 1.04-1.031.248.02.499.008.748.012.016.777-.041 1.568.36 2.355.27-1.012-.093-1.994.222-2.928l.082.934c.218-.059.161-.285.245-.42.146-.234.3-.418.594-.287.302.13.254.379.178.633-.054.177-.085.359-.127.539-.146.398.07.574.416.636.405.075.669-.074.703-.517.37-.149.345-.543.507-.889.636.807 1.476.477 2.248.498.071.557.066 1.133.491 1.922.29-1.174.601-2.086.633-3.058.013-.397.337-.852-.13-1.206-.084-.394.047-.634.476-.66.021.334-.05.782.294.91.406.15.529-.304.705-.578.247-.154.488-.31.518-.64-.414-.114-.703-.059-.8.377a34.03 34.03 0 0 1-.629-.159c.143-.582.716-.869 1.1-.761.82.23.77-.246.873-.74.128-.606.26-1.223.748-1.688-.332-.277-.752-.328-1.102-.516-.724-.384-1.239-.474-1.465.545-.161.733-.746.276-1.074.19-2.509-.639-4.897-1.63-7.325-2.506-.555-.201-1.097-.424-1.522-.858.113-.013.225-.03.336-.046l-.443-.442c-.095-.076-.188-.2-.301-.021l-.006-.004c.245-.381-.182-.446-.319-.614-.61-.75-1.266-1.458-1.589-2.394.184-.111.364-.238.6-.211 1.11 1.875 2.307 3.658 4.443 4.522-1.558-1.846-3.263-3.575-3.207-6.227.716.246.527-.666.976-.762-.07 1.809.41 3.418 1.56 4.86.645.804 1.443 1.455 2.074 2.255.525.665 1.066.602 1.524.391-.694-.783-1.444-1.533-2.075-2.373-.83-1.107-1.696-2.24-1.342-3.785.867-.406.533-1.281.733-1.942.153-.501.16-1.056.636-1.39.306-.213.654-.444.918.078-.733.062-1.043.463-1.19 1.191-.61 3.018.842 5.243 2.73 7.297.834.908 1.892 1.326 3.427 1.07-1.238-.796-2.026-1.722-2.803-2.648-.849-1.014-1.613-2.078-1.416-3.517.308-.776.126-1.606.27-2.405.044-.254.012-.734-.506-.736l-.022.035c-.205-.607-.512-1.166-.25-1.883.148-.408-.557-.035-.645-.396.516-.022 1.036-.076 1.524.162.141.574.267 1.154.436 1.72.047.16.08.565.386.327.43-.332 1.016-.06 1.437-.565.397-.476 1.43-.1 1.48.502.064.776.194 1.649-.087 2.323-.308.738-.144 1.164.298 1.656.418.465.267 1.242.887 1.601.237.137.553.264.588-.091.136-1.366 1.339-2.245 1.549-3.561.072-.46.426-.709.786-.625.376.088.497.477.403.918a2.206 2.206 0 0 1-.598 1.125c-.696.72-1.368 1.465-1.767 2.408-.139.322-.269.658-.072.987 1.071 1.783 4.092 1.912 5.155.119.705-1.186 1.215-2.516 1.36-3.936.13-1.273.182-2.562.437-3.808.463-2.27 1.037-4.518 1.593-6.768.886-3.575 1.28-7.241 2.074-10.834.2-.91.393-1.855-.272-2.684-.595-.747-1.156-1.517-1.43-2.445-.269-.905-.886-1.472-1.67-1.929-.398-.23-.806-.46-1.047-.907-.252-.463-.73-.406-1.176-.388-.474.021-.378.43-.467.696-.177.532-.418 1.07-.457 1.617-.033.505-.248.805-.604 1.077-1.788-.52-3.657-.58-5.47-.963-.064-.102-.12-.288-.188-.293-1.628-.113-2.829-.866-3.572-2.327.182-.49.38-.977.544-1.472.238-.707.687-.892 1.357-.6-.199.519-.411 1.032-.59 1.557-.113.333-.379.727.126.97.464.222.9.057 1.141-.342.27-.443.416-.96.617-1.446.106-.255.2-.702.438-.656.713.139.88-.454 1.253-.772.364-.31.752-.558 1.264-.468l.278.044c-.102.114-.184.294-.306.333-1.31.4-1.74 1.47-2.059 2.639-.139.52-.055 1.011.513 1.103.455.072 1.013.096 1.154-.646.097-.503.471-.937.524-1.473.018-.196.153-.268.31-.286 1.066-.127 1.915-.945 3.023-.932.125-.004.261-.044.37-.007 4.807 1.642 8.633 4.337 9.856 9.604.403 1.74.217 3.513-.423 5.252-.377 1.023-.408 2.174-.58 3.27-.104.67-.035 1.387-.534 1.945-.176.195-.104.388-.073.61.095.646-.698 4.176-1.088 4.747-.164.236-.055.402-.024.61.147.925-.627 1.634-.694 2.39-.071.822.176 1.64-.535 2.289-.257.234-.068.455-.054.687.044.756.115 1.531-.639 2.031-.208.14-.164.26-.113.465.593 2.409-1.321 5.66-3.733 6.203-.914.207-1.403.676-1.725 1.49-.445 1.134-.942 2.253-1.401 3.382-.154.377-.331.722-.663.974-.312-.062-.424.192-.577.375-.66.795-1.129 1.748-2.123 2.365.585.239.763-.115.988-.392.5-.625.935-1.305 1.579-1.803.362.068.325.361.281.592-.136.707-.176 1.512-.684 2.021-1.12 1.121-.602 2.243-.244 3.442.525 1.734.673 3.549.914 5.342.014.091-.111.2-.173.302-.228-.134-.183-.379-.235-.584-.376-1.455-.748-2.912-1.123-4.369-.063-.248-.132-.543-.453-.494-.377.059-.243.402-.204.613.313 1.692.618 3.385.985 5.065.399 1.824 1.102 3.572 1.371 5.431.186 1.266.346 2.54.465 3.815.045.469.187.178.327.101.451 1.397.185 2.832.204 4.252.002.184-.258.46-.459.547-1.066.471-1.872 1.346-2.904 1.858-.453.224-.651.529-.611 1.035.07.863-.137 1.617-.947 2.097-.477.282-.348.764-.348 1.188 0 10.027.005 20.053.009 30.082 0 1.252.007 2.504.01 3.76h-.565c-.013-3.793-.034-7.586-.036-11.381-.005-7.43.007-14.863-.018-22.293-.002-.256.373-.828-.344-.822-.593.006-.82.332-.734.916.037.246.007.5.007.752l-.005 32.828h-.375c-.004-6.795-.008-13.586-.01-20.381 0-4.354.007-8.705-.017-13.057-.002-.193.335-.662-.272-.644-1.611-.797-2.211-.461-2.207 1.24.008 5.303.01 10.604.02 15.904.01 5.647.025 11.291.037 16.938h-.94c.007-.094.02-.19.02-.283V80.928c0-.215.056-.445-.21-.72v34.572h-.564zm4.516-61.926c-.102-.787.518-.287.87-.465-.454-.73-1.31-.441-1.843-.84-.188.616.5.692.609 1.106-.271.064-.739-.13-.728.344.019.712-.35.812-.924.802-.245-.002-.464.168-.483.653 1.316-.309 2.625-.34 3.935-.309.249.006.676.16.716-.201.043-.377-.25-.602-.668-.756-.49-.18-1.065.08-1.484-.334zm9.104-12.148c.91.156 1.459-.075 1.919-.547 1.034-1.055 1.397-2.44 1.561-3.809.155-1.297.649-2.482.918-3.734.259-1.198.568-2.41.871-3.608.358-1.42.676-2.86.928-4.314.408-2.365 1.157-4.672 1.322-7.09.025-.364.12-.735.25-1.079.842-2.256.615-4.442-.402-6.58-.033-.07-.074-.246-.286-.105.19 1.127.238 2.282.214 3.44-.008.345.003.674-.505.458-.637-.268-.576.193-.593.572-.027.63.448 1.09.572 1.675.089.411.142.728-.447.534-.656-.216-.639.222-.656.652-.02.48.3.801.504 1.184.156.3.465.713-.236.82-.948.147-1.167.656-.632 1.483.251.386.65.708.402 1.236-.333.17-.596-.617-1 .018-.318.503-.282.923-.062 1.376.133.275.423.477.46.805.027.285.038.667-.413.436-.566-.289-.656.206-.826.468-.21.322-.244.688.101 1.012.248.232.511.493.635.798.133.322.143.776-.449.518-.564-.246-.636.144-.762.502-.2.572.074 1.02.349 1.49.32.555.213.785-.407.756-.385-.018-.425.199-.488.414-.145.5-.087.959.202 1.433.21.344.434.825-.326.957-.412.073-.506.452-.576.858-.097.557.435.937.371 1.392-.275 2.022-.313 4.163-2.513 5.579zM46.32 34.528a3.804 3.804 0 0 0 .6 2.242c1.091 1.715 2.043 3.664 4.532 3.664.227 0 .555.125.667-.174.106-.285-.261-.285-.392-.435-1.626-1.907-3.686-3.59-3-6.576.147-.645-.356-1.05-.998-1.114-.598-.062-1.125.055-1.207.81-.058.53-.133 1.055-.202 1.583zm7.259-28.575c.816-.01 1.854-1.088 1.822-1.808-.009-.147-1.31-1.007-1.5-.99-.374.034-1.24 1.403-1.255 1.981-.02.718.501.764.933.817zm-3.212 46.596c-.201-.425-.56-.681-.9-.945-.133-.104-.276-.287-.49-.164-.204.115-.157.324-.159.504-.004.19 1.173 1 1.324.904.096-.06.147-.191.225-.299zm-6.954 1.018c-.073.035-.119.06-.167.084.048.047.089.11.149.133.033.013.092-.04.14-.065-.04-.05-.083-.101-.122-.152zm2.608-21.188c.011-.048.019-.078.024-.105-.015.006-.043.012-.043.018-.001.021.008.044.02.087z"/><path fill-rule="evenodd" clip-rule="evenodd" fill="#FFF" d="M47.436 114.78l.005-32.828c0-.252.03-.506-.007-.752-.086-.584.14-.91.734-.916.717-.006.342.566.344.822.025 7.43.013 14.863.018 22.293.002 3.795.023 7.588.036 11.38h-1.13zm-.672-26.559c-.004-.43-.008-.861-.01-1.29.246-1.204.22-2.407.006-3.606v-.914c.224-.45.228-.897-.004-1.346l.006-.367c.607-.018.27.45.272.644.024 4.352.017 8.703.017 13.057.002 6.795.006 13.586.01 20.38h-.19c.01-3.597.019-7.19.026-10.786 0-.186.017-.377-.14-.524.003-.18.003-.357.003-.539.044-.08.124-.158.124-.238.006-3.113.004-6.225-.002-9.338 0-.078-.08-.158-.122-.24 0-.553-.002-1.112-.004-1.666a7.655 7.655 0 0 0 .008-3.227zm-3.283 26.559V80.208c.267.275.21.505.21.72.002 11.188.002 22.381 0 33.569 0 .093-.012.189-.02.283h-.19z"/><path fill-rule="evenodd" clip-rule="evenodd" fill="#E3E3E2" d="M60.084 90.354c.116.107.103.25.103.387l-.02 7.959h-.137c0-2.485-.003-4.969 0-7.457 0-.297.036-.592.054-.889zM41.513 57.16c.044.046.087.087.132.128.398-.877 1.083-.46 1.683-.358.863.149 1.72.33 2.58.496.362.069.613.178.597.655-.046 1.597-.029 3.193-.065 4.787-.005.265.056.662-.206.773-.315.131-.59-.176-.781-.414-.607-.752-1.6-.299-2.294-.766-.034-.021-.19.059-.212.12-.06.158-.007.33.15.396.287.117.589.197.879.291-.646.54-1.357.504-2.046.106-.285-.16-.458-.057-.677.05-.089-.761.51-1.42.337-2.191.264-.775.477-1.549-.106-2.283-.087-.6-.189-1.198.029-1.79zm2.056 1.782c.16.318.278.588.425.846.12.209.286.312.535.154.163-.104.34-.21.254-.422-.07-.178-.267-.334-.444-.225-.43.262-.46-.238-.77-.353zm-2.331 7.055c1.132.134 1.952 1.056 3.098 1.199.488.064.78.14.724-.5-.023-.242.065-.496.124-.738.098-.416.455-.524.794-.518.447.006.282.408.297.65.136 2.092.016 4.186-.005 6.28-.005.547-.17.728-.73.566-.959-.277-1.943-.477-2.903-.76-.44-.127-1.127-.045-1.015-.86-.117.013-.233.026-.352.036-.058-.332-.166-.674.122-.96.204.023.353.005.334-.27-.033-.514-.048-1.03-.067-1.545-.008-.192-.008-.383-.011-.575.002.188.158.444-.21.47-.471-.794-.052-1.657-.2-2.475zm4.891-57.216c2.925.241 5.874.332 8.694 1.291-.684.02-.32.693-.602.963-2.343-.7-4.763-.926-7.181-1.152-.026-.112.004-.274-.16-.284-.176-.01-.135.161-.168.266-.147.097-.287.1-.418-.028-.037-.184-.125-.356-.332-.267-.175.075.03.165.05.253-.002.168-.136.22-.252.288-.578.01-1.153-.168-1.733-.012a17.026 17.026 0 0 1-.081-.281c.245-.034.489-.089.733-.098.97-.038.97-.033.486-.939h.964zM44.685 7.72c-.123.963-.692 1.151-1.597 1.107-.946-.046-1.915-.148-2.865.074-.3.07-.453-.167-.607-.348-.483-.57-.114-2.397.566-2.852a.807.807 0 0 0-.043-.034c.284.578-.206 1.079-.152 1.66 1.008.23 1.977-.46 2.994-.184-.073.053-.145.108-.22.16-.176.12-.588.029-.489.388.082.306.386.19.627.14.566-.12 1.158.037 1.715-.172l.07.06zm-4.012 17.097c.086.96-.317 1.371-1.31 1.293-1.212-.093-2.423-.08-3.393-1.017-.592-.574-.256-1.084.008-1.6.115-.223.443-.283.488.015.181 1.247 1.04.839 1.76.764.217-.021.424-.107.632.024-.01.236-.428.219-.334.469.084.22.343.244.559.193.525-.123 1.077.087 1.59-.14zm6.193-13.019c2.431.113 4.839.385 7.172 1.124-.738-.013-.585.514-.577.952-1.731-.5-3.53-.624-5.285-.979-.414-.662-1.268-.22-1.78-.726.16-.125.313-.249.47-.371zm-7.028 16.099c.318.85-.025 1.12-.869 1.082-1.256-.053-2.49-.102-3.517-.98-.49-.42-.51-.887-.274-1.43.094-.215.224-.428.466-.395.391.051.061.35.127.496.324.727 1.004.52 1.584.545.347.016.696-.361 1.046.002-.03.297-.462.135-.634.567.822-.342 1.401.244 2.071.113zm1.11-8.951c.475.258.386.705.26 1.064-.122.344-.53.233-.833.273-.837.113-1.65-.17-2.495-.133-.465.02-.87-.48-.96-1.008-.085-.499-.046-1.014.396-1.373.154-.124.45-.144.437.094-.06 1.255.827.6 1.326.663.221.028.477-.21.646.119-.083.102-.169.204-.252.308.491-.073.987.529 1.475-.007zm9.851 6.638c-1.678-.32-3.357-.638-5.036-.956-.122-.2-.25-.28-.395-.02-.132.097-.26.108-.379-.021.176-.33.27-.708.58-.954 1.855.12 3.698.294 5.45.977l-.22.974zm1.868-8.832l-4.864-.925c-.061-.15-.143-.13-.232-.024-.253.112-.485.05-.711-.078l-.173-.933c2.057.073 4.088.316 6.06.93-.059.084-.308.115-.226.153.504.24.057.598.146.877zm-10.687-.437c-.653.961-1.544 1.337-2.666.997-.495-.15-1.088.313-1.514-.36-.348-.554-.403-1.44.076-1.882.154-.143.485-.324.457.04-.093 1.2.796.466 1.2.641.281.12.63-.36.942.025l-1.025.54h2.53zm-2.841-.044c-.29.106-.693-.1-.84.329-.012.04.045.146.082.154.405.092.5-.318.758-.483zm2.247 5.658c-.005.916-.395 1.327-1.373 1.226-.865-.087-1.735-.087-2.592-.27-.998-.21-1.456-1.222-.946-2.102.08-.138.162-.284.345-.262.238.027.171.197.14.35-.097.461.21.526.55.536.27.008.507.035.5.39-.122.015-.245.022-.367.044-.232.039-.516-.088-.674.181-.029.048.037.174.089.244.248.33.53.104.742-.022.358-.208.748-.391 1.125-.293.835.217 1.643.038 2.461-.022zm1.904-8.633c.034.972-.418 1.203-1.375 1.203-.894.001-1.776-.383-2.682-.071-.27.093-.458-.152-.514-.425-.065-.31.028-.649.328-.69.828-.112 1.584-.55 2.44-.511-.056.07-.1.152-.17.21-.168.143-.566.126-.45.467.102.304.43.086.62.14.679.194 1.2-.255 1.804-.323zm-7.505 23.126c.399-.511-.15-.82-.284-1.203-.25-.703-.718-1.344-.504-2.154.267.137.081.576.487.668.26-.363.037-.912.41-1.238-.455 2.793 1.32 4.545 2.964 6.357a7.388 7.388 0 0 1-3.073-2.43zm4.478-25.097c.604-.483 1.906-.654 2.426-.24.21.167.256.058.332-.04.222-.288.58-.342.858-.526.115.828-.197 1.211-1.078 1.125-.58-.057-1.172.005-1.758-.014-.284-.01-.646.115-.78-.305zm1.274-1.256c-.373.52-1.008.557-1.53.704-.438.125-.397.341-.426.623-.49.1-.706-.217-.786-.598-.113-.543.028-1.032.5-1.403.306.32-.14.543.014.852.726-.026 1.466-.292 2.228-.178z"/><path fill-rule="evenodd" clip-rule="evenodd" fill="#E3E3E2" d="M47.823 12.875c-.643-.021-1.293.015-1.927-.082-.506-.078-.716.153-.886.539-.377-.833-1.094-.27-1.64-.403-.26-.145-.608.068-.833-.209 1.242-.374 2.512-.159 3.762-.104.492.022 1.064-.09 1.524.259zm2.237 8.365c.545-.02 1.062.107 1.56.323.005.202-.7-.236-.306.352.123.183.073.479.102.725-.393-.118-.785-.235-1.176-.35-.006-.36.065-.732-.18-1.05zM46.493 7.058c.03.177.033.342-.177.419-.605-.329-1.182-.477-1.631.242l-.071-.06c.047-.27.033-.483-.338-.465-.267.012-.549.073-.798-.095 1-.407 2.006-.27 3.015-.041zm1.31-5.234c-.393-.197 1.056-.376.005-.58.761-.327 1.519-.33 2.274.023-.687.483-1.483.522-2.28.557zm-2.439 24.843c.204-.09.397-.043.587.046.113.35.554.579.378 1.034-.52.029-1.041.076-1.544-.122.477-.148.558-.537.579-.958zm2.242-4.855c-.624-.091-1.271.046-1.877-.213.183-.157.562.118.623-.233.1-.564.512-.352.797-.331.465.035.481.411.457.777zm-.936-3.955c.39-.077.779-.17 1.166.004l.167.152L48 18.01c.039.28-.041.531-.19.764a1.2 1.2 0 0 1-.766-.05c-.017-.335-.492-.474-.374-.867zM45.544 1.829l.037-.314c.565-.388 1.17-.297 1.778-.142-.5.574-1.216.285-1.815.456zm-3.406 14.306l-.004.006c.487.17.932-.346 1.428-.008-.48-.13-.902.872-1.424.002zm.98 8.245l-.533.045c-.419-.162-.822.338-1.39-.037.726-.205 1.318-.277 1.923-.008zm1.129 3.195c-.772.12-1.513-.194-2.276-.16.793-.434 1.524 0 2.276.16zm-7.341 3.396c-.27.176-.536.354-.806.531-.225-.398.061-.558.342-.705.205-.111.42-.175.464.174zm8.079 16.606c.27.006.468-.313.765-.166-.196.32-.35.851-.765.166zM53.249 61.7c-.252-.229-.243-.5-.123-.79.4.21.394.48.123.79zM37.934 34.36c.089.265.108.535.031.807-.549-.249-.544-.518-.031-.807zm16.045 32.992c-.266-.238-.262-.5-.075-.781.362.228.369.492.075.781zm-.183-1.695c-.293-.291-.22-.627-.133-.971.23.299.504.59.133.97zM41.437 55.63c.217.314.204.646.083.988-.197-.315-.124-.65-.083-.989zm-2.681-24.645c-.13.2-.3.348-.532.416-.037-.414.22-.45.532-.416zm5.494-6.461c-.33.059-.66.118-.954-.117.329-.043.661-.12.954.117zm9.348 39.629c-.182-.082-.215-.219-.146-.395.2.075.47.123.146.395zm-13.03-32.244c.05.158.057.304-.094.416-.268-.207-.18-.332.094-.416zm4.552 17.447c-.107-.027-.21-.053-.316-.078.018-.137.012-.338.19-.322.26.025.158.238.125.4zm-.33-33.676c-.059.089-.12.176-.18.264-.13-.06-.189-.165-.102-.283.082-.11.199-.127.283.019zm8.616 47.154c-.163-.123-.19-.26-.059-.423.278.103.306.244.059.423z"/><path fill-rule="evenodd" clip-rule="evenodd" fill="#E3E3E2" d="M46.296 20.688c.278-.044.553-.062.794.127-.286.085-.564.128-.794-.127zm-.543-4.998l-.588-.018c.203-.186.4-.19.588.019zm2.235 5.193c.22-.048.427-.031.61.117-.225.07-.437.079-.61-.117zm1.155 1.217a.609.609 0 0 1-.588-.126c.22-.074.426-.078.588.127zm-9.789 5.076c-.195.102-.392.121-.589.008.193-.217.39-.207.589-.008zm7.907-20.142A.374.374 0 0 1 46.86 7c.147-.157.282-.148.401.034zm2.044 14.053c.16-.05.304-.029.421.104-.165.063-.313.061-.421-.104zm-7.401 6.701c.043.152-.005.277-.118.382-.043-.152-.034-.289.118-.382zm-2.442 5.855c-.091-.15-.097-.295.027-.43.078.149.092.293-.027.43zM43.3 19.521l.072-.08c-.003.016-.005.038-.017.045-.018.013-.042.017-.064.026l.01.009zm6.591 2.685c-.093.085-.156.047-.206-.047.086-.062.157-.055.206.047z"/><path fill-rule="evenodd" clip-rule="evenodd" fill="#E3E3E2" d="M43.29 19.512l-.083.082c.005-.017.007-.042.02-.05.021-.013.05-.016.073-.023l-.01-.009zm-1.937 49.881c-.006.072-.01.147-.015.217-.143-.082-.137-.152.015-.217zm4.967-50.738l-.206-.025c.083-.105.152-.098.206.025zm-4.924 12.521l-.169.041c.04-.09.096-.1.169-.04zm6.615-9.258l-.277-.06c.113-.074.203-.042.277.06zM38.06 32.131c.017.053.04.106.046.159.002.013-.044.035-.07.052-.013-.05-.032-.101-.035-.154 0-.018.039-.037.06-.057zm1.435.793c-.098-.09-.093-.177.013-.257l-.013.257z"/><path fill-rule="evenodd" clip-rule="evenodd" fill="#FFF" d="M46.329 27.747c.176-.455-.265-.684-.378-1.034l.532.05c.171.193.379.148.588.091 3.155.502 6.202 1.332 9.032 2.867.347.186.828.725 1.146-.023.26-.612.296-1.203-.503-1.541-1.99-.838-3.964-1.713-5.947-2.573l.22-.974c.953-.078 1.763.377 2.584.74 1.06.465 2.087 1.01 3.14 1.49.35.159.795.668 1.107.032.266-.545.344-1.148-.361-1.54a34.53 34.53 0 0 0-5.298-2.397c-.26-.092-.517-.197-.775-.295-.029-.246.021-.542-.102-.725-.395-.588.31-.15.306-.352 2.178.511 4.145 1.522 6.085 2.598.288.16.638.254.786-.159.206-.584.288-1.185-.406-1.546-1.051-.547-2.101-1.105-3.173-1.612-.728-.343-1.493-.604-2.24-.9.083-.369-.233-.913.45-1.019 1.456.132 2.598 1.03 3.867 1.613.311.143.584.373.901.504.378.156.75.768 1.193.164.424-.58.209-1.258-.487-1.656-1.52-.872-3.083-1.663-4.72-2.301-.407-.158-.805-.33-1.21-.497-.088-.279.359-.638-.145-.877-.082-.038.167-.069.227-.152 2.137.286 3.851 1.55 5.717 2.465.366.18.75.758 1.198.202.46-.573.22-1.282-.506-1.712-1.824-1.087-3.735-2-5.696-2.804-.008-.438-.16-.965.577-.952 1.863.492 3.446 1.565 5.115 2.46.338.182.753.752 1.085.157.293-.527.402-1.207-.337-1.615-.853-.47-1.665-1.044-2.565-1.391-1.086-.419-2.037-1.087-3.115-1.498.282-.27-.082-.943.602-.963 1.748.544 3.258 1.561 4.85 2.415.347.186.77.854 1.15.222.353-.581.3-1.234-.452-1.671-1.595-.924-3.195-1.828-4.912-2.506-.23-.092-.455-.203-.68-.305.356-.272.571-.572.604-1.077.04-.547.28-1.085.457-1.617.09-.266-.007-.675.467-.696.445-.018.924-.075 1.176.388.241.446.65.676 1.047.907.784.457 1.401 1.024 1.67 1.929.274.928.835 1.698 1.43 2.445.665.83.472 1.773.272 2.684-.793 3.593-1.188 7.26-2.074 10.834-.556 2.25-1.13 4.498-1.593 6.768-.255 1.246-.307 2.535-.437 3.808-.145 1.42-.655 2.75-1.36 3.936-1.063 1.793-4.084 1.664-5.155-.12-.197-.328-.067-.664.072-.986.4-.943 1.071-1.687 1.767-2.408a2.21 2.21 0 0 0 .598-1.125c.094-.441-.027-.83-.403-.918-.36-.084-.714.164-.786.625-.21 1.316-1.413 2.195-1.549 3.56-.035.356-.35.23-.588.092-.62-.359-.47-1.136-.887-1.601-.442-.492-.606-.918-.298-1.656.28-.674.151-1.547.086-2.323-.05-.601-1.082-.978-1.48-.502-.42.504-1.007.233-1.436.565-.306.238-.339-.166-.386-.326-.169-.567-.295-1.147-.436-1.721.12.014.24.03.36.043.16.219.374.187.592.13 3.118.423 6.08 1.352 8.906 2.735.381.19.872.725 1.257-.025.353-.69.118-1.162-.665-1.557-2.15-1.086-4.385-1.943-6.675-2.678-.384-.728-1.019-.28-1.548-.332-.497-.011-.99-.05-1.455-.261zm-.011 47.707c1.45-1.108 2.583-2.512 3.712-3.92.295-.367.178-.844.184-1.278.01-1.029.007-2.062.012-3.095.315-.51.326-1.02 0-1.532v-1.293c.318-.578.356-1.154-.029-1.72-.08-.926-.144-1.85-.037-2.776.18.012.405-.033.447.225.38 2.232.75 4.469 1.125 6.703.169 1.02.366 2.033.509 3.055.146 1.052.175 2.107-.087 3.156-.075.299-.193.605-.437.686-1.286.421-1.299 1.564-1.427 2.572-.07.562-.295.816-.751 1.039-.777.375-1.512.808-2.371 1.02-.618.152-.87.11-.837-.592.036-.748-.005-1.502-.013-2.25zm1.116-22.6c.419.414.994.154 1.484.334.418.154.711.379.668.756-.04.361-.467.207-.716.201-1.31-.031-2.619 0-3.935.309.019-.485.238-.655.483-.653.573.01.943-.09.924-.802-.01-.473.457-.28.728-.344.12.068.243.133.364.199zm2.63 3.4c-.988-.568-2.129-.214-3.156-.537-.022-1.25-.022-1.25 1.27-1.027.12.023.245.023.367.035 1.476.1 1.476.1 1.519 1.53zm-4.878-21.339c-.38-.672-.217-1.41-.136-2.092.047-.39-.048-.703-.1-1.05.518.003.55.483.505.737-.143.8.04 1.63-.27 2.405zm-1.773 18.652l.123.152c-.049.026-.108.078-.141.065-.06-.024-.1-.086-.149-.133.048-.024.094-.049.167-.084zm2.608-21.187c-.011-.044-.02-.067-.019-.088 0-.006.028-.012.043-.018-.005.027-.013.057-.024.105z"/><path fill-rule="evenodd" clip-rule="evenodd" fill="#E3E3E2" d="M60.085 82.711c.032.061.091.122.091.178.004 2.299.005 4.594.001 6.89 0 .061-.058.118-.092.179a97.436 97.436 0 0 1 0-7.247zm-13.325.614c.215 1.199.24 2.402-.006 3.605-.102-1.203-.125-2.406.006-3.605zm.004 4.896c.22 1.074.23 2.15-.008 3.227a14.26 14.26 0 0 1 .008-3.227zm-.008-7.156c.232.45.228.896.004 1.346a2.42 2.42 0 0 1-.004-1.346zm3.441-18.449c.385.566.347 1.142.029 1.72-.18-.57-.214-1.144-.029-1.72zm.03 3.014c.325.511.314 1.02-.001 1.53-.185-.511-.207-1.02 0-1.53zm-2.443-37.622c.529.051 1.164-.396 1.548.332-.536-.02-1.057-.097-1.548-.332zm-1.275 1.858c-.218.056-.432.088-.592-.131.217-.047.42-.024.592.13zm.562-3.012c-.21.057-.417.102-.588-.092.206-.039.41-.054.588.092z"/><path fill-rule="evenodd" clip-rule="evenodd" fill="#FFF" d="M45.368 24.607c.144-.258.273-.18.395.02l-.395-.02zm1.344-14.742c.033-.105-.008-.277.168-.266.164.01.134.172.16.284l-.328-.018zm-.7-.042c-.02-.088-.225-.178-.05-.253.207-.089.295.083.332.267l-.282-.014z"/><path fill-rule="evenodd" clip-rule="evenodd" fill="#E3E3E2" d="M53.122 18.925c-.683.106-.367.65-.45 1.018-.693-.297-1.497-.293-2.12-.781-.596-.2-.07-.53-.091-.797l.553.012c.052.116.11.168.18.011.667.091 1.38.014 1.928.537z"/><path fill-rule="evenodd" clip-rule="evenodd" fill="#FFF" d="M50.46 18.365c.023.267-.504.596.092.797l-.216.064-.29-.067c-.77.01-1.508-.161-2.235-.385.148-.233.228-.484.189-.764l.8-.03c.564.083 1.17-.008 1.66.385z"/><path fill-rule="evenodd" clip-rule="evenodd" fill="#E3E3E2" d="M50.045 19.16l.291.066c-.12.075-.219.064-.29-.067zM48.8 17.98l-.8.03.003.003a.195.195 0 0 1-.024-.145c.284-.047.566-.063.82.112z"/><path fill-rule="evenodd" clip-rule="evenodd" fill="#FFF" d="M47.98 17.868a.195.195 0 0 0 .023.145c-.056-.051-.11-.102-.167-.152a.189.189 0 0 1 .143.007zm-.41-2.065c.09-.107.172-.125.233.024l-.232-.024zm3.624 2.585c-.07.157-.128.105-.18-.011a.199.199 0 0 1 .18.011z"/><path fill-rule="evenodd" clip-rule="evenodd" fill="#E3E3E2" d="M47.434 2.583c-.228-.432.15-.566.38-.774.132.385-.106.589-.38.774zm-3.011.746c-.147-.378.13-.47.386-.578-.032.258.03.578-.386.578zm.561-.743c-.025-.181-.006-.338.202-.4l-.202.4z"/><path fill-rule="evenodd" clip-rule="evenodd" fill="#E3E3E2" d="M45.167 2.206c.003-.135.074-.203.208-.207 0 .138-.07.207-.208.207zm-.377.566c.004-.135.053-.226.208-.206-.033.104-.066.208-.207.206z"/><path fill-rule="evenodd" clip-rule="evenodd" fill="#E3E3E2" d="M45.355 2.018c.001-.137.078-.199.208-.208.022.16-.072.204-.208.208z"/></svg>