<svg xmlns="http://www.w3.org/2000/svg" width="100" height="50" viewBox="69.5 64.4724121 100 50"><path fill="#EFEFEF" d="M70 77.122v24.7h99v-24.7H70zm51.97 1.52h3.31v2.21h-3.31v-2.21zm-8.25 0h3.31v2.21h-3.31v-2.21zm-8.25 0h3.31v2.21h-3.31v-2.21zm-16.5 0h3.31v2.21h-3.31v-2.21zm-8.25 0h3.31v2.21h-3.31v-2.21zm-8.25 0h3.31v2.21h-3.31v-2.21zm3.31 21.67h-3.31v-2.21h3.31v2.21zm8.25 0h-3.31v-2.21h3.31v2.21zm8.25 0h-3.31v-2.21h3.31v2.21zm8.25 0h-3.31v-2.21h3.31v2.21zm0-3.5H72.47v-14.68h28.06v14.68zm0-15.96h-3.31v-2.21h3.31v2.21zm8.25 19.46h-3.31v-2.21h3.31v2.21zm8.25 0h-3.31v-2.21h3.31v2.21zm8.25 0h-3.31v-2.21h3.31v2.21zm8.25 0h-3.31v-2.21h3.31v2.21zm0-3.5h-28.06v-14.68h28.06v14.68zm0-15.96h-3.31v-2.21h3.31v2.21zm21.44-2.21h3.31v2.21h-3.31v-2.21zm-8.25 0h3.31v2.21h-3.31v-2.21zm-8.25 0h3.31v2.21h-3.31v-2.21zm3.31 21.67h-3.31v-2.21h3.31v2.21zm8.25 0h-3.31v-2.21h3.31v2.21zm8.25 0h-3.31v-2.21h3.31v2.21zm8.25 0h-3.31v-2.21h3.31v2.21zm0-3.5h-28.06v-14.68h28.06v14.68zm0-15.96h-3.31v-2.21h3.31v2.21z"/></svg>