<svg xmlns="http://www.w3.org/2000/svg" width="50" height="50" viewBox="0 0 50.0004883 50.0004883"><path fill="#FFF" d="M23.74 35.515c-.01 0-.01.01-.01.01s-.01-.01 0-.01h.01z"/><path fill="#FFF" d="M46.58 9.615c-.35.52-.81 1.15-1.3 1.88-.24.38-.5.78-.77 1.2-.25.37-.52.76-.79 1.18-.13.2-.26.41-.4.62-.13.21-.33.44-.5.66-.35.47-.71.94-1.08 1.43-.36.41-.73.83-1.11 1.25-.42.44-.73.89-1.24 1.37-.47.48-.93.98-1.39 1.48l-.18.19-.03.03s-.01 0-.01.01h-.01l-.08.07-.3.27c-.19.2-.42.38-.65.56-.93.73-2.02 1.46-3.19 2.19l-1.81 1.16c-.3.19-.59.39-.88.59l-.87.59c-.57.38-1.11.77-1.67 1.17-.57.39-1.13.78-1.67 1.19-1.08.79-2.27 1.74-3.18 2.58-.43.44-.84.87-1.25 1.28-.22.24-.44.48-.65.7-.19.26-.37.5-.56.75-.33.49-.73.94-.93 1.38-.22.44-.43.86-.62 1.26l-.15.29c-.03.07-.01.04-.1.19l-.06.14c-.08.19-.15.38-.21.56-.13.38-.25.72-.35 1.03-.15.5-.25.92-.28 1.24-.03.04-.05.09-.08.12-.1.15-.21.26-.31.39l-.35.38c-.23.25-.45.49-.62.72-.11.09-.15.23-.17.36-.03.12-.06.21-.06.31-.01.18 0 .27 0 .27s.07-.07.17-.2c.09-.13.32-.22.46-.44.15-.2.36-.43.59-.68.11-.12.23-.26.35-.39.12-.14.26-.3.36-.44.05-.09.09-.13.16-.25l.13-.24c.04-.07.07-.14.11-.21.12-.14.26-.3.4-.46l.71-.74c.13-.14.27-.28.41-.43l.09-.09c.01 0 .07-.07.09-.08l.24-.22 1.02-.96c.36-.36.75-.56 1.13-.87.19-.14.38-.28.57-.43l.02-.01h.01l.02-.02v.01l.04-.03.18-.11.37-.23c.49-.31.99-.63 1.51-.96.52-.34 1.02-.57 1.54-.86.53-.27 1.01-.57 1.62-.88.59-.31 1.17-.63 1.76-.96.61-.33 1.23-.69 1.84-1.06l.91-.54.9-.55 1.79-1.1c1.23-.79 2.51-1.64 3.7-2.74.59-.52 1.19-1.19 1.67-1.81.41-.54.82-1.08 1.21-1.63.39-.51.78-1.16 1.14-1.74.18-.3.35-.59.53-.88l.26-.43.17-.3.09-.21c.49-1.15 1-2.1 1.32-3.31.16-.56.31-1.09.45-1.61.11-.47.22-.92.31-1.34.19-.85.33-1.61.43-2.25.21-1.27.27-1.99.27-1.99s-.48.59-1.19 1.63zm.48.19c-.46 1.15-1.1 2.8-1.99 4.75-.38 1.01-1.04 1.96-1.63 3.02-.32.53-.72 1.02-1.09 1.55-.38.51-.74 1.07-1.18 1.56-.86 1.01-1.69 2.13-2.77 3.05-1.06.92-2.25 1.72-3.45 2.48-2.4 1.51-4.81 3.02-7.07 4.43-1.12.71-2.18 1.43-3.17 2.14-.93.8-1.89 1.44-2.58 2.25-.36.39-.75.71-1.04 1.11-.29.39-.57.75-.83 1.1-.17.22-.32.43-.46.64.01-.05.01-.07.01-.07s-.05.04-.12.11c.15-.24.31-.49.5-.74.25-.34.52-.72.81-1.11.27-.4.67-.74 1.03-1.14.7-.82 1.66-1.47 2.58-2.27.98-.73 2.05-1.46 3.17-2.18 2.25-1.43 4.64-2.95 7.04-4.48 1.2-.75 2.38-1.53 3.44-2.44 1.06-.89 1.89-1.99 2.76-3 .45-.49.81-1.04 1.19-1.55.37-.52.78-1 1.09-1.52.6-1.06 1.27-2.01 1.65-3 .88-1.93 1.59-3.57 2.07-4.71.25-.63.45-1.11.59-1.41-.11.31-.31.79-.55 1.43zM8.55 35.675c-.5 0-4.88.04-4.88 1.25l.05.16h-.01l1.24 5.78c0 .4 1.6.71 3.57.71 1.97 0 3.56-.31 3.56-.71l1.22-5.67c.03-.03.05-.07.07-.1l.05-.21c0-1.19-4.67-1.21-4.87-1.21zm0 .5c2.71 0 4.26.46 4.37.66l-.01.05c-.2.26-1.76.68-4.36.68-2.63 0-4.19-.43-4.38-.68.14-.26 1.69-.71 4.38-.71z"/></svg>