<svg xmlns="http://www.w3.org/2000/svg" width="50" height="50" viewBox="0 0 50.0004883 50.0004883"><g fill-rule="evenodd" clip-rule="evenodd"><path fill="#FFF" d="M14.204 24.76l.047-.111c.102-.128.25-.236.193-.435.42-.561.916-1.029 1.572-1.306.089-.04.207-.03.246-.152.255-.16.542-.24.828-.322.252.047.534.094.743-.038.235-.148.453-.09.675-.07.248.023.256.036.32-.223.005-.027.025-.044.043-.063-.15.06-.183.037-.166-.12.257-.102.523-.18.794-.236.086.029.025.099.038.149.066.003.114-.032.161-.066.063-.045.14-.078.204-.05.432.182.856-.029 1.284-.023.224.003.272.02.312.259-.192.21-.264.438-.116.704.014.025.007.05-.003.074-.013.03-.03.054-.065.061-.24-.042-.476.198-.448.455.006.052.033.1-.013.148-.034.035-.126.032-.1.098.029.072.115.045.178.049.278.02.475.132.577.417.079.22.175.458.496.431.092-.007.187.053.283.076.172.043.327-.04.49-.064.3-.046.609-.103.92-.033.238.054.243.041.212-.199-.013-.095-.001-.19.082-.249.09-.063.16.004.227.058.073.06.138.057.214.001.249-.185.51-.252.801-.087.065.037.152.035.229.05.052.011.108.02.12.084.013.063-.035.094-.082.12-.017.01-.036.017-.052.027-.075.048-.2.082-.165.187.03.09.14.021.214.018a5.813 5.813 0 0 0 1.408-.215c.165-.048.348-.006.523-.059.201-.061.319-.227.479-.336.037-.025.05-.08.025-.126-.025-.049-.073-.057-.119-.05-.084.012-.167.036-.251.051-.123.023-.185-.019-.177-.157.018-.366.104-.493.444-.617.096-.035.167-.104.245-.163.071-.054.204-.082.197-.173-.007-.096-.144-.05-.217-.087-.117-.062-.154-.144-.075-.254a.585.585 0 0 1 .17-.161c.245-.139.39-.39.622-.542a.095.095 0 0 0 .036-.063c.006-.065-.277-.36-.347-.368-.01-.02-.08-.017-.113-.006-.11.037-.19.127-.295.171-.075.031-.1.082-.103.154-.117.099-.256.16-.39.231-.047.026-.1.043-.147.005-.051-.04-.03-.096-.015-.147.05-.17.16-.303.298-.406.19-.143.376-.295.584-.404.22-.115.47-.061.67.056.321.19.656.276 1.023.263a.758.758 0 0 0 .333-.115c.075-.04.147-.095.228-.115.24-.06.49-.065.693-.262.108-.105.3-.085.45-.002.106.059.196.048.292-.022a.669.669 0 0 1 .48-.138.752.752 0 0 0 .434-.108c.131-.07.269-.1.417-.05.14.048.284.019.4-.05.165-.096.343-.162.483-.313.161-.172.373-.292.636-.169.103.049.204-.017.304-.049.19-.06.372-.176.584-.056.064.037.126 0 .163-.068.11-.205.316-.26.516-.32.054-.016.147-.025.088.078-.093.162.02.16.123.174.038.005.08.004.117.01.045.005.1.003.108.063.008.045-.029.073-.06.096-.148.109-.314.189-.478.273-.096.05-.266.109-.224.205.05.114.176-.022.27-.047.063-.017.129-.054.187-.012.15.107.31.09.474.06.042.107.083.207.187.281.108.076.096.192.018.287.032-.046.083-.096.142-.042.117.108.238.266.224.395-.022.21-.247.277-.437.352.155-.018.304-.043.37.15.02.055.08.023.118-.007.047-.036.088-.078.15-.09.16-.032.25.058.19.208-.046.118-.048.216.046.305.085.08.053.184.061.28.009.096.038.137.134.07.07-.05.154-.07.236-.093.241-.065.381.055.355.285.021-.066-.02-.182.094-.213.107-.03.19.029.254.113.07.089.173.113.274.146.22.072.239.157.097.296.029-.016.062-.068.1-.115.06-.074.148-.103.23-.14.188-.087.284-.034.28.166-.002.15.049.143.164.105.148-.048.305.008.457.012.118.002.132.151.027.231-.045.035-.123.048-.112.12.01.084.097.076.157.092.33.087.33.086.275.424-.007.039-.017.077.004.114a3.173 3.173 0 0 1-1.027 1.945.28.28 0 0 1-.236.072c-.084-.01-.142-.045-.097-.144.025-.055.062-.114-.021-.147-.07-.027-.145-.007-.173.057-.146.323-.473.464-.692.711-.14.158-.29.328-.231.573.02.092-.024.147-.089.2-.347.285-.346.286-.494.65-.032-.112-.077-.194-.2-.185.112-.22.299-.348.44-.527-.178-.004-.307.099-.45.178-.67.374-1.363.677-2.14.74a.815.815 0 0 1-.098 0c-.011-.002-.02-.017-.04-.034.263-.175.513-.34.843-.381.238-.03.464-.162.664-.302.269-.187.542-.37.845-.494.18-.072.345-.179.545-.215.158-.028.152-.21.183-.342a.05.05 0 0 0-.04-.06c-.054-.012-.09.024-.113.062-.165.288-.444.293-.724.302-.038 0-.088.013-.109-.027-.028-.056.029-.08.059-.111.113-.117.267-.167.402-.246.033-.019.08-.04.06-.088-.02-.044-.068-.031-.105-.02-.234.07-.382.271-.587.387-.47.265-.928.571-1.552.551.134-.168.25-.298.42-.376.095-.044.19-.09.282-.141.481-.268.907-.612 1.339-.95a.683.683 0 0 1 .459-.148c.061.002.128 0 .15-.068.025-.081-.05-.095-.1-.12-.08-.04-.131-.097-.097-.189.033-.092.085-.159.181-.052.051.057.097.123.213.108-.088-.137-.1-.26-.029-.398.05-.097.004-.163-.11-.114-.19.08-.386.185-.479.362-.117.226-.297.325-.516.387a.767.767 0 0 0-.315.189c-.267.245-.618.376-.892.613-.354.305-.815.39-1.217.596-.134.069-.277-.023-.386-.095-.085-.056.013-.115.066-.14.168-.076.312-.196.471-.28.422-.225.744-.58 1.152-.82.074-.044.141-.096.227-.115.059-.013.13-.03.096-.112-.032-.076-.097-.07-.166-.037-.273.13-.547.257-.82.383a.658.658 0 0 1-.286.074c-.141 0-.249-.054-.249-.214 0-.185-.117-.193-.24-.157-.15.043-.31.09-.437.176a9.042 9.042 0 0 1-1.743.91c-.243.097-.487.197-.758.19-.055-.002-.11.037-.166.057-.042.015-.097.04-.124-.01-.029-.058.036-.075.072-.098.557-.344 1.08-.745 1.682-1.013.03-.013.059-.033.05-.098a3.263 3.263 0 0 0-.815.257c-.384.169-.754.366-1.134.544-.186.086-.395.084-.59.144-.527.157-1.075.141-1.62.132a.343.343 0 0 1-.259-.13c.024-.018.04-.041.052-.04.404.039.772-.162 1.17-.171.317-.008.599-.208.925-.186.025.002.06-.026.08-.05.38-.433.652-.922.752-1.495.016-.098.06-.256-.038-.287-.096-.032-.118.131-.159.211-.13.258-.308.466-.548.632-.215.148-.376.367-.606.501-.238.14-.48.275-.767.277-.061 0-.156.03-.173-.048-.016-.071.08-.091.132-.127.215-.149.453-.265.652-.437.078-.068.17-.062.26-.074.109-.015.197-.04.213-.183.018-.164.172-.238.279-.342.05-.05.17-.084.102-.174-.051-.066-.127.013-.188.048-.47.267-.964.483-1.462.689a36.71 36.71 0 0 1-1.638.62c-.152.055-.32.073-.483.09-.112.013-.233-.009-.281-.134-.044-.113.02-.2.105-.275.148-.13.308-.2.504-.112.042.02.099.047.13.011.142-.163.372-.187.522-.343.145-.15.318-.272.476-.409.043-.036.115-.07.076-.14-.03-.052-.099-.031-.145-.012-.599.24-1.245.336-1.841.58-.297.123-.608.166-.92.217-.206.035-.415.058-.623.09-.037.005-.087.016-.105.042-.157.232-.403.267-.648.305-.085.014-.17.025-.242.073a.74.74 0 0 1-.394.115c-.314.008-.63.154-.934.058-.276-.088-.457.051-.678.143-.273.113-.53.3-.854.255a.152.152 0 0 0-.109.04c-.17.168-.368.128-.551.054-.193-.078-.34-.066-.47.106-.05.067-.1.092-.212.05-.157-.058-.302.082-.387.194a.608.608 0 0 1-.49.248c-.42.018-.83.137-1.253.094-.025-.002-.057-.002-.076.01-.347.23-.755.12-1.128.208-.21.05-.366-.083-.507-.212-.101-.091-.041-.167.061-.207.109-.04.222-.069.33-.119-.207.012-.41-.045-.618-.011-.344.054-.679-.04-1.016-.085-.09-.013-.145-.074-.128-.167.025-.141-.065-.144-.154-.126-.128.025-.254.064-.38.101a.815.815 0 0 1-.665-.068c-.135-.077-.295-.107-.444-.16-.043-.015-.095-.028-.099-.084-.004-.057.05-.072.089-.093.184-.102.368-.203.574-.26.074-.02.154-.035.213-.125-.163-.068-.295.026-.435.053-.093.018-.204.112-.277.03-.084-.095.03-.194.069-.284.063-.145.154-.275.268-.387.038.003.057.027.061.06.002.018-.004.024-.002.016.005-.052-.003-.106.017-.157z"/><path fill="#FFF" d="M23.394 20.893c.057-.13-.052-.132-.129-.176.239.01.443-.1.657-.17.132.047.239.04.272-.126.733-.686 1.582-1.214 2.406-1.778.868-.594 1.72-1.21 2.59-1.8a207.3 207.3 0 0 1 2.954-1.966c.216-.141.389-.31.519-.528.135-.228.28-.446.515-.587a.236.236 0 0 0 .11-.135c.119-.46.437-.805.687-1.187a58.99 58.99 0 0 1 1.315-1.92c.397-.558.85-1.069 1.417-1.466a.815.815 0 0 0 .398.008c.226-.044.298.035.258.27.112-.014.12-.105.14-.186.03-.126.095-.197.235-.18a.525.525 0 0 0 .284-.064c.244-.11.407-.063.537.173.036.067.072.04.108.037.092-.007.182-.033.275-.027.086.006.154.046.17.136.013.082-.059.109-.115.14-.063.036-.136.04-.2.078.143-.026.253.067.275.226.016.122-.056.138-.154.148-.17.017-.19.052-.084.187.124.155-.028.232-.096.369.133-.058.209-.145.31-.185.21-.084.331-.017.362.204.011.091.003.19.08.263.028.028.011.06-.028.072-.202.078-.24.182-.137.354a.52.52 0 0 1 .046.108c.017.053.095.098.048.156-.048.062-.106.003-.157-.022-.096-.046-.124-.01-.096.084a.337.337 0 0 1 0 .194c-.015.055.014.086.068.099.195.046.385.14.593.057.05-.02.106-.02.15.018.022.02.045.053.045.08 0 .058-.05.069-.096.081-.054.014-.132-.009-.153.062-.017.055.045.072.084.092.078.038.142.016.187-.054.081-.123.207-.18.334-.234.069-.028.124-.029.167.046a.73.73 0 0 0 .26.291c.035.02.048.06.017.08-.198.129-.022.19.044.271.076.096.17.16.288.197.11.035.163.227.101.328-.029.048-.074.059-.118.039-.116-.051-.192.012-.285.071-.22.141-.452.266-.682.395-.1.055-.187.022-.271-.046-.053-.042-.113-.072-.182-.028-.028.02-.049.048-.04.084.018.081.086.09.153.094.119.006.097.081.079.154-.047.187-.196.227-.359.254-.089.014-.253-.01-.119.173.047.063-.017.106-.066.14-.055.038-.11.073-.162.113-.042.033-.09.082-.05.133.043.058.085-.037.112-.027.384.135.544-.307.866-.33.073-.005.161-.092.214-.005.047.076.023.178-.042.256-.053.064-.135.128-.05.22.082.086.186.09.293.055.074-.024.12-.105.244-.11-.117.275-.51.336-.467.666.494-.19.783-.636 1.135-1.015.043.147-.05.226-.115.314-.044.06-.101.12-.031.19.075.073.128.004.183-.044.051-.045.106-.133.178-.08.067.05.019.14-.011.2a.979.979 0 0 0-.093.613c-.104.086-.243.095-.352.183a.558.558 0 0 0-.221.335c-.01.046-.006.095-.032.134-.053.086-.12.172-.236.13-.123-.043-.132-.143-.092-.256a.77.77 0 0 1 .059-.143c-.023.232-.273.211-.421.315-.076.054-.138-.042-.19-.1a.105.105 0 0 1-.021-.034c-.049-.152-.133-.262-.3-.31-.087-.025-.19-.074-.179-.204.011-.123.115-.132.199-.17.013-.005.027-.021.043-.034-.115.075-.205.124-.35.015-.133-.099-.313-.127-.395-.3-.023-.046-.08-.032-.126-.03a.67.67 0 0 1-.598-.269c-.081-.105-.18-.21-.326-.242-.085-.017-.12-.092-.162-.16-.112-.178-.305-.166-.404.02-.012.023-.02.048-.029.073-.13.334-.117.408.145.641.084.075.153.16.227.243.067.074.107.147.081.248-.033.127.041.228.084.337.041.1.078.21-.05.274-.128.064-.216.001-.268-.117-.088-.2-.26-.344-.36-.537-.05-.094-.242-.139-.336-.095a.093.093 0 0 0-.055.095c.005.074.044.136.116.137.13.003.215.086.317.141.141.075.158.18.112.314-.015.044-.032.087-.036.133-.02.177.087.28.262.243a.463.463 0 0 0 .308-.229c.043-.071.087-.164.19-.138.097.024.088.12.096.198.01.127.059.24.132.345.122.171.209.362.317.54.086.145.187.28.352.33.145.044.21.138.256.271.04.12.044.258.153.382.076-.185.002-.327-.045-.47-.04-.127-.089-.25-.012-.38.043-.07.091-.134.184-.122.102.012.15.084.155.176.023.368.147.705.287 1.04a.294.294 0 0 1-.246.415c-.094.01-.135.046-.169.131-.071.176-.137.198-.32.13-.125-.045-.249-.086-.418-.042.17.12.314.235.484.314.178.084.244.314.133.442-.025.006-.054.008-.077.019-.312.145-.311.145-.545-.125-.142-.164-.363-.195-.531-.324-.582-.448-1.265-.589-1.982-.587-.23 0-.437.131-.653.204-.206.069-.416.124-.624.185-.084.024-.19.046-.224-.052-.033-.1.083-.114.15-.145.128-.06.28-.058.424-.165a.514.514 0 0 0-.386.002 4.66 4.66 0 0 1-.894.238c-.506.092-.986.274-1.478.417-.724.21-1.462.333-2.211.134-.227-.06-.427-.202-.67-.216-.047-.002-.09-.05-.13-.082a.34.34 0 0 0-.45.006c-.099.094-.165.196-.02.31.036.028.083.06.065.112-.02.055-.08.035-.122.039-.107.008-.202.022-.283.111-.101.11-.229.055-.351.029-.081-.017-.222-.096-.127.119.052.121-.12.073-.173.126a1.964 1.964 0 0 0-.908.144c-.056.022-.124.086-.194.016l-.081-.042c-.068.016.08-.08-.04-.065-.279.039-.523.173-.785.255-.329.104-.66.212-1.005.21-.26 0-.521-.018-.78-.044-.041-.005-.077-.028-.116.002-.18.013-.362-.011-.539.044-.112.036-.22.074-.28.188-.034.033-.067.033-.098-.003z"/><path fill="#FFF" d="M39.512 19.833c-.054-.145-.067-.278-.271-.36a1.208 1.208 0 0 1-.464-.37.35.35 0 0 1-.05-.147c-.009-.05-.014-.11.043-.14.054-.028.077.035.115.049.178.064.357.125.538.174.073.02.103-.046.103-.113a.443.443 0 0 1 .05-.209c.03-.055.067-.084.125-.034.064.056.132.1.204.019a.212.212 0 0 0 .031-.257c-.113-.211-.168-.442-.226-.671-.027-.108-.032-.22-.05-.331-.005-.04-.017-.082-.064-.089-.058-.01-.08.037-.096.08-.03.08 0 .155.024.23.043.131.079.264.12.396.046.155-.078.246-.148.347-.046.065-.092-.018-.107-.06a8.055 8.055 0 0 1-.148-.45c-.036-.12-.09-.203-.221-.25-.287-.105-.408-.382-.554-.616-.066-.106-.107-.236-.18-.344a.894.894 0 0 1-.142-.423c-.104.171-.258.27-.41.374-.056.038-.116.096-.17.025-.073-.102-.312-.011-.27-.241.018-.096.011-.197.032-.293.038-.184-.102-.357-.29-.319-.17.034-.213-.05-.236-.18-.01-.059-.007-.119-.012-.177-.015-.16-.011-.2.204-.174.261.031.382.11.494.34.062.13.175.254.253.39.024.044.056.104.119.074s.04-.096.015-.138c-.082-.137-.141-.269-.1-.442.02-.089-.332-.43-.432-.43-.14 0-.158-.085-.135-.181a5.59 5.59 0 0 1 .158-.57c.045-.133.154-.245.29-.225.133.02.343-.013.347.228.001.037.028.069.062.067.225-.016.287.185.395.309.18.207.325.257.578.142.123-.055.181.004.185.116.007.186.096.247.27.206.04-.01.093-.017.104.026.072.293.14.042.203-.003.053-.036.088-.116.162-.087.08.03.117.115.131.188.02.1-.09.09-.147.124-.023.013-.05.017-.074.026-.06.022-.149.011-.159.093-.011.09.082.108.14.146.072.05.135.031.18-.048.02-.034.047-.075.092-.05.056.03.029.08.002.116-.074.097-.032.185.012.277.044.088.078.081.179.05a.542.542 0 0 0 .38-.346c.026-.067.082-.162.178-.1.077.049.025.13-.005.194-.043.088-.12.158-.137.26-.007.051-.028.114.045.13.056.013.09-.036.09-.082 0-.334.278-.467.474-.658.12-.115.168-.007.228.069.116.32.088.65.066.976-.013.201.037.39.063.585.01.081.05.159.148.156.11-.004.113-.095.113-.174 0-.112-.011-.223-.018-.334-.006-.098-.019-.197-.016-.295.003-.078.02-.186.11-.185.11.002.076.118.079.19.024.456.002.915.07 1.369a.41.41 0 0 1-.048.246c-.083.167-.066.326.073.464.029.027.116.059-.007.098-.084.027-.045.13-.032.194.075.348.02.707.09 1.055.017.087.002.18.002.27-.07-.006-.036-.073-.09-.093l-.164.595c-.02 0-.038.002-.056.003-.044-.31-.02-.636-.208-.947-.032-.017-.028.124-.096.082-.056-.036-.068-.101-.07-.157-.01-.266-.208-.434-.31-.69-.073.133-.024.22-.002.303.096.358.189.727.1 1.087-.059.235-.127.441-.012.672.023.047.008.118 0 .176-.012.081-.01.196-.12.197-.1.002-.127-.109-.138-.19-.015-.129-.009-.261-.014-.392-.001-.047-.011-.097-.06-.116-.055-.022-.088.022-.108.062-.061.117-.164.14-.282.14-.051 0-.11-.011-.15.03-.164.175-.265.03-.339-.084a.737.737 0 0 0-.203-.234c-.26-.17-.277-.483-.428-.716zM4.76 28.903a43.296 43.296 0 0 1 1.606-.397c1.308-.295 2.637-.476 3.948-.758.31-.067.617-.146.927-.212.288-.062.586-.034.879.017.116.02.234.034.35.047.117.015.202-.043.27-.13.09-.115.064-.198-.077-.23a.995.995 0 0 0-.545.022c-.06.02-.116.062-.234.02.226-.14.42-.261.65-.3.226-.036.453.072.688-.024-.103-.019-.208-.037-.31-.061-.099-.024-.096-.074-.026-.136.155-.136.277-.132.4.029.095.122.193.068.275.005.162-.124.304-.087.447.025.113.088.187.178.041.3-.044.038-.07.088-.027.137.14.163.051.326-.039.447a.383.383 0 0 1-.46.133c-.073-.026-.152-.038-.226-.065-.144-.052-.26-.054-.305.128-.025.102-.11.097-.188.103-.101.008-.208-.018-.303.028.001.055.036.062.064.076.04.021.095.031.093.089s-.057.064-.1.082c-.036.014-.076.022-.11.042-.117.064-.12.145.002.195.127.052.263.093.398.107.176.016.343.084.526.073.106-.006.2.071.194.181-.005.106-.121.079-.193.087-.151.019-.282-.094-.443-.064-.213.04-.411.144-.632.147-.031 0-.063.005-.125.011.038-.031.05-.045.064-.052.078-.036.22-.005.212-.129-.01-.116-.142-.167-.241-.166-.26.004-.528-.025-.772.09a.998.998 0 0 1-.631.092c-.14-.026-.274-.034-.375.1-.05.066-.13.054-.202.046-.447-.058-.891-.088-1.32.095-.024.011-.057.019-.078.01-.274-.135-.475.008-.673.172-.037.03-.116.033-.075.107.033.059.093.075.154.041.068-.036.12-.105.21-.094.047.005.094.016.114.064.022.054-.015.089-.055.112-.111.068-.215.162-.362.115a.184.184 0 0 0-.152.016c-.035.02-.084.043-.11.014-.266-.299-.623-.133-.935-.176-.17-.024-.356-.073-.544-.022.046.124.179.111.25.232-.546.038-1.055-.108-1.623-.167.146.149.298.15.422.208.05.024.134.028.12.105-.011.07-.092.064-.148.065-.17.001-.342 0-.512-.007-.099-.003-.178-.021-.109.13.055.12-.08.25-.234.212-.176-.043-.353-.025-.528-.048-.111-.014-.2.034-.303.083-.186.086-.404.094-.448.359-.006.03-.101.055-.158.067-.112.023-.251.092-.326-.033-.07-.115.08-.172.135-.255.078-.118.245-.233.185-.363-.036-.08-.241-.041-.37-.03-.224.018-.456-.022-.673.075.006.016.007.024.01.029.055.066.215.031.199.122-.017.1-.162.088-.252.112-.154.042-.314.025-.472.022-.04-.001-.085-.007-.097-.051-.013-.045.023-.076.056-.095.227-.127.407-.333.668-.4a.277.277 0 0 0 .145-.096c.033-.04.07-.094.115-.104.477-.115.878-.427 1.363-.522.11.031.217-.01.327-.006.155.007.295.023.424.12a.376.376 0 0 0 .239.077c-.058.008-.144-.027-.23-.066-.045-.02-.078-.05-.075-.102.002-.062.045-.092.101-.102a.805.805 0 0 1 .332.01c.143.036.29.053.388.054-.11-.01-.27-.012-.421-.068-.071-.027-.158-.048-.145-.156zm15.744 2.471c-.816.52-1.715.87-2.575 1.288.01.064.047.069.077.058.46-.172.921-.345 1.38-.52.047-.017.101-.083.137-.029.045.07-.04.098-.087.123-.358.196-.759.304-1.11.505-.777.442-1.65.607-2.47.92-.807.306-1.645.51-2.46.785-.072.025-.146.065-.27.005.32-.224.696-.254 1-.447-.322.098-.641.206-.966.293-.425.112-.826.306-1.26.39-.054.011-.128.07-.157.002-.031-.072.06-.09.109-.113.398-.187.81-.342 1.22-.499.066-.025.14-.031.226-.127-.72.143-1.359.418-2.023.612.034-.141.142-.181.239-.22.843-.333 1.658-.736 2.499-1.075a16.75 16.75 0 0 0 1.394-.635l-.014-.046c-.131.038-.263.073-.393.114-.137.043-.277.083-.41.139-.49.205-.974.44-1.498.544-.357.07-.703.15-1.025.324-.072.04-.18.08-.227-.021-.05-.108.062-.147.136-.178.21-.09.417-.192.628-.282.753-.325 1.5-.664 2.246-1.003a7.21 7.21 0 0 1 .439-.177c.082-.03.194-.082.127-.197-.06-.103-.15-.036-.22.014-.444.322-.967.471-1.47.659-.362.135-.736.24-1.105.358-.048.015-.109.057-.137-.014-.023-.058.037-.094.08-.12.282-.18.566-.358.851-.533.151-.093.313-.17.458-.272.3-.212.665-.185.997-.279.152-.043.299-.093.436-.176.191-.115.395-.178.622-.119.09.024.148.051.088.16-.072.133.018.177.123.164.331-.04.665.067.996-.043.2-.066.411.017.621-.002.167-.015.327-.027.473-.109.189-.106.388-.157.604-.138.149.011.285-.046.425-.08.048-.011.11-.05.133.026.018.058-.032.098-.081.118-.056.02-.116.025-.172.045-.08.028-.217.026-.181.152.028.099.145.067.226.04.218-.073.434-.154.65-.23.215-.074.427-.16.671-.154zM5.603 34.487l.942-.809-.036-.047c-.112.007-.197.088-.26.165-.193.232-.45.346-.72.456-.844.344-1.676.715-2.483 1.141-.132.07-.275.116-.46.192.109-.19.313-.176.42-.35l-.822.204-.014-.018c.086-.044.17-.09.258-.131 1.263-.592 2.583-1.061 3.818-1.716.34-.182.723-.274 1.065-.457.13-.07.217-.189.344-.261.086-.049.17-.097.266-.122.104-.026.197-.043.237-.189.03-.108.176-.166.297-.206.005.02.015.035.033.043-.02-.007-.029-.021-.038-.038.449-.325.9-.647 1.404-.886.418-.199.842-.388 1.265-.58.082-.039.167-.069.252-.103.03-.04.093-.03.092-.007-.008.105.09.218-.018.315a.683.683 0 0 0-.213.155c-.03.034-.044.064.015.082.018.04.011.072-.035.09-.321.124-.629.28-.95.404-.09-.07-.142-.01-.2.052-.068.072-.139.136-.253.137-.126.002-.162.142-.257.197.177-.145.413-.205.568-.384.035-.041.067-.053.11-.016.061.036.116.001.165-.022.835-.402 1.692-.758 2.545-1.12.163.025.11.115.027.155-.51.24-.928.633-1.445.86-.364.313-.807.493-1.22.721-.017.01-.039.007-.058.009-.28.021-.52.153-.77.258-.513.215-.998.493-1.525.672-.235.082-.492.097-.703.244-.017.011-.047.007-.054.022-.15.273-.468.233-.69.374-.105.066-.198.14-.29.222-.08.264-.284.36-.532.429-.117.032-.218.136-.349.153-.062.008-.15.021-.12-.098l.073-.045c.115-.029.219-.085.319-.147zm40.27-24.409c.945.324 1.783.813 2.431 1.59.096.115.15.245.177.388-.019.08-.09.097-.148.088-.212-.034-.43-.059-.594-.23-.104-.106-.276-.108-.378-.232-.059-.07-.11.035-.167.05-.092-.014-.187.018-.278-.009-.046-.005-.12-.018-.117-.053.018-.216-.17-.266-.284-.375-.025-.023-.025-.06-.049-.085.106.33.033.466-.224.413-.22-.258-.528-.256-.825-.293a6.87 6.87 0 0 0-1.04-.04c-.563.014-1.123-.064-1.684-.044-.263-.046-.31-.136-.183-.352.044-.047.088-.034.146-.021.118.026.241.035.34-.062a.303.303 0 0 1 .275-.009c.098.04.204.053.31.048.274-.015.546.035.82.018.05-.045.108-.032.167-.03a.332.332 0 0 0 .299-.153c.052-.082.083-.18.202-.19.03-.004.045-.018.03-.054-.026-.06-.043-.114.026-.168.108-.085.22-.194.352-.184.136.012.264-.02.396-.011zm-4.788 13.693c-.007-.025-.014-.05-.023-.075-.033-.102.096-.24-.04-.306-.093-.045-.215-.044-.323-.039-.163.008-.201-.13-.27-.222-.044-.057.03-.102.087-.126.048-.02.1-.033.148-.052.03-.013.066-.032.045-.072-.008-.016-.045-.03-.067-.026-.154.034-.332-.037-.464.107a.127.127 0 0 1-.164.023c-.068-.043-.06-.109-.046-.176.014-.067.082-.143.011-.201-.077-.064-.143.023-.213.05-.134.053-.212.176-.325.252-.062.042-.149.11-.204.018-.045-.074.035-.127.097-.168.051-.033.146-.04.125-.127-.017-.074-.102-.072-.164-.087-.109-.026-.22-.043-.273-.165-.023-.051-.07-.082-.13-.057-.056.023-.048.071-.04.118.02.122-.034.193-.153.204-.068.006-.133-.02-.155-.096-.02-.068.015-.112.078-.14.039-.017.101-.02.084-.086-.014-.047-.061-.073-.105-.084-.154-.035-.284.022-.396.122-.05.043-.09.1-.16.107-.11.01-.192-.002-.137-.149.06-.16.085-.312-.075-.444-.086-.073-.061-.18-.016-.275.018-.039.062-.084.004-.119-.048-.028-.088.01-.121.041-.046.047-.085.104-.137.141-.117.085-.208.044-.202-.101.006-.143-.042-.162-.16-.117a.167.167 0 0 1-.116.002c-.073-.034-.192-.037-.196-.135-.003-.095.111-.094.182-.122.049-.019.101-.027.151-.042.098-.029.216-.075.215-.174 0-.093-.071-.192-.13-.275-.044-.06-.092.006-.134.031-.054.033-.122.104-.173.046-.07-.081.038-.118.08-.168.12-.14.088-.232-.098-.27-.062-.013-.143.009-.163-.077-.02-.078.047-.114.098-.156l.073-.065.112-.054c.1-.033.202-.004.303-.01.095-.007.112.068.103.149-.015.17.023.216.182.174a.524.524 0 0 1 .276.008c.046.023.102-.016.147.02.017.012.027.03.032.05-.072.157-.044.315-.021.48.042.312.167.457.482.511.064.01.112.041.144.092.11.176.267.192.446.14.18-.052.477.067.566.234.032.06.062.133.13.136.169.01.268.158.42.2.096.025.129.125.169.207.047.095.103.167.227.14.046-.01.104-.002.123.043.069.164.261.263.247.475-.005.07.036.136.086.191.01.187-.056.364-.079.546zm-1.623-13.048c-.1-.061-.153-.128-.14-.267.02-.182-.11-.251-.27-.158-.111.066-.21.156-.313.237-.04.032-.072.09-.132.049-.048-.034-.044-.094-.035-.146a.409.409 0 0 1 .119-.243c.087-.076.065-.123-.01-.185-.06-.047-.147-.095-.108-.189.035-.085.13-.098.213-.124.054-.017.143.049.162-.053.005-.03-.026-.075-.053-.1-.057-.05-.107-.008-.16.023-.04.026-.093.082-.133.018-.034-.053.024-.095.064-.128.05-.043.104-.08.156-.12.049-.04.123-.045.167-.123a.64.64 0 0 0-.423.042c-.036.015-.067.043-.104.055-.058.02-.123.026-.16-.033-.04-.061.013-.097.057-.126.146-.097.056-.14-.041-.18-.084-.034-.165-.02-.246.02-.07.034-.145.08-.219.083-.163.007-.309.005-.198.236.007.014-.013.06-.029.065-.159.057-.315.134-.493.09-.04-.008-.071-.035-.072-.081 0-.047.036-.065.071-.085.047-.026.143-.028.112-.105-.032-.078-.121-.042-.174-.016-.167.078-.291.06-.363-.125.296-.184.529-.468.876-.576.196.079.332-.06.474-.146a.735.735 0 0 1 .48-.118c.046.005.102.018.135-.008.189-.148.403-.065.605-.07.226-.007.308.127.225.342-.028.073-.036.152-.083.22-.03.043-.115.075-.062.143.039.051.11.037.167.028.085-.015.169-.004.254-.017.085-.014.143.043.15.12.008.09-.068.097-.14.1a.363.363 0 0 0-.232.095c.11-.1.251-.097.384-.113.088-.01.13.069.15.137.023.076-.042.121-.104.142-.18.06-.305.189-.428.322.06.1.158.098.257.107a.917.917 0 0 1 .682.373c.046.06.104.134.07.214-.041.1-.124-.01-.19.02a.122.122 0 0 1-.157-.046c.01-.059-.014-.11-.063-.133a2 2 0 0 0-.443-.155c-.038-.008-.084-.005-.1.039-.017.045.016.074.05.097a.468.468 0 0 0 .337.07c.072-.009.166-.048.182.08-.141.181-.326.065-.492.067-.063 0-.136-.048-.18.021-.04.063.011.126.041.182.228.431.7.412.989-.038.033.28-.329.535-.64.46a.673.673 0 0 1-.439-.29zM27.393 43.715c.129-.135.068-.28.015-.42-.137-.358-.312-.702-.417-1.072-.001-.112.061-.04.101-.036.197.017.309-.12.224-.299-.043-.088.07-.204-.062-.262-.038-.101-.097-.194-.102-.305-.056-.201-.098-.404-.238-.575-.057-.069-.027-.183-.046-.275-.01-.047.02-.077.063-.082.094-.012.12.06.146.13l.246.344c-.019.123.046.209.125.289-.042.227.151.345.25.499.119.185.198.407.404.528.02.013.032.037.036.066.031.19.104.424.172.495.138.143.161.35.304.495a.687.687 0 0 0 .537.226c.163.002.304-.104.466-.061a.652.652 0 0 1 .433.232c.05.054.103.099.157.013.141-.226.388-.246.607-.303.098-.025.201-.032.3-.064.178-.058.271 0 .286.181.014.171.164.26.21.408-.036.158-.16.222-.294.199-.486-.086-.982.026-1.465-.076-.026-.005-.059.004-.078-.009-.291-.206-.553.024-.827.056-.066.024-.116.04-.188-.018-.117-.096-.22-.071-.282.062-.07.147-.25.115-.333.23l.002-.002c-.193.137-.406.2-.64.144-.044-.011-.07.005-.103.007-.164-.052-.166-.083-.083-.208a.354.354 0 0 1 .296-.177c.063-.004.207.028.176-.105-.022-.086-.02-.266-.22-.187-.06.023-.16.06-.178-.068z"/><path fill="#FFF" d="M43.011 10.865c-.129.173-.286.097-.44.052-.126.08-.237.188-.385.228-.08.022-.085.082-.098.14-.015.064.076.03.078.077.027.155.166.138.261.146.17.017.276.11.408.198.173.113.38.186.565.291.063.036.135-.034.183-.092a.208.208 0 0 1 .245-.075.41.41 0 0 0 .305-.038c.286-.139.595-.127.89-.099.352.035.694-.015 1.04-.026.145-.005.285-.021.425.028.138.049.272-.006.406-.032a.607.607 0 0 1 .275-.029c.09-.013.152.034.23.074.25.128.46.34.752.388.05.008.111.005.08.087-.106.088-.215.022-.313-.009-.196-.06-.4-.032-.597-.07.009-.056.244-.094.016-.17.037.013.092.014.087.07-.007.08-.105.032-.133.087a.997.997 0 0 0-.783.043c-.029.014-.074.033-.093.02-.164-.107-.318-.019-.465.026-.177.054-.337-.021-.503-.037-.438-.044-.841.116-1.26.177-.273.04-.55.032-.82.065-.443.055-.853-.085-1.28-.115-.096-.007-.156-.06-.204-.134-.143-.213-.362-.284-.6-.306-.1-.009-.144-.05-.148-.143-.003-.092.026-.157.138-.136.055.01.118.009.14-.044.133-.316.478-.367.71-.555.144-.116.368-.228.6-.139.095.037.176-.038.262-.063.044.03.033.073.026.115zM32.048 45.182c.513.03.625-.208.713-.73.06-.36-.053-.7-.082-1.048-.06-.198-.046-.223.147-.244a.133.133 0 0 0 .083-.044c.02-.165-.087-.293-.13-.44-.025-.087-.067-.168.048-.213.112-.045.137.062.167.124.039.084.061.171.176.171.18.332.36.665.538.997-.036.21.12.327.225.47.03.038.072.067.098.11.036.351.025.722.418.91.024.011.055.024.061.047.037.173.168.141.29.135a.1.1 0 0 1 .055.015l.041.04c.1.02.178.086.259.138.114.07.14.164.02.26a5.275 5.275 0 0 1-.98-.397c-.14-.074-.288-.064-.44-.065-.238-.003-.437.093-.64.19-.127-.04-.25-.077-.348-.18-.074-.078-.184-.05-.278-.022-.162.048-.292-.027-.42-.108-.049-.03-.05-.07-.02-.116zm13.825-35.104a.502.502 0 0 1-.3.082c-.1 0-.197.022-.279.082-.076.057-.155.12.012.163.046.012.095.028.085.088-.009.045-.055.056-.094.059-.156.009-.255.085-.345.217-.119.171-.312.205-.513.174-.1-.092-.233-.062-.352-.09-.096-.024-.174-.053-.196-.16-.009-.046-.009-.097.03-.129.038-.032.09-.031.133-.002a.463.463 0 0 0 .279.073c-.09.006-.176-.038-.269-.056-.192-.037-.395-.052-.549.1-.089.09-.176.109-.281.06-.094-.042-.083-.139-.075-.213.01-.105.103-.151.197-.164.186-.027.373-.003.56-.003-.196-.001-.398-.045-.583.01-.118.037-.218.09-.34.034-.118-.055-.167-.233-.086-.319.009-.008.023-.012.034-.02a.186.186 0 0 1-.027.016c-.063.026-.105.061-.053.132.042.058.075.123-.003.168-.09.051-.23.072-.268-.02-.109-.267-.338-.46-.44-.729a.348.348 0 0 1-.01-.267.347.347 0 0 0-.188.203c-.096.215-.153.222-.323.045-.018-.02-.046-.025-.068-.04-.066-.035-.116-.04-.188.02-.1.081-.221.158-.368.104-.01-.06.037-.09.059-.133.075-.155.311-.182.308-.402-.002-.045.079-.057.128-.07.133.132.257.157.381-.017.032-.045.102-.058.15-.093.12-.089.226-.096.374-.02.18.096.355.202.534.298.43.181.913.098 1.343.273.011.114.101.142.188.154.059.008.118.02.177.026.067.007.118.03.114.11-.003.072-.052.102-.114.112-.117.02-.234.009-.38.006.185.061.312.196.505.17a.75.75 0 0 0 .395-.152c.043-.036.077-.094.148-.082.04.016.09.004.118.046.084.053.17.097.274.086a.32.32 0 0 1 .166.07zm-4.709 13.147c-.136-.045-.22-.118-.224-.281-.005-.126-.2-.144-.188-.341-.154.222-.231.173-.282-.01-.018-.068-.058-.132-.09-.196-.016-.029-.043-.082-.052-.079-.204.051-.262-.18-.422-.214-.13-.027-.259-.057-.264-.236-.003-.066-.339-.186-.411-.145-.157.089-.32-.049-.478.016a.177.177 0 0 1-.036-.063c-.038-.124-.061-.27-.24-.125-.008.008-.031.011-.036.006-.1-.11-.182-.253-.304-.326-.16-.095-.23-.175-.118-.35.043-.067.028-.154-.005-.229-.042-.094-.014-.164.067-.22.044 0 .067.03.085.066.012.062-.01.15.084.162.088.01.098-.064.122-.13.055-.152.1-.156.244-.04a.143.143 0 0 0 .037.073c.034.116.077.219.188.296.12.085.207.098.307-.015.025-.027.061-.068.108-.048.221.095.474.066.69.178.29.158.512.394.724.64.03.033.067.063.062.115-.042.042-.122.075-.081.15.043.08.127.062.202.047.281.39.363.828.31 1.3zm-17.77-2.332c.033 0 .065.002.098.003.133-.007.26.019.387.054.183.05.263.151.304.353.042.205.015.449.23.613.115.089.043.22-.075.288-.369.215-.75.4-1.164.515-.15.027-.313-.035-.457.06a.093.093 0 0 1-.094 0c-.172-.115-.371-.036-.555-.08-.111-.026-.211.053-.302.12-.08.057-.163.08-.255.022-.029-.065-.032-.128.024-.18.419-.391.774-.849 1.256-1.173a2.41 2.41 0 0 1 .482-.244c-.09-.035-.156-.074-.144-.166.01-.079.096-.106.117-.177l.148-.008z"/><path fill="#FFF" d="M32.994 43.172c-.016.076-.077.074-.134.075-.107 0-.162.056-.18.157-.104-.173-.242-.22-.422-.117-.111-.052-.09-.13-.029-.2.035-.039.071-.075.098-.12.101-.07.024-.142-.006-.205a37.33 37.33 0 0 0-.433-.861c-.09-.178-.17-.355-.12-.563.023-.088-.013-.154-.112-.123-.11.035-.158-.027-.204-.101-.269-.436-.55-.864-.79-1.316-.048-.091-.081-.18-.012-.275.04-.056.022-.11-.01-.164-.03-.048-.049-.104.006-.14.063-.045.111.003.153.045.125.124.148.302.23.448.036.065.063.128.128.165.188.112.259.303.283.495.02.153.088.221.21.271.056.022.112.038.166.063.162.072.283.066.317-.168.003.246.127.438.197.648-.07.18-.081.185-.177.114.09.094.176.27.294.421.046.059.071.137.136.186.032.024.058.053.061.095.02.42.175.797.35 1.17zm6.564-33.517c-.042-.223.157-.277.275-.387.034-.034.105-.012.14-.083a.277.277 0 0 0-.32.018c-.053.04-.105.086-.175.068-.063-.015-.17.036-.182-.061-.008-.078.082-.108.155-.125.124-.027.249-.048.413-.142-.233.003-.404.055-.577.033-.072-.009-.156 0-.177-.09-.018-.075.044-.118.095-.16.087-.07.228-.117.091-.268-.023-.027.022-.054.054-.066.042-.017.096-.03.065-.094-.022-.046-.072-.064-.118-.055-.186.035-.39-.08-.567.068-.055.045-.14.033-.209.003-.175-.074-.312-.017-.45.1-.116.098-.24.216-.42.131-.027-.013-.046-.045-.068-.067.41-.225.85-.384 1.301-.47A4.33 4.33 0 0 1 40.295 8c.148.02.302 0 .443.067.046.117.054.246.132.354.053.076.013.143-.07.164-.152.039-.287.136-.449.132-.118-.003-.16.132-.29.148.209.16.37.351.523.547.046.058.15.13.1.192-.067.08-.14.184-.266.19-.025.002-.05 0-.075.007l-.089-.069c.012-.117-.039-.104-.108-.05-.193-.062-.388-.113-.588-.027zM21.393 21.91c-.02-.117-.101-.118-.194-.11-.355.03-.712.05-1.052.173-.064.023-.12-.003-.154-.057-.08-.12-.162-.108-.26-.022-.07.06-.171.059-.247.118-.082.064-.155.002-.199-.064-.053-.079.025-.113.076-.152.047-.036.09-.075.136-.112.585-.194 1.126-.492 1.695-.723.244-.098.51-.119.767-.162a.23.23 0 0 1 .115.016c.077.032.19.057.178.155-.013.116-.126.045-.194.06-.018.003-.033.013-.06.026.095.113.222.107.342.121.052.082-.004.119-.066.15a2.89 2.89 0 0 0-.737.571c-.042.043-.09.114-.146.012z"/><path fill="#FFF" d="M21.393 21.91a2.96 2.96 0 0 1 .949-.733.18.18 0 0 0 .031-.01c.241-.12.503-.183.757-.267h.116c.04.065.216.106.025.199.013.011.017.017.022.02.08.04.231-.023.243.07.013.112-.14.112-.224.148-.34.146-.634.34-.902.607-.284.285-.561.58-.86.849-.127.124-.178.013-.237-.075-.178-.282-.155-.516.08-.808zm18.95-12.109c.27-.22.263-.214-.007-.465-.09-.084-.137-.209-.236-.297-.092-.081-.147-.203-.29-.193.008-.093.062-.093.104-.09.114.011.214.017.21-.146-.001-.053.048-.09.097-.062.148.082.273.068.39-.054.038-.039.104.02.162-.036-.102-.118-.2-.248-.035-.391.19.067.383.129.554.236.003.088.082.09.135.118.161.088.165.137.02.25-.036.028-.074.053-.105.088-.126.144-.119.173.057.22.11.028.137.094.085.2-.093.057-.024.11.007.163.023.042.042.119-.007.111-.227-.037-.28.244-.479.243-.108-.036-.157.085-.243.094-.071.008-.188-.125-.17.094.004.05-.173-.012-.249-.083zm1.218-.228c.155.055.272.066.339-.143.05-.155.236-.196.37-.272.035-.02.097-.02.121.033.02.042-.016.073-.04.103-.156.195-.156.195.065.253-.164.155-.15.256.063.318.106.031.09.09.093.16.005.1.015.2.105.264.033.024.078.03.112.003.047-.039.01-.063-.022-.09-.084-.07-.008-.108.04-.128a.594.594 0 0 1 .422-.044c-.035.07-.095.04-.14.047-.074.01-.16.013-.167.104-.006.087.08.11.147.137.075.03.153.021.233.016.293-.018.588-.044.874.087-.2-.011-.401-.02-.601-.035-.095-.008-.186-.005-.26.06-.046.039-.082.088-.059.155a.077.077 0 0 0 .077.05c.065 0 .094-.045.104-.1.018-.093.08-.11.16-.103.138.012.278.01.411.04.157.034.3.117.463.008.047-.033.128.01.173.065a.075.075 0 0 1 .007.091c-.04.062-.103.056-.16.04-.16-.042-.324.04-.485-.036.04.112.14.113.221.135.092.025.18.047.212.152-.357.001-.716.004-1.074.004a.362.362 0 0 1-.198-.073c-.047-.032-.101-.072-.156-.009l-.026-.115c.048-.027.094-.06.079-.122-.015-.061-.07-.051-.113-.04-.317.084-.449-.159-.61-.345a1.576 1.576 0 0 1-.162-.244c-.079-.14-.157-.214-.342-.13-.106.049-.252-.002-.25-.182.001-.038-.016-.076-.026-.114zm-9.513 35.609c.198.178.425.082.64.064.103-.01.168.006.195.108.034.127.197.13.232.254-.31.15-.67.17-.971.338a.746.746 0 0 1-.523.094c-.059-.027-.11-.066-.174-.085-.095-.032-.14-.102-.14-.21 0-.277-.076-.327-.344-.238-.067.024-.137.058-.197.001-.064-.06-.009-.119.023-.174.304-.235.656-.215 1.008-.185.084.008.167.022.251.033zm-4.655-1.467c.201-.014.395-.132.617-.056-.199.184-.199.19.009.326.033.021.076.033.072.08-.005.059-.053.072-.1.078-.143.019-.29.019-.427.055-.103.026-.27.042-.175.233.028.024.03.046-.002.068-.024.013-.048.028-.071.042-.204-.061-.251-.13-.2-.298.013-.023-.03 0-.003 0 .01.002.009.007.003.02-.037.08-.116.108-.182.152-.134.086-.276.16-.41.248-.012-.003-.024-.003-.036-.004-.115-.06-.243.013-.36-.033-.055-.01-.133.001-.142-.073-.016-.129.135-.096.181-.168.11-.135.025-.213-.085-.279a.885.885 0 0 0-.293-.1c-.096-.02-.164-.06-.095-.173.136-.073.283-.048.421-.03a2.9 2.9 0 0 0 1.278-.088zM5.21 34.68a.303.303 0 0 0 .36-.07c.009-.008.018-.022.03-.023.292-.034.47-.215.6-.462.03.021.074.02.088.064.048.073-.028.14-.012.212-.308.219-.668.333-1.012.474-.333.137-.673.258-.992.427-.19.1-.403.108-.598.193-.237.101-.454.236-.672.369-.22.133-.474.187-.682.351-.058-.278-.02-.363.199-.48.653-.346 1.369-.532 2.05-.81.211-.087.428-.164.642-.246zm30.86 10.53c-.026.08-.068.171.008.238.069.06.159.035.243.008.284-.093.554-.237.87-.204a.939.939 0 0 1 .664.337c-.187-.203-.413-.106-.627-.103-.16.003-.24.087-.241.246 0 .053-.002.105 0 .157.005.161-.082.215-.21.139-.143-.09-.263-.08-.402-.003a.337.337 0 0 1-.21.04c-.317-.066-.656-.022-.957-.177.173-.162.35-.32.615-.294.04.015.063.059.11.062a.097.097 0 0 0 .032 0c-.004-.038-.044-.03-.066-.048a.135.135 0 0 1-.056-.022c-.148-.103-.08-.233-.016-.335.048-.078.142-.15.244-.04zM10.218 32.304l1.304-.63c-.254.298-.575.511-.911.705-.35.204-.698.413-1.05.614-.181.103-.362.216-.558.289-.364.135-.695.338-1.049.493a1.178 1.178 0 0 1-.533.115c-.072-.1.027-.122.077-.145.28-.138.553-.29.836-.423.188-.088.38-.172.49-.363.417-.202.843-.386 1.268-.57.05-.02.096-.039.126-.085zm19.383 11.224c-.134.002-.305-.056-.27.228-.088-.194-.215-.168-.35-.178s-.297-.017-.371-.192c-.034-.079-.116-.14-.182-.204-.08-.078-.219-.122-.141-.278-.192-.102-.091-.428-.364-.473-.046-.007-.109-.05-.101-.106.01-.076.083-.035.13-.042.05-.006.136-.042.064-.08-.241-.125-.23-.42-.418-.577-.042-.034-.07-.084-.12-.12-.16-.115-.163-.199-.03-.347.008-.023.012-.023.015.002.331.616.798 1.134 1.222 1.683.089.116.197.205.317.284-.023.109.036.116.12.101a.527.527 0 0 1 .518.258.063.063 0 0 1-.039.04z"/><path fill="#FFF" d="M35.875 45.733l-.08-.075c-.094-.057-.175-.026-.264.022-.113.06-.215.044-.26-.092-.042-.126-.11-.113-.208-.066-.077.039-.162.135-.251.012-.187-.065-.276-.265-.44-.336-.184-.08-.24-.174-.227-.365.012-.174-.145-.308-.169-.48-.121-.066-.2-.18-.289-.28-.092-.102-.085-.218.021-.318.23.357.472.702.789.989.126.012.21.058.189.21-.004.03.023.073.05.102.346.02.672-.061.987-.195.142-.022.324.065.355.179.016.06-.006.11-.086.112-.118 0-.144.097-.187.18-.07.134-.017.187.115.198.047.032.106.056.082.132-.018.064-.054.101-.127.07zm5.609-36.555c-.082-.138-.127-.091-.158.065-.078-.115-.167-.183-.257-.253-.094-.074-.098-.156.03-.202.049-.018.09-.047.134-.07.223-.114.154-.26.06-.415.189.09.375.187.569.268.398.17.749.41 1.078.688a6.876 6.876 0 0 1-.566-.21c-.23-.096-.37.03-.466.161-.23.312-.278.215-.424-.032zM18.705 21.92c.134.143.269-.04.402-.006.028.07-.028.082-.062.107-.025.019-.077.05-.075.054.146.282-.249.279-.26.49-.005.072-.1.039-.149-.024-.11-.14-.426-.184-.574-.087-.26.17-.545.097-.823.082-.052-.003-.074-.05-.074-.102a9.494 9.494 0 0 1 1.615-.514zm5.605-1.256c.138-.146.331-.11.48-.088.63.091 1.21-.081 1.78-.298.259-.098.526-.087.793-.13-.086.1-.235.073-.326.158-.504.123-.974.346-1.47.49-.3.088-.592.22-.913.215-.154-.001-.297-.023-.27-.237.006-.05-.037-.08-.073-.11zM11.445 31.083a10.867 10.867 0 0 1-.074-.308c.087-.126.219-.127.352-.124.065.066.11.07.119-.038.023-.012.045-.031.07-.034.25-.034.25-.033.39-.302-.281.075-.5.313-.833.173.262-.155.497-.3.738-.434.147-.08.287-.19.471-.175.048.004.12-.032.13.044.008.063-.06.075-.11.09-.031.01-.067.01-.094.026-.09.055-.259.076-.211.211.045.133.191.162.334.106a8.91 8.91 0 0 1 .315-.112c.065-.023.13-.061.217-.019a1.567 1.567 0 0 1-.67.4c-.284.088-.568.178-.823.341-.094-.01-.176.003-.204.113a.131.131 0 0 1-.117.042zM38.57 20.584l-.009-.076c-.067-.13-.121-.074-.178.011-.119.18-.122.18-.284.023l-.018-.11.004-.04c.001-.043.014-.077.059-.084-.144-.001-.144-.001-.207.084-.158.004-.313.004-.472.053-.11.034-.204-.114-.152-.214.104-.197.104-.197-.116-.222-.033-.004-.065-.016-.095-.024a.126.126 0 0 1 .122-.048c.368.066.746-.001 1.111.09.051.012.127.012.147.045.166.27.477.274.718.407.096.053.204.093.279.18-.15.115-.32.206-.492.268-.11.04-.389-.22-.417-.343zm-5.576 22.588c-.085-.025-.12-.094-.15-.17-.115-.266-.177-.554-.353-.793-.027-.035-.012-.076.004-.113.016-.035.046-.076.005-.106-.248-.188-.303-.5-.478-.735a.405.405 0 0 1-.055-.126c-.015-.056.004-.107.062-.128.071-.024.096.029.101.084.012.147.087.159.2.101.248.54.556 1.05.84 1.572-.247.19-.192-.124-.337-.192.042.182.08.334.178.47.034.047.114.107-.017.136zm-.667-.206c.057.058.074.117.002.175-.045.038-.078.082-.07.146l-.013.003-.007-.012c-.055.058-.103 0-.146-.018-.078-.032-.134-.014-.182.047-.043.017-.09.016-.136.023-.147.021-.192.091-.124.228.038.077.068.156.006.237l-.046.072c-.16-.045-.26-.164-.362-.284-.042-.05-.048-.09.01-.13.034-.023.066-.05.034-.094-.025-.037-.068-.038-.105-.023-.24.098-.477.198-.736.233-.05.007-.113.021-.105.092.008.064.042.136-.036.172a1.15 1.15 0 0 1-.254.079c-.04.007-.08-.037-.077-.076.023-.22-.116-.26-.287-.274-.031-.003-.062-.022-.092-.034l.007-.024c.25-.149.506-.273.809-.18a.48.48 0 0 0 .372-.013c.091-.045.196-.042.294-.064.065-.016.154.015.173-.09a2.887 2.887 0 0 1 1.07-.19zm12.988-33.09c.02.13-.105.312-.228.318-.268.013-.538.089-.79-.107a1.593 1.593 0 0 1-.265-.274c.208-.022.391.085.606-.013-.13-.026-.23-.043-.328-.066-.06-.015-.152.014-.17-.065-.021-.096.099-.085.142-.137.347.106.7.196 1.033.344zM27.077 40.518c-.037-.023-.081-.081-.115-.024-.039.065-.057.156-.002.222.149.177.186.384.192.605-.174-.322-.276-.68-.472-.993-.076-.121-.21-.24-.237-.346-.048-.19-.22-.294-.29-.496.172.032.305.107.438-.018.067-.061.116.03.137.091.118.318.233.639.349.96z"/><path fill="#FFF" d="M31.256 43.158c.106.058.068.101-.018.116-.177.03-.335.1-.495.175-.117.053-.239.103-.35-.036-.058-.07-.147-.044-.236-.014-.176.062-.354.14-.55.105-.112-.026-.229-.036-.274-.18-.026-.077-.09-.109-.16-.017-.087.111-.183.022-.238-.028-.07-.064-.022-.13.067-.15.03.05.084.024.126.038.251.044.506-.013.757.03a5.7 5.7 0 0 0 1.371-.04zm-9.943-20.44a.448.448 0 0 0 .236.075.412.412 0 0 0 .211-.097c.138-.103.282-.111.458-.104.199.008.396.055.599.037.116-.01.238.058.357.09-.506.178-1.011.356-1.563.241-.119-.024-.228-.059-.297-.168v-.074zM8.917 33.013c-.001.103-.09.12-.154.156-.444.248-.911.449-1.342.721-.382.17-.763.341-1.145.51-.184-.03-.09-.117-.041-.196.097-.18.278-.254.45-.306.373-.11.695-.324 1.05-.468.346-.14.697-.27 1.03-.435.063-.032.109-.047.152.018zm21.872 12.321c.074.186.22.091.314.054.161-.063.228.04.317.12.093.085.046.16-.012.239-.048.066-.025.128.043.164.064.035.126.07.17.129-.22-.03-.39-.103-.409-.366-.008-.122-.093-.145-.2-.092a.792.792 0 0 0-.27.255c-.097.132-.193.265-.294.394-.03.039-.063.102-.123.074-.052-.024-.019-.082-.016-.126.02-.36.203-.63.48-.845zm-5.095-1.501c.05.057.118.075.19.085a.6.6 0 0 1 .293.141c.163.138.16.19-.01.326-.052-.19-.172-.245-.39-.173-.187.064-.32.203-.435.352-.076.099-.123.064-.207.022-.104-.05-.09-.109-.052-.188.132-.266.314-.478.61-.565zM4.76 28.903c.298.112.6.204.927.195-.34.131-.689.073-1.037.053 0 .104.066.097.11.105.077.013.157.01.234.027.058.012.155.016.141.1-.011.065-.1.04-.156.037-.17-.008-.329-.075-.492-.125-.217-.066-.445-.103-.668-.153.311-.088.618-.195.94-.24zm33.81-8.319c.04.065.07.157.174.077.113-.087.144-.006.175.083.019.052.051.095.116.086.06-.008.101-.051.101-.105 0-.194.093-.158.21-.096.038.02.088.02.133.03l.468.315c-.08.008-.176-.026-.212.089-.005.016-.027.025-.042.038-.107-.121-.276-.05-.39-.13-.054-.037-.074-.098-.159-.051-.308.17-.563.017-.574-.336zM12.94 30.658c-.02.056-.072.076-.119.096-.82.368-1.642.735-2.464 1.1-.052.022-.145.104-.131-.054l.001-.002c.312-.22.699-.279 1.02-.478l1.484-.635c.067-.03.135-.054.209-.027zM40.183 10.32c-.19.016-.378.05-.562-.028-.205-.086-.273-.254-.143-.37.02-.017.049-.047.062-.043.256.095.558.065.771.277.036.036.082.08.052.136-.03.058-.093.029-.143.031l-.018-.007-.019.004zM26.525 44.663c-.01-.133.066-.187.177-.245.17-.09.398-.156.34-.449.04.13.305.13.166.355-.023.037.069.143.108.217-.23.252-.509.202-.791.122zm.593-24.315c.166-.057.335-.108.498-.172a.708.708 0 0 1 .604.012c-.012.004-.023.013-.036.014-.726.052-1.36.378-1.999.685a1.309 1.309 0 0 1-.745.133c.597-.136 1.13-.42 1.678-.672zm7.694 25.186c.129-.076.263-.145.388-.229.035-.023.03-.113.106-.071.056.031.123.073.092.153-.084.213-.007.266.197.219.069-.016.147-.013.2.052-.137-.075-.136.156-.257.117-.057.191-.221.073-.33.113l-.033-.008c.01-.16-.113-.203-.23-.245-.058-.02-.14.001-.133-.101z"/><path fill="#FFF" d="M35.92 45.53c-.064.002-.13.01-.194.004-.068-.005-.173.025-.19-.057-.02-.098.094-.054.144-.081.109-.06.137-.177.09-.406.085-.03.126.093.23.054-.043-.14-.157-.166-.277-.183.13-.084.234-.01.338.056.06-.112.13-.196.28-.188.1.005.155.014.17.13.011.088-.002.11-.09.122-.149.02-.302.049-.35.23-.245.086-.276.15-.15.319zm-4.263-1.735c-.062-.13-.121-.261-.19-.387-.06-.11-.026-.16.091-.164.099-.004.196-.001.295 0 .162-.1.26.04.378.103.074.04.096.139.182.168a.393.393 0 0 1 .11.258c-.08.003-.093-.05-.116-.085a.545.545 0 0 0-.463-.256c-.077-.004-.2-.06-.117.125.043.096-.096.168-.17.238zm5.683-23.971c-.136-.042-.243.053-.365.07-.058.008-.127.03-.152-.045-.019-.058.027-.105.073-.128.176-.085.348-.196.559-.119a.393.393 0 0 0 .193.017c.044-.006.102-.026.12.034.018.064-.037.095-.085.115a.802.802 0 0 1-.344.056zm10.891-7.641a3.93 3.93 0 0 1-1.062-.55c.102-.084.174-.07.289.016.3.225.6.48 1.023.407.038.024.037.064.04.1.003.044.021.103.001.125-.04.043-.094.004-.139-.018-.051-.025-.101-.053-.152-.08zm-20.282 9.195c-.051-.094-.019-.161.065-.215.084-.053.163-.11.246-.163.051-.033.091-.053.018-.112-.063-.05-.025-.106.023-.15.05-.044.104-.05.162-.015.059.035.08.08.055.148-.022.062-.038.126-.058.188l-.511.319zm12.904.548a.19.19 0 0 1-.206.164c-.1-.01-.16-.125-.154-.22.006-.09-.081-.213.022-.268.098-.052.136.095.217.127l.121.197zm-6.116 23.13c-.133-.064-.131-.231-.24-.312.244-.092.489-.183.81-.046-.26.068-.571-.001-.57.358zm-6.594-.745a.341.341 0 0 1 .138-.136c.104-.047.133-.1.028-.18-.025-.019-.047-.051-.024-.083s.06-.01.09-.014c.21-.035.387.063.57.139-.01.007-.023.022-.031.02-.309-.072-.505.196-.77.254zM14.444 24.214c.16.057.132.218.116.31-.026.152-.191.113-.31.125-.066-.074-.044-.136.016-.204.065-.072.119-.153.178-.23zm12.81 17.412c.09.078.183.484.14.588-.025.06-.068.047-.114.041a14.528 14.528 0 0 0-.29-.032c-.022-.042-.019-.071.033-.09.274-.101.274-.101.245-.39l-.014-.117z"/><path fill="#FFF" d="M27.387 44.499l.002-.068c.037-.049.076-.1.146-.071.214.089.41.007.61-.05-.21.229-.469.273-.758.189zm5.026-.984c-.195-.075-.337-.255-.56-.271-.016-.033-.074-.045-.053-.091.015-.033.057-.025.086-.018a.936.936 0 0 1 .353.143l.174.237zM47.29 12.091c.047-.106.003-.143-.103-.14-.045 0-.125.039-.12-.048.006-.078.082-.071.141-.057a.62.62 0 0 1 .131.043c.055.027.144.033.134.119-.009.078-.085.09-.152.096a.16.16 0 0 1-.03-.013zm-7.144-2.409c.06-.063-.075-.175.046-.21a.224.224 0 0 1 .18.031c.054.045-.012.104-.036.152-.015.032-.053.052-.082.077l-.108-.05zM11.842 30.613c.096.028.094.078.026.137-.078.069-.176.075-.289.085.017-.101.114-.117.144-.184l.119-.038zM23.13 20.9a3.039 3.039 0 0 1-.757.267 1.39 1.39 0 0 1 .757-.267zm-8.926 3.86c.066.24.045.296-.152.36l.076-.279.076-.08zm9.99-4.339c.06.086.022.16-.054.193-.077.034-.17.034-.218-.067a.486.486 0 0 0 .272-.126zm3.269 20.739l-.015-.001c-.096-.076-.282-.115-.125-.296.058.095.116.187.14.298zm2.422 2.037c-.252-.016-.507.042-.757-.03.253.005.507-.044.757.03zM16.262 22.756c.005.193-.128.159-.246.152.067-.075.157-.112.246-.152zm-4.7 8.284c-.012-.182.093-.154.204-.112l-.204.113zm-5.959 3.447a.365.365 0 0 1-.32.147.734.734 0 0 1 .32-.147zm40.104-24.479c-.118.056-.203.006-.274-.086.099.005.186.05.274.086zM26.128 44.626c.123-.021.247-.05.36.033-.121.011-.244.023-.36-.033z"/><path fill="#9D9D9C" d="M31.22 20.899c.027-.048.072-.037.105-.027.557.156 1.089-.03 1.627-.126.123-.022.243-.074.344.046.112.133.059.29.055.436 0 .07-.068.053-.096.008-.14-.226-.337-.18-.542-.129a5.85 5.85 0 0 1-1.165.192c-.18.007-.343.086-.51.146-.246.09-.493.175-.754.22-.29.05-.54-.045-.826-.133.115-.12.26-.084.37-.144.312-.169.636-.316.955-.47.051-.025.125-.077.154-.005.036.088-.063.096-.12.116-.357.13-.647.4-1.055.46.075.108.16.08.23.079.41-.005.78-.164 1.154-.308.085-.032.17-.068.254-.105.054-.023.126-.04.118-.113-.008-.065-.079-.056-.127-.07-.06-.015-.133-.006-.17-.073zm-13.34 4.136c-.341.04-.627.069-.91.109-.442.063-.883.13-1.323.2-.231.038-.413-.104-.619-.158a.064.064 0 0 1-.046-.077c.01-.037.045-.05.078-.048.085.003.17.016.254.02.74.04 1.477.039 2.207-.101a.55.55 0 0 1 .359.055z"/><path fill="#FFF" d="M16.576 23.138c.166-.084.336-.09.482-.207-.126-.013-.252-.02-.377-.038-.048-.008-.12-.015-.114-.083.005-.056.07-.054.114-.052.257.011.507-.037.76-.076.068-.01.16-.021.19.06.034.087-.06.115-.113.159-.04.033-.106.061-.114.101-.052.264-.248.228-.429.21-.134-.013-.266-.048-.4-.074zm1.661-.312c.012.16-.206.436-.347.46-.129.021-.173-.043-.144-.16.029-.114.068-.225.106-.337.027-.082.09-.116.17-.087.082.03.176.048.215.124z"/><path fill="#9D9D9C" d="M39.136 25.393c-.044-.001-.094.012-.106-.037-.005-.023.018-.06.04-.081.09-.088.208-.134.317-.19.03-.016.067-.018.09.015.024.037.014.077-.013.108a.522.522 0 0 1-.328.185zm-20.632.782c-.164.115-.317.16-.475.189-.031.005-.07.007-.086-.028-.018-.038.013-.062.043-.074.153-.062.305-.137.518-.087zm1.206-.29c.085-.045.168-.094.256-.134.042-.019.098-.017.115.041.012.045-.027.073-.064.087a.406.406 0 0 1-.306.006zm-.959-2.052c.108-.102.204-.088.3-.067-.074.072-.16.098-.3.067z"/><path fill="#020201" d="M35.15 19.78c.068-.09.14-.113.25-.122-.063.104-.132.133-.25.123z"/><path fill="#FFF" d="M18.405 22.615c-.003.036-.02.063-.057.064-.038 0-.057-.03-.05-.064.006-.02.027-.048.045-.052.037-.01.057.016.062.052z"/><path fill="#9D9D9C" d="M33.554 14.044c.065.008.121.01.144.067.02.052-.023.083-.051.118a.329.329 0 0 1-.467.057c-.039-.03-.058-.068-.01-.09.128-.058.262-.105.384-.152zm-2.578 5.195c-.061-.027-.158-.028-.163-.126-.002-.052.06-.06.106-.057.081.002.135.041.143.126.004.052-.035.062-.086.057z"/><path fill="#FFF" d="M38.778 15.28c-.047.136-.093.284-.152.427a.099.099 0 0 1-.13.056c-.048-.017-.069-.06-.067-.108.009-.197.13-.35.21-.52.006-.015.048-.028.066-.02.067.027.048.097.073.165zm1.299 3.895c-.077-.013-.131-.056-.142-.138-.008-.055.03-.09.081-.09.087-.002.132.052.142.133.006.054-.025.086-.081.095z"/><path fill="#9D9D9C" d="M13.8 27.3c.058.004.08.04.08.09-.002.065-.027.115-.102.111-.05-.002-.085-.035-.085-.086 0-.07.048-.1.107-.115zm-6.563 1.802c.077-.026.119-.008.161.048-.064.031-.106.006-.16-.048zm10.346 3.78c-.127.063-.253.127-.381.188-.03.013-.072.02-.09-.013-.026-.048.018-.073.053-.085.134-.044.27-.082.404-.122l.014.032zm-1.043.312c.081-.034.163-.069.245-.102-.052.116-.145.133-.246.102zm-7.623-.181c-.738.33-1.476.657-2.213.986-.157.07-.313.136-.47.205-.01-.026-.023-.052-.034-.079.176-.168.332-.368.614-.366.048.001.157.017.092-.123-.04-.085.09-.174.15-.16.146.032.23-.079.341-.1.99-.193 1.833-.767 2.783-1.064.012-.004.025-.006.038-.008.024.108-.074.102-.128.128-.39.196-.782.388-1.173.581z"/><path fill="#FFF" d="M10.226 31.8c-.14.216-.368.317-.576.44-.092.056-.19.116-.346.1.159-.14.278-.274.344-.445.006-.015.031-.035.044-.033.17.024.314-.044.457-.121.053-.029.064.021.078.057l-.001.002zm-.948.314c.027.002.051.006.06.038.018.067-.163.33-.234.337-.088.006-.14-.035-.137-.126.003-.069.238-.252.311-.25z"/><path fill="#9D9D9C" d="M8.45 32.344c.087.019.147-.067.25-.068-.082.136-.198.17-.326.2-.003-.075.07-.085.08-.137l-.004.005z"/><path fill="#FFF" d="M46.894 11.663c-.061.152-.292.23-.473.14a.545.545 0 0 0-.303-.04c-.376.027-.747.078-1.131.038-.282-.029-.59-.045-.863.107-.1.054-.207.083-.323.036-.077-.031-.117.016-.162.072-.129.16-.312.166-.447.005-.083-.1-.152-.143-.282-.076-.1.05-.204.027-.2-.12.006-.156-.095-.181-.212-.201-.185-.032-.368-.069-.557-.104.037-.096.129-.082.18-.129.067-.179.244-.089.363-.143.06-.028.143.002.217-.001.78.002 1.561.019 2.342.054.44.02.874.073 1.283.254.029-.013.068-.02.067-.06-.002-.083-.111-.143-.015-.256.058-.067-.109-.13-.116-.236.091-.024.116.052.17.092.174.134.305.34.568.33.093-.003.046.063.02.107-.032.053-.137.036-.126.13z"/><path fill="#FFF" d="M46.326 11.555c-.376-.011-.732-.145-1.105-.18a17.72 17.72 0 0 0-2.316-.06c-.066.002-.131-.005-.196-.008-.024-.045-.135-.036-.08-.13a.1.1 0 0 1 .087.007l2.559.07.433.014c.254.005.426.16.618.287z"/><path fill="#FFF" d="M42.716 11.184l-.093.015c-.202.09-.407.133-.624.069.09-.282.327-.323.572-.351-.11.175.018.22.145.267z"/><path fill="#9D9D9C" d="M37.937 20.392c-.023-.013-.048-.024-.068-.039-.04-.029-.112-.043-.086-.11.021-.054.08-.03.123-.022.126.025.246-.033.37-.025.072.005.17.02.18.09.013.091-.1.077-.158.106-.068.033-.141.005-.213 0h-.148z"/><path fill="#FFF" d="M27.655 43.255c-.09.01-.16.004-.185-.088-.023-.083.012-.136.08-.18.126-.084.202-.182.112-.342-.027-.047-.005-.107.047-.136.055-.03.087.019.106.057.063.124.299.118.268.274-.021.108-.162.189-.208.318-.036.098-.138.107-.22.097zm1.387.609c-.004.094-.13.152-.194.092a1.164 1.164 0 0 0-.288-.194c-.089-.042-.09-.13-.046-.203.057-.094.11-.008.16.023.099.06.218.086.294.183.028.035.053.072.074.099zm-.695-.619c.054.01.095.038.082.102-.008.04-.028.077-.077.065-.05-.015-.095-.05-.092-.109.003-.046.041-.06.087-.058zm-.914-.483c.03.001.048.017.044.047-.004.028-.025.048-.054.043-.013-.003-.032-.022-.034-.037-.005-.03.015-.047.044-.053z"/><path fill="#9D9D9C" d="M41.999 11.268l.624-.07.086.11c-.197.02-.399.004-.588.083h-.252c.015-.07.088-.082.13-.123z"/><path fill="#FFF" d="M33.976 44.353c.066.08.129.164.2.237.099.102.15.206.074.344-.043.076-.025.108.069.124.151.025.284.074.316.265.014.086.179.086.177.21-.187 0-.323-.144-.5-.174-.06-.01-.028-.082-.054-.115a8.166 8.166 0 0 0-.265-.341c-.07-.086-.154-.153-.03-.274.066-.064-.061-.185.013-.276zM38.1 20.542c.088.017.166 0 .237-.062.122-.105.264-.075.422-.057-.053.097-.143.047-.198.085-.148-.033-.121.075-.123.156-.003.07.08.175-.03.203-.103.027-.203-.036-.255-.138a.336.336 0 0 1-.054-.187zm-2.225 25.191a.22.22 0 0 0 .045-.203c.088-.005.192-.031.248.053s-.011.157-.063.224c-.147.19-.17.006-.23-.074z"/></g></svg>