<svg xmlns="http://www.w3.org/2000/svg" width="50" height="50" viewBox="0 0 50.0004883 50.0004883"><path fill="#D3D3D3" d="M18.858 15.54l1.348 1.348L8.772 28.322l-1.348-1.348z"/><path fill="#FFF" d="M12.916 21.482l1.348 1.347-5.492 5.492-1.348-1.347zm5.922-13.848l9.275 9.274L22.82 22.2l-9.275-9.274z"/><path fill-rule="evenodd" clip-rule="evenodd" fill="#FFF" d="M35.287 42.358c-.758.015-1.519.02-2.27-.077a16.962 16.962 0 0 0-1.828-.161c-.842-.016-1.682-.144-2.527-.047-.413.048-.825-.065-1.242-.045-.825.039-1.651.053-2.475.139-1.42.147-2.846.096-4.27.079-.258-.003-.531-.022-.62-.36-.03-.117-.167-.16-.289-.17-.744-.06-1.49-.114-2.235-.173-1.373-.108-2.756-.08-4.123-.276a1.746 1.746 0 0 1-.265-.056c-.106-.033-.26-.032-.268-.182-.005-.147.13-.2.247-.255.357-.173.748-.21 1.13-.25a29.433 29.433 0 0 1 2.456-.122c1.144-.022 2.288-.082 3.431-.122.092-.004.177.018.195-.115.032-.228.19-.386.33-.55.353-.41.71-.816 1.068-1.223.18-.206.425-.3.682-.364.49-.124.986-.23 1.454-.423 1.076-.444 1.372-.965 1.113-2.155-.241-1.114-.866-1.562-2.138-1.705-1.102-.124-2.214-.13-3.312-.297-1.895-.288-3.622-1.019-5.277-1.951-1.06-.598-2.004-1.35-2.909-2.155-.176-.156-.347-.321-.447-.538-.125-.268-.03-.434.258-.425 1.072.038 2.144.087 3.217.132.215.009.431.025.648.029 1.38.025 2.76.083 4.14.051.659-.015 1.317-.032 1.975-.046.121-.003.24-.003.284-.148.059-.19.205-.229.381-.236a25.11 25.11 0 0 0 1.026-.067c.261-.024.482-.107.457-.443-.012-.144.08-.214.214-.227a2.99 2.99 0 0 1 .324-.012c4.142.014 8.284.03 12.427.043 1.966.005 3.934.003 5.902.004.417 0 .427.011.426.423-.001.232 0 .448-.157.662-.104.144-.09.38-.11.577-.031.27-.166.43-.436.472-.917.145-1.834.292-2.753.432-1.857.281-3.596.854-5.087 2.045-.67.534-1.272 1.137-1.64 1.919a3.598 3.598 0 0 0-.152 2.79c.089.26.289.403.499.548.586.403 1.271.548 1.938.734.349.098.648.252.902.517.43.45.88.88 1.319 1.323.265.267.26.28.636.315.735.068 1.474.082 2.205.196.774.12 1.555.209 2.301.466a.141.141 0 0 1 .025.01c.145.081.362.113.358.323-.004.216-.215.267-.378.335-.6.252-1.239.308-1.878.354-.722.053-1.447.09-2.17.138-.32.02-.596.202-.903.265-.598.124-1.206.025-1.81.055z"/></svg>