<?xml version="1.0" encoding="utf-8"?>
<!-- Generator: Adobe Illustrator 16.0.0, SVG Export Plug-In . SVG Version: 6.00 Build 0)  -->
<!DOCTYPE svg PUBLIC "-//W3C//DTD SVG 1.1//EN" "http://www.w3.org/Graphics/SVG/1.1/DTD/svg11.dtd">
<svg version="1.1" id="Layer_1" xmlns="http://www.w3.org/2000/svg" xmlns:xlink="http://www.w3.org/1999/xlink" x="0px" y="0px"
	 width="50.0004883px" height="50px" viewBox="0 0 50.0004883 50" enable-background="new 0 0 50.0004883 50" xml:space="preserve">
<g>
	<path fill="#FFFFFF" d="M40.4848633,44.75h-30.96875V5.25h30.96875V44.75z M10.5161133,43.75h28.96875V6.25h-28.96875V43.75z"/>
	<rect x="12.3598633" y="20.75" fill="#FFFFFF" width="11.375" height="1"/>
	<rect x="12.3598633" y="23.5" fill="#FFFFFF" width="11.375" height="1"/>
	<rect x="12.3598633" y="26.125" fill="#FFFFFF" width="11.375" height="1"/>
	<rect x="12.3598633" y="29" fill="#FFFFFF" width="11.375" height="1"/>
	<rect x="12.3598633" y="31.75" fill="#FFFFFF" width="11.375" height="1"/>
	<rect x="12.3598633" y="34.5" fill="#FFFFFF" width="11.375" height="1"/>
	<rect x="12.3598633" y="37.25" fill="#FFFFFF" width="11.375" height="1"/>
	<rect x="12.3598633" y="40" fill="#FFFFFF" width="11.375" height="1"/>
	<rect x="26.4477539" y="20.75" fill="#FFFFFF" width="11.078125" height="1"/>
	<rect x="26.4477539" y="23.5" fill="#FFFFFF" width="11.078125" height="1"/>
	<rect x="26.4477539" y="26.125" fill="#FFFFFF" width="11.078125" height="1"/>
	<rect x="26.4477539" y="29" fill="#FFFFFF" width="11.078125" height="1"/>
	<rect x="26.4477539" y="31.75" fill="#FFFFFF" width="11.078125" height="1"/>
	<rect x="26.4477539" y="34.5" fill="#FFFFFF" width="11.078125" height="1"/>
	<rect x="26.4477539" y="37.25" fill="#FFFFFF" width="11.078125" height="1"/>
	<rect x="26.4477539" y="40" fill="#FFFFFF" width="11.078125" height="1"/>
	<path fill="#FFFFFF" d="M23.4067383,18.6254883h-11.140625V7.625h11.140625V18.6254883z M13.2661133,17.6254883h9.140625V8.625
		h-9.140625V17.6254883z"/>
</g>
</svg>
