<?xml version="1.0" encoding="utf-8"?>
<!-- Generator: Adobe Illustrator 16.0.0, SVG Export Plug-In . SVG Version: 6.00 Build 0)  -->
<!DOCTYPE svg PUBLIC "-//W3C//DTD SVG 1.1//EN" "http://www.w3.org/Graphics/SVG/1.1/DTD/svg11.dtd">
<svg version="1.1" id="Layer_1" xmlns="http://www.w3.org/2000/svg" xmlns:xlink="http://www.w3.org/1999/xlink" x="0px" y="0px"
	 width="50px" height="50px" viewBox="0 0 50 50" enable-background="new 0 0 50 50" xml:space="preserve">
<path fill="none" stroke="#000000" stroke-miterlimit="10" d="M-35.6401367,288.8359375v175.0195313l-0.0200195,0.2910156
	c-9.2700195,6.3789063-21.7797852,10.3105469-35.8198242,10.3105469s-26.5698242-3.8105469-35.8398438-10.1816406V289.2558594
	l0.0097656-0.2890625c9.2700195-6.3808594,21.7802734-10.3125,35.8300781-10.3125
	C-57.4389648,278.6542969-44.9101563,282.4658203-35.6401367,288.8359375z"/>
<g>
	<g id="XMLID_1_">
		<g>
			<polygon fill="#474747" points="43.1308594,9.8701172 47.25,19.0698242 47.0605469,19.0698242 47.0605469,18.9399414 
				47.0605469,18.8100586 47,18.8100586 43,9.9101563 43.1308594,9.9101563 			"/>
			<polygon fill="#474747" points="47.0605469,18.8100586 47.0605469,18.9399414 47,18.8100586 			"/>
			<polygon fill="#474747" points="47,18.8100586 47.0605469,18.9399414 47.0507813,18.9399414 46.4501953,18.9399414 
				46.4501953,18.8398438 46.4404297,18.8398438 39.5605469,18.8398438 39.5605469,18.9399414 38.9003906,18.9399414 
				38.9599609,18.8100586 39.1005859,18.8100586 46.8603516,18.8100586 			"/>
			<polygon fill="#474747" points="47.0507813,18.9399414 47.0507813,19.0698242 46.4404297,19.0698242 46.4404297,18.9399414 
				46.4501953,18.9399414 			"/>
			<polygon fill="#474747" points="43,9.9101563 47,18.8100586 46.8603516,18.8100586 43,10.2202148 39.1005859,18.8100586 
				38.9599609,18.8100586 			"/>
			<polygon fill="#FFFFFF" points="43,10.2202148 46.8603516,18.8100586 39.1005859,18.8100586 			"/>
			<rect x="46.4404297" y="18.8398438" fill="#474747" width="0.0097656" height="0.1000977"/>
			<polygon fill="#474747" points="46.4404297,19.0698242 46.4404297,42.6796875 39.8203125,42.6796875 39.8203125,42.5498047 
				46.3203125,42.5498047 46.3203125,19.0698242 			"/>
			<polygon fill="#474747" points="46.4404297,18.9399414 46.4404297,19.0698242 46.3203125,19.0698242 46.3203125,18.9599609 
				39.6904297,18.9599609 39.6904297,19.0698242 39.5605469,19.0698242 39.5605469,18.9399414 			"/>
			<rect x="39.5605469" y="18.8398438" fill="#474747" width="6.8798828" height="0.1000977"/>
			<polygon fill="#474747" points="46.3203125,19.0698242 46.3203125,42.5498047 39.8203125,42.5498047 39.8203125,42.4296875 
				46.1904297,42.4296875 46.1904297,19.0898438 39.8203125,19.0898438 39.8203125,27.5097656 39.6904297,27.5097656 
				39.6904297,19.0698242 			"/>
			<rect x="39.6904297" y="18.9599609" fill="#474747" width="6.6298828" height="0.1098633"/>
			<path fill="#FFFFFF" d="M46.1904297,19.0898438v23.3398438h-6.3701172v-6.6298828h1.7802734v-1.2802734h-1.7802734v-1.1796875
				v-1.3701172v-4.4599609v-8.4199219H46.1904297z M43.9199219,24.8300781v-2.2001953
				c0-0.5097656-0.4091797-0.9296875-0.9199219-0.9296875c-0.5097656,0-0.9199219,0.4199219-0.9199219,0.9296875v2.2001953
				H43.9199219z"/>
			<path fill="#474747" d="M45.0908203,7.8999023l-1.9599609,0.5400391v1.4301758l-0.1201172-0.2700195L43,9.6201172
				l-0.1191406,0.2700195V7.3198242L45.0908203,7.8999023z M43,8.3500977l1.6005859-0.4501953L43,7.4902344V8.3500977z"/>
			<path fill="#474747" d="M44.1005859,7.8999023l-0.9697266-0.25v0.5302734L44.1005859,7.8999023z M44.6005859,7.8999023
				L43,8.3500977V7.4902344L44.6005859,7.8999023z"/>
			<polygon fill="#FFFFFF" points="44.1005859,7.8999023 43.1308594,8.1801758 43.1308594,7.6499023 			"/>
			<path fill="#474747" d="M43.9199219,22.6298828v2.2001953h-1.8398438v-2.2001953
				c0-0.5097656,0.4101563-0.9296875,0.9199219-0.9296875C43.5107422,21.7001953,43.9199219,22.1201172,43.9199219,22.6298828z
				 M43.8007813,24.7001953v-2.0703125c0-0.4399414-0.3603516-0.7998047-0.8007813-0.7998047
				c-0.4394531,0-0.7900391,0.3598633-0.7900391,0.7998047v2.0703125H43.8007813z"/>
			<path fill="#474747" d="M43.8007813,22.6298828v2.0703125h-1.5908203v-2.0703125
				c0-0.4399414,0.3505859-0.7998047,0.7900391-0.7998047C43.4404297,21.8300781,43.8007813,22.1899414,43.8007813,22.6298828z
				 M43.6699219,24.5698242v-1.9399414c0-0.3701172-0.3095703-0.6699219-0.6699219-0.6699219
				c-0.3691406,0-0.6699219,0.2998047-0.6699219,0.6699219v1.9399414H43.6699219z"/>
			<polygon fill="#474747" points="43.1308594,9.8701172 43.1308594,9.9101563 43,9.9101563 43,9.6201172 43.0107422,9.6000977 			
				"/>
			<polygon fill="#474747" points="43,9.6201172 43,9.9101563 42.8808594,9.9101563 42.8808594,9.8901367 			"/>
			<polygon fill="#474747" points="43,9.9101563 38.9599609,18.8100586 38.9003906,18.8100586 38.9003906,18.9399414 
				38.9003906,19.0698242 38.6904297,19.0698242 42.8808594,9.8901367 42.8808594,9.9101563 			"/>
			<polygon fill="#474747" points="41.6005859,34.5195313 41.6005859,35.7998047 39.8203125,35.7998047 39.8203125,35.6699219 
				41.4599609,35.6699219 41.4599609,34.6503906 39.8203125,34.6503906 39.8203125,34.5195313 			"/>
			<polygon fill="#474747" points="41.4599609,34.6503906 41.4599609,35.6699219 39.8203125,35.6699219 39.8203125,35.5400391 
				41.3505859,35.5400391 41.3505859,34.7802734 39.8203125,34.7802734 39.8203125,34.6503906 			"/>
			<rect x="39.8203125" y="34.7802734" fill="#FFFFFF" width="1.5302734" height="0.7597656"/>
			<polygon fill="#474747" points="39.8203125,42.5498047 39.8203125,42.6796875 39.5605469,42.6796875 39.5605469,42.5498047 
				39.6904297,42.5498047 			"/>
			<polygon fill="#474747" points="39.8203125,42.4296875 39.8203125,42.5498047 39.6904297,42.5498047 39.6904297,35.7998047 
				39.8203125,35.7998047 			"/>
			<rect x="39.6904297" y="35.6699219" fill="#474747" width="0.1298828" height="0.1298828"/>
			<polygon fill="#474747" points="39.8203125,35.5400391 39.8203125,35.6699219 39.6904297,35.6699219 39.6904297,34.6503906 
				39.8203125,34.6503906 39.8203125,34.7802734 			"/>
			<rect x="39.6904297" y="34.5195313" fill="#474747" width="0.1298828" height="0.1308594"/>
			<rect x="39.6904297" y="33.3398438" fill="#474747" width="0.1298828" height="1.1796875"/>
			<polygon fill="#474747" points="39.8203125,31.9697266 39.8203125,33.3398438 39.6904297,33.3398438 39.6904297,33.2099609 
				39.6904297,32.1103516 39.6904297,31.9697266 			"/>
			<polygon fill="#474747" points="39.8203125,27.5097656 39.8203125,31.9697266 39.6904297,31.9697266 39.6904297,27.6298828 
				39.6904297,27.5097656 			"/>
			<polygon fill="#474747" points="39.6904297,35.7998047 39.6904297,42.5498047 39.5605469,42.5498047 39.5605469,42.5400391 
				39.5605469,42.4296875 39.5605469,35.7998047 			"/>
			<polygon fill="#474747" points="39.6904297,35.6699219 39.6904297,35.7998047 39.5605469,35.7998047 39.5605469,34.5195313 
				39.6904297,34.5195313 39.6904297,34.6503906 			"/>
			<rect x="39.5605469" y="33.3398438" fill="#474747" width="0.1298828" height="1.1796875"/>
			<rect x="39.5605469" y="33.2099609" fill="#474747" width="0.1298828" height="0.1298828"/>
			<polygon fill="#474747" points="39.6904297,32.1103516 39.6904297,33.2099609 39.5605469,33.2099609 39.5605469,33.0898438 
				39.5605469,32.2402344 39.5605469,32.1103516 			"/>
			<rect x="39.5605469" y="31.9697266" fill="#474747" width="0.1298828" height="0.140625"/>
			<polygon fill="#474747" points="39.6904297,27.6298828 39.6904297,31.9697266 39.5605469,31.9697266 39.5605469,27.7597656 
				39.5605469,27.6298828 			"/>
			<rect x="39.5605469" y="27.5097656" fill="#474747" width="0.1298828" height="0.1201172"/>
			<rect x="39.5605469" y="19.0698242" fill="#474747" width="0.1298828" height="8.4399414"/>
			<path fill="#474747" d="M39.5605469,42.5498047v0.1298828h-12.25v-5.0996094
				c0-0.9804688-1.0097656-1.7802734-2.2402344-1.7802734c-1.2397461,0-2.2397461,0.7998047-2.2397461,1.7802734v5.0996094
				H10.5004883v-0.1298828h12.1899414v-0.0097656h0.0097656v-4.9599609c0-0.4599609,0.2099609-0.8896484,0.5400391-1.2197266
				c0.4399414-0.4199219,1.090332-0.6904297,1.8300781-0.6904297c0.4902344,0,0.9501953,0.1201172,1.3300781,0.3203125
				c0.1904297,0.109375,0.3496094,0.2294922,0.4902344,0.3701172c0.0498047,0.0498047,0.0996094,0.0996094,0.1396484,0.1494141
				c0.1298828,0.1503906,0.2304688,0.3203125,0.2998047,0.5c0.0605469,0.1806641,0.1005859,0.3701172,0.1005859,0.5703125v4.9697266
				H39.5605469z"/>
			<path fill="#474747" d="M39.5605469,42.4296875v0.1103516H27.4404297v-4.9599609
				c0-0.2001953-0.0400391-0.3896484-0.1103516-0.5703125c-0.0693359-0.1796875-0.1699219-0.3496094-0.2998047-0.5
				c-0.0400391-0.0595703-0.0898438-0.109375-0.1396484-0.1494141c-0.140625-0.1503906-0.3105469-0.2705078-0.4902344-0.3701172
				c-0.3798828-0.2001953-0.8398438-0.3203125-1.3300781-0.3203125c-0.7397461,0-1.3901367,0.2705078-1.8300781,0.6904297
				c-0.3500977,0.3193359-0.5498047,0.75-0.5498047,1.2197266v4.9599609H10.5004883v-0.1103516h12.0800781v-4.8496094
				c0-1.1201172,1.1098633-2.0400391,2.4897461-2.0400391s2.4902344,0.9199219,2.4902344,2.0400391v4.8496094H39.5605469z"/>
			<path fill="#FFFFFF" d="M39.5605469,35.7998047v6.6298828h-12v-4.8496094c0-1.1201172-1.1103516-2.0400391-2.4902344-2.0400391
				s-2.4897461,0.9199219-2.4897461,2.0400391v4.8496094H10.5004883V27.7597656h1.9399414v-1.1494141h1.6899414v1.1494141h2.2099609
				v-1.1494141h1.5600586h0.1098633h0.0400391v1.1494141h0.1000977h2.1000977v-1.1494141h1.7099609v1.1494141h2.2099609v-1.1494141
				h1.699707v1.1494141h2.2099609v-1.1494141h1.7099609v1.1494141h2.2001953v-1.1494141h0.1298828h0.1201172h1.4501953v1.1494141
				h2.2197266v-1.1494141h1.7001953v1.1494141h1.9501953v4.2099609h-1.7802734v-1.0898438h-2.2998047v1.3603516h2.0400391v1.0996094
				h2.0400391v1.1796875V35.7998047z"/>
			<polygon fill="#474747" points="39.5605469,33.2099609 39.5605469,33.3398438 37.5205078,33.3398438 37.5205078,32.2402344 
				37.6503906,32.2402344 37.6503906,33.2099609 			"/>
			<polygon fill="#474747" points="39.5605469,33.0898438 39.5605469,33.2099609 37.6503906,33.2099609 37.6503906,32.2402344 
				37.7802734,32.2402344 37.7802734,33.0898438 			"/>
			<rect x="37.7802734" y="32.2402344" fill="#FFFFFF" width="1.7802734" height="0.8496094"/>
			<rect x="37.7802734" y="32.1103516" fill="#474747" width="1.7802734" height="0.1298828"/>
			<rect x="37.7802734" y="31.9697266" fill="#474747" width="1.7802734" height="0.140625"/>
			<polygon fill="#474747" points="39.5605469,27.6298828 39.5605469,27.7597656 37.6103516,27.7597656 37.6103516,26.6103516 
				35.9101563,26.6103516 35.9101563,27.7597656 33.6904297,27.7597656 33.6904297,26.6103516 32.2402344,26.6103516 
				32.2402344,26.4902344 33.8203125,26.4902344 33.8203125,27.6298828 35.7802734,27.6298828 35.7802734,26.4902344 
				37.7304688,26.4902344 37.7304688,27.6298828 			"/>
			<polygon fill="#474747" points="39.5605469,27.5097656 39.5605469,27.6298828 37.7304688,27.6298828 37.7304688,26.4902344 
				35.7802734,26.4902344 35.7802734,27.6298828 33.8203125,27.6298828 33.8203125,26.4902344 32.2402344,26.4902344 
				32.2402344,26.3603516 33.9404297,26.3603516 33.9404297,27.5097656 35.6503906,27.5097656 35.6503906,26.3603516 
				37.8603516,26.3603516 37.8603516,27.5097656 			"/>
			<rect x="38.9003906" y="18.9399414" fill="#474747" width="0.6601563" height="0.1298828"/>
			<polygon fill="#474747" points="38.9599609,18.8100586 38.9003906,18.9399414 38.9003906,18.8100586 			"/>
			<rect x="37.6503906" y="32.1103516" fill="#474747" width="0.1298828" height="0.1298828"/>
			<rect x="37.6503906" y="31.9697266" fill="#474747" width="0.1298828" height="0.140625"/>
			<polygon fill="#474747" points="37.7802734,30.8798828 37.7802734,31.9697266 37.6503906,31.9697266 37.6503906,31 
				35.6103516,31 35.6103516,32.1103516 37.5205078,32.1103516 37.5205078,32.2402344 35.4804688,32.2402344 35.4804688,30.8798828 
							"/>
			<rect x="37.5205078" y="32.1103516" fill="#474747" width="0.1298828" height="0.1298828"/>
			<rect x="37.5205078" y="31.9697266" fill="#474747" width="0.1298828" height="0.140625"/>
			<polygon fill="#474747" points="37.6503906,31 37.6503906,31.9697266 37.5205078,31.9697266 37.5205078,31.1298828 
				37.5107422,31.1298828 35.7402344,31.1298828 35.7402344,31.9697266 35.7402344,31.9804688 37.5107422,31.9804688 
				37.5107422,31.9697266 37.5205078,31.9697266 37.5205078,32.1103516 35.6103516,32.1103516 35.6103516,31 			"/>
			<rect x="35.7402344" y="31.9697266" fill="#FFFFFF" width="1.7705078" height="0.0107422"/>
			<rect x="35.7402344" y="31.1298828" fill="#FFFFFF" width="1.7705078" height="0.8398438"/>
			<polygon fill="#474747" points="33.9902344,10.6899414 33.9902344,14.5400391 33.8603516,14.5600586 32.2402344,14.5600586 
				32.2402344,14.4399414 33.8603516,14.4399414 33.8603516,14.4101563 33.8603516,10.8198242 31.9101563,10.8198242 
				31.9101563,11.9599609 29.9404297,11.9599609 29.9404297,10.8198242 28,10.8198242 28,11.9599609 26.0507813,11.9599609 
				26.0507813,10.8198242 24.090332,10.8198242 24.090332,11.9599609 22.1303711,11.9599609 22.1303711,10.8198242 
				20.1904297,10.8198242 20.1904297,11.9599609 18.2304688,11.9599609 18.2304688,10.8198242 16.2802734,10.8198242 
				16.2802734,14.4101563 16.2802734,14.4399414 17.9003906,14.4399414 17.9003906,14.5600586 16.1503906,14.5600586 
				16.1503906,10.6899414 18.3603516,10.6899414 18.3603516,11.8398438 20.050293,11.8398438 20.050293,10.6899414 
				22.2602539,10.6899414 22.2602539,11.8398438 23.9604492,11.8398438 23.9604492,10.6899414 26.1699219,10.6899414 
				26.1699219,11.8398438 27.8603516,11.8398438 27.8603516,10.6899414 30.0800781,10.6899414 30.0800781,11.8398438 
				31.7802734,11.8398438 31.7802734,10.6899414 			"/>
			<polygon fill="#474747" points="33.8603516,14.4101563 33.8603516,14.4399414 32.2402344,14.4399414 32.2402344,14.3100586 
				33.7304688,14.3100586 33.7304688,10.9399414 32.0302734,10.9399414 32.0302734,12.0898438 29.8300781,12.0898438 
				29.8300781,10.9399414 28.1308594,10.9399414 28.1308594,12.0898438 25.9199219,12.0898438 25.9199219,10.9399414 
				24.2104492,10.9399414 24.2104492,12.0898438 22.0102539,12.0898438 22.0102539,10.9399414 20.300293,10.9399414 
				20.300293,12.0898438 18.090332,12.0898438 18.090332,10.9399414 16.4003906,10.9399414 16.4003906,14.3100586 
				17.9003906,14.3100586 17.9003906,14.4399414 16.2802734,14.4399414 16.2802734,14.4101563 16.2802734,10.8198242 
				18.2304688,10.8198242 18.2304688,11.9599609 20.1904297,11.9599609 20.1904297,10.8198242 22.1303711,10.8198242 
				22.1303711,11.9599609 24.090332,11.9599609 24.090332,10.8198242 26.0507813,10.8198242 26.0507813,11.9599609 28,11.9599609 
				28,10.8198242 29.9404297,10.8198242 29.9404297,11.9599609 31.9101563,11.9599609 31.9101563,10.8198242 33.8603516,10.8198242 
							"/>
			<polygon fill="#FFFFFF" points="33.7304688,10.9399414 33.7304688,14.3100586 32.2402344,14.3100586 32.1103516,14.3100586 
				18.0102539,14.3100586 17.9003906,14.3100586 16.4003906,14.3100586 16.4003906,10.9399414 18.090332,10.9399414 
				18.090332,12.0898438 20.300293,12.0898438 20.300293,10.9399414 22.0102539,10.9399414 22.0102539,12.0898438 
				24.2104492,12.0898438 24.2104492,10.9399414 25.9199219,10.9399414 25.9199219,12.0898438 28.1308594,12.0898438 
				28.1308594,10.9399414 29.8300781,10.9399414 29.8300781,12.0898438 32.0302734,12.0898438 32.0302734,10.9399414 			"/>
			<rect x="32.1201172" y="26.4902344" fill="#474747" width="0.1201172" height="0.1201172"/>
			<polygon fill="#474747" points="32.2402344,26.3603516 32.2402344,26.4902344 32.1201172,26.4902344 32.1103516,26.4902344 
				32.1103516,26.3603516 			"/>
			<rect x="32.1103516" y="14.5600586" fill="#474747" width="0.1298828" height="11.800293"/>
			<rect x="32.1103516" y="14.4399414" fill="#474747" width="0.1298828" height="0.1201172"/>
			<rect x="32.1103516" y="14.3100586" fill="#474747" width="0.1298828" height="0.1298828"/>
			<polygon fill="#474747" points="32.1201172,26.4902344 32.1201172,26.6103516 31.9902344,26.6103516 31.9902344,26.4902344 
				32.1103516,26.4902344 			"/>
			<rect x="31.9902344" y="26.3603516" fill="#474747" width="0.1201172" height="0.1298828"/>
			<polygon fill="#474747" points="32.1103516,14.5600586 32.1103516,26.3603516 31.9902344,26.3603516 31.9902344,14.5600586 
				18.1503906,14.5600586 18.1503906,26.3603516 18.0102539,26.3603516 18.0102539,14.5600586 18.0102539,14.4399414 
				32.1103516,14.4399414 			"/>
			<rect x="18.0102539" y="14.3100586" fill="#474747" width="14.1000977" height="0.1298828"/>
			<polygon fill="#474747" points="31.9902344,26.6103516 31.9902344,27.7597656 29.7900391,27.7597656 29.7900391,26.6103516 
				28.0800781,26.6103516 28.0800781,27.7597656 25.8701172,27.7597656 25.8701172,26.6103516 24.1704102,26.6103516 
				24.1704102,27.7597656 21.9604492,27.7597656 21.9604492,26.6103516 20.2504883,26.6103516 20.2504883,27.7597656 
				18.1503906,27.7597656 18.1503906,26.4902344 18.1704102,26.4902344 18.1704102,27.6298828 20.1303711,27.6298828 
				20.1303711,26.4902344 22.090332,26.4902344 22.090332,27.6298828 24.050293,27.6298828 24.050293,26.4902344 26,26.4902344 
				26,27.6298828 27.9599609,27.6298828 27.9599609,26.4902344 29.9101563,26.4902344 29.9101563,27.6298828 31.8603516,27.6298828 
				31.8701172,27.6298828 31.8701172,26.4902344 31.9902344,26.4902344 			"/>
			<polygon fill="#474747" points="31.9902344,26.3603516 31.9902344,26.4902344 31.8701172,26.4902344 31.8603516,26.4902344 
				31.8603516,27.6298828 29.9101563,27.6298828 29.9101563,26.4902344 27.9599609,26.4902344 27.9599609,27.6298828 26,27.6298828 
				26,26.4902344 24.050293,26.4902344 24.050293,27.6298828 22.090332,27.6298828 22.090332,26.4902344 20.1303711,26.4902344 
				20.1303711,27.6298828 18.1704102,27.6298828 18.1704102,26.4902344 18.1503906,26.4902344 18.1503906,26.3603516 
				18.300293,26.3603516 18.300293,27.5097656 20.0102539,27.5097656 20.0102539,26.3603516 22.2104492,26.3603516 
				22.2104492,27.5097656 23.9204102,27.5097656 23.9204102,26.3603516 26.1308594,26.3603516 26.1308594,27.5097656 
				27.8300781,27.5097656 27.8300781,26.3603516 30.0302734,26.3603516 30.0302734,27.5097656 31.7402344,27.5097656 
				31.7402344,26.3603516 			"/>
			<path fill="#FFFFFF" d="M31.9902344,14.5600586v11.800293h-0.25v1.1494141h-1.7099609v-1.1494141h-2.2001953v1.1494141
				h-1.6992188v-1.1494141h-2.2104492v1.1494141h-1.7099609v-1.1494141h-2.2001953v1.1494141H18.300293v-1.1494141h-0.1499023
				v-11.800293H31.9902344z M31.3105469,17.5200195v-1.3598633h-2.2998047v1.3598633H31.3105469z M25.9902344,21.0097656v-2.199707
				c0-0.5102539-0.4101563-0.9199219-0.9199219-0.9199219c-0.5200195,0-0.9399414,0.409668-0.9399414,0.9199219v2.199707H25.9902344
				z"/>
			<path fill="#474747" d="M31.3105469,16.1601563v1.3598633h-2.2998047v-1.3598633H31.3105469z M31.1699219,17.3901367v-1.1103516
				h-2.0390625v1.1103516H31.1699219z"/>
			<path fill="#474747" d="M31.1699219,16.2797852v1.1103516h-2.0390625v-1.1103516H31.1699219z M31.0507813,17.2597656v-0.8496094
				h-1.7802734v0.8496094H31.0507813z"/>
			<rect x="29.2705078" y="16.4101563" fill="#FFFFFF" width="1.7802734" height="0.8496094"/>
			<path fill="#474747" d="M25.9902344,18.8100586v2.199707h-1.8598633v-2.199707
				c0-0.5102539,0.4199219-0.9199219,0.9399414-0.9199219C25.5800781,17.8901367,25.9902344,18.2998047,25.9902344,18.8100586z
				 M25.8603516,20.8901367v-2.0800781c0-0.4399414-0.3496094-0.7900391-0.7900391-0.7900391
				c-0.4399414,0-0.8100586,0.3500977-0.8100586,0.7900391v2.0800781H25.8603516z"/>
			<path fill="#474747" d="M25.8603516,18.8100586v2.0800781h-1.6000977v-2.0800781
				c0-0.4399414,0.3701172-0.7900391,0.8100586-0.7900391C25.5107422,18.0200195,25.8603516,18.3701172,25.8603516,18.8100586z
				 M25.7402344,20.7597656v-1.949707c0-0.3701172-0.2998047-0.6699219-0.6699219-0.6699219
				c-0.3798828,0-0.6699219,0.2998047-0.6699219,0.6699219v1.949707H25.7402344z"/>
			<path fill="#474747" d="M23.2402344,36.3603516c-0.3300781,0.3300781-0.5400391,0.7597656-0.5400391,1.2197266v4.9599609
				h-0.0097656v-4.9599609C22.6904297,37.1103516,22.8901367,36.6796875,23.2402344,36.3603516z"/>
			<polygon fill="#474747" points="18.1503906,26.4902344 18.1503906,27.7597656 18.050293,27.7597656 18.050293,26.6103516 
				18.0102539,26.6103516 18.0102539,26.4902344 			"/>
			<rect x="18.0102539" y="26.3603516" fill="#474747" width="0.1401367" height="0.1298828"/>
			<rect x="17.9003906" y="26.4902344" fill="#474747" width="0.1098633" height="0.1201172"/>
			<rect x="17.9003906" y="26.3603516" fill="#474747" width="0.1098633" height="0.1298828"/>
			<rect x="17.9003906" y="14.5600586" fill="#474747" width="0.1098633" height="11.800293"/>
			<rect x="17.9003906" y="14.4399414" fill="#474747" width="0.1098633" height="0.1201172"/>
			<rect x="17.9003906" y="14.3100586" fill="#474747" width="0.1098633" height="0.1298828"/>
			<polygon fill="#474747" points="17.9003906,26.4902344 17.9003906,26.6103516 16.340332,26.6103516 16.340332,27.7597656 
				14.1303711,27.7597656 14.1303711,26.6103516 12.4404297,26.6103516 12.4404297,27.7597656 10.5004883,27.7597656 
				10.5004883,27.6298828 12.3203125,27.6298828 12.3203125,26.4902344 14.2602539,26.4902344 14.2602539,27.6298828 
				16.2304688,27.6298828 16.2304688,26.4902344 			"/>
			<polygon fill="#474747" points="17.9003906,26.3603516 17.9003906,26.4902344 16.2304688,26.4902344 16.2304688,27.6298828 
				14.2602539,27.6298828 14.2602539,26.4902344 12.3203125,26.4902344 12.3203125,27.6298828 10.5004883,27.6298828 
				10.5004883,27.5097656 12.1904297,27.5097656 12.1904297,26.3603516 14.4003906,26.3603516 14.4003906,27.5097656 
				16.090332,27.5097656 16.090332,26.3603516 			"/>
			<polygon fill="#474747" points="7.1704102,9.8701172 11.300293,19.0698242 11.1103516,19.0698242 11.1103516,18.9399414 
				11.1103516,18.8100586 11.050293,18.8100586 7.050293,9.9101563 7.1704102,9.9101563 			"/>
			<rect x="10.5004883" y="18.9399414" fill="#474747" width="0.6098633" height="0.1298828"/>
			<polygon fill="#EC5F64" points="11.1103516,18.8100586 11.1103516,18.9399414 11.050293,18.8100586 			"/>
			<polygon fill="#474747" points="11.050293,18.8100586 11.1103516,18.9399414 10.5004883,18.9399414 10.5004883,18.8398438 
				3.6103516,18.8398438 3.6103516,18.9399414 2.9404297,18.9399414 3.0102539,18.8100586 3.1503906,18.8100586 
				10.9204102,18.8100586 			"/>
			<polygon fill="#474747" points="7.050293,9.9101563 11.050293,18.8100586 10.9204102,18.8100586 7.050293,10.2202148 
				3.1503906,18.8100586 3.0102539,18.8100586 			"/>
			<polygon fill="#FFFFFF" points="7.050293,10.2202148 10.9204102,18.8100586 3.1503906,18.8100586 			"/>
			<polygon fill="#474747" points="10.5004883,42.5498047 10.5004883,42.6796875 10.2304688,42.6796875 10.2304688,42.5498047 
				10.3603516,42.5498047 10.3706055,42.5498047 			"/>
			<polygon fill="#474747" points="10.5004883,42.5400391 10.5004883,42.5498047 10.3706055,42.5498047 10.3706055,27.6298828 
				10.5004883,27.6298828 10.5004883,27.7597656 10.4804688,27.7597656 10.4804688,42.4296875 10.5004883,42.4296875 			"/>
			<rect x="10.4804688" y="27.7597656" fill="#DADADA" width="0.0200195" height="14.6699219"/>
			<polygon fill="#474747" points="10.5004883,27.5097656 10.5004883,27.6298828 10.3706055,27.6298828 10.3603516,27.6298828 
				10.3603516,27.5097656 			"/>
			<rect x="10.3603516" y="19.0698242" fill="#474747" width="0.1401367" height="8.4399414"/>
			<polygon fill="#474747" points="10.5004883,18.9399414 10.5004883,19.0698242 10.3603516,19.0698242 10.3603516,18.9599609 
				3.7304688,18.9599609 3.7304688,19.0698242 3.6103516,19.0698242 3.6103516,18.9399414 			"/>
			<rect x="3.6103516" y="18.8398438" fill="#474747" width="6.8901367" height="0.1000977"/>
			<rect x="10.3603516" y="27.6298828" fill="#DADADA" width="0.0102539" height="14.9199219"/>
			<polygon fill="#474747" points="10.3603516,27.6298828 10.3603516,42.5498047 10.2304688,42.5498047 10.2304688,42.4296875 
				10.2304688,27.5097656 10.3603516,27.5097656 			"/>
			<polygon fill="#474747" points="10.3603516,19.0698242 10.3603516,27.5097656 10.2304688,27.5097656 10.2304688,19.0898438 
				3.8603516,19.0898438 3.8603516,34.5195313 3.7402344,34.5195313 3.7402344,19.0698242 			"/>
			<polygon fill="#474747" points="10.3603516,18.9599609 10.3603516,19.0698242 3.7402344,19.0698242 3.7304688,19.0698242 
				3.7304688,18.9599609 			"/>
			<polygon fill="#474747" points="10.2304688,42.5498047 10.2304688,42.6796875 3.6103516,42.6796875 3.6103516,35.7998047 
				3.7304688,35.7998047 3.7304688,42.5498047 			"/>
			<polygon fill="#474747" points="10.2304688,42.4296875 10.2304688,42.5498047 3.7304688,42.5498047 3.7304688,35.7998047 
				3.8603516,35.7998047 3.8603516,42.4296875 			"/>
			<path fill="#FFFFFF" d="M10.2304688,27.5097656v14.9199219H3.8603516v-6.6298828h1.7900391v-1.2802734H3.8603516V19.0898438
				h6.3701172V27.5097656z M7.9804688,24.8300781v-2.2001953c0-0.5097656-0.4301758-0.9296875-0.9301758-0.9296875
				c-0.5200195,0-0.9199219,0.4199219-0.9199219,0.9296875v2.2001953H7.9804688z"/>
			<path fill="#474747" d="M7.050293,9.6098633v0.0102539l-0.1201172,0.25v-2.550293l2.2099609,0.5800781L7.1801758,8.4399414
				v1.4301758L7.0605469,9.6000977L7.050293,9.6098633z M7.050293,8.3500977l1.6000977-0.4501953L7.050293,7.4902344V8.3500977z"/>
			<path fill="#474747" d="M8.6503906,7.8999023L7.050293,8.3500977V7.4902344L8.6503906,7.8999023z M7.1704102,8.1801758
				l0.9799805-0.2802734l-0.9799805-0.25V8.1801758z"/>
			<polygon fill="#FFFFFF" points="8.1503906,7.8999023 7.1704102,8.1801758 7.1704102,7.6499023 			"/>
			<path fill="#474747" d="M7.9804688,22.6298828v2.2001953H6.1303711v-2.2001953
				c0-0.5097656,0.3999023-0.9296875,0.9199219-0.9296875C7.550293,21.7001953,7.9804688,22.1201172,7.9804688,22.6298828z
				 M7.840332,24.7001953v-2.0703125c0-0.4399414-0.3598633-0.7998047-0.7900391-0.7998047
				c-0.4399414,0-0.7998047,0.3598633-0.7998047,0.7998047v2.0703125H7.840332z"/>
			<path fill="#474747" d="M7.840332,22.6298828v2.0703125H6.2504883v-2.0703125
				c0-0.4399414,0.3598633-0.7998047,0.7998047-0.7998047C7.4804688,21.8300781,7.840332,22.1899414,7.840332,22.6298828z
				 M7.7104492,24.5698242v-1.9399414c0-0.3701172-0.2900391-0.6699219-0.6601563-0.6699219
				c-0.3598633,0-0.6699219,0.2998047-0.6699219,0.6699219v1.9399414H7.7104492z"/>
			<polygon fill="#474747" points="7.1704102,9.8701172 7.1704102,9.9101563 7.050293,9.9101563 7.050293,9.6201172 
				7.050293,9.6098633 			"/>
			<polygon fill="#474747" points="7.050293,9.6201172 7.050293,9.9101563 6.9204102,9.9101563 6.9204102,9.8901367 
				6.9301758,9.8701172 6.9301758,9.8901367 			"/>
			<polygon fill="#474747" points="7.050293,9.6201172 6.9301758,9.8901367 6.9301758,9.8701172 			"/>
			<polygon fill="#474747" points="7.050293,9.9101563 3.0102539,18.8100586 2.9404297,18.8100586 2.9404297,18.9399414 
				2.9404297,19.0698242 2.7504883,19.0698242 6.9204102,9.8901367 6.9204102,9.9101563 			"/>
			<polygon fill="#474747" points="5.6503906,34.5195313 5.6503906,35.7998047 3.8603516,35.7998047 3.8603516,35.6699219 
				5.5102539,35.6699219 5.5102539,34.6503906 3.8603516,34.6503906 3.8603516,34.5195313 			"/>
			<polygon fill="#474747" points="5.5102539,34.6503906 5.5102539,35.6699219 3.8603516,35.6699219 3.8603516,35.5400391 
				5.4003906,35.5400391 5.4003906,34.7802734 3.8603516,34.7802734 3.8603516,34.6503906 			"/>
			<rect x="3.8603516" y="34.7802734" fill="#FFFFFF" width="1.5400391" height="0.7597656"/>
			<rect x="3.7304688" y="35.6699219" fill="#474747" width="0.1298828" height="0.1298828"/>
			<polygon fill="#474747" points="3.8603516,35.5400391 3.8603516,35.6699219 3.7304688,35.6699219 3.7304688,34.6503906 
				3.8603516,34.6503906 3.8603516,34.7802734 			"/>
			<polygon fill="#474747" points="3.8603516,34.5195313 3.8603516,34.6503906 3.7304688,34.6503906 3.7304688,34.5195313 
				3.7402344,34.5195313 			"/>
			<rect x="3.7304688" y="19.0698242" fill="#474747" width="0.0097656" height="15.449707"/>
			<polygon fill="#474747" points="3.7304688,35.6699219 3.7304688,35.7998047 3.6103516,35.7998047 3.6103516,34.5195313 
				3.7304688,34.5195313 3.7304688,34.6503906 			"/>
			<rect x="3.6103516" y="19.0698242" fill="#474747" width="0.1201172" height="15.449707"/>
			<rect x="2.9404297" y="18.9399414" fill="#474747" width="0.6699219" height="0.1298828"/>
			<polygon fill="#474747" points="3.0102539,18.8100586 2.9404297,18.9399414 2.9404297,18.8100586 			"/>
		</g>
		<g>
		</g>
	</g>
</g>
</svg>
