<?xml version="1.0" encoding="utf-8"?>
<!-- Generator: Adobe Illustrator 16.0.0, SVG Export Plug-In . SVG Version: 6.00 Build 0)  -->
<!DOCTYPE svg PUBLIC "-//W3C//DTD SVG 1.1//EN" "http://www.w3.org/Graphics/SVG/1.1/DTD/svg11.dtd">
<svg version="1.1" id="Layer_1" xmlns="http://www.w3.org/2000/svg" xmlns:xlink="http://www.w3.org/1999/xlink" x="0px" y="0px"
	 width="50px" height="50px" viewBox="0 0 50 50" enable-background="new 0 0 50 50" xml:space="preserve">
<g>
	<path fill-rule="evenodd" clip-rule="evenodd" fill="#FFFFFF" d="M28.6259766,24.1953125
		c-0.1445313,0.0957031-0.2890625,0.1918945-0.4335938,0.2871094c-0.796875-0.203125-0.9853516,0.6835938-1.5761719,0.8759766
		c-1.6020508,0.5219727-2.0097656,1.1533203-1.4345703,2.7431641c0.3642578,1.0068359,0.3408203,1.7949219-0.1044922,2.7626953
		c-0.3959961,0.8613281-0.2285156,1.8642578,0.4946289,2.5957031c0.5083008,0.5146484,1.1743164,1.21875,1.8911133,0.8369141
		c1.7832031-0.9521484,1.7529297,0.8847656,2.1933594,1.5068359c0.7822266,1.0996094-0.9414063,0.6367188-1.1894531,1.3125
		c-0.0966797,0.2646484-0.7685547,0.1884766-1.1533203-0.0800781c-0.3378906-0.2353516-1.0175781-0.1542969-1.0166016-0.0742188
		c0.012207,1.8457031-1.340332,0.6699219-1.9956055,0.8496094c-0.769043,0.2089844-1.6386719,0.0488281-2.465332,0.0488281
		c3.4467773,0.9462891,6.9111328,0.3427734,10.3828125,0.4482422c-1.9189453,0.7490234-4.0712891,0.3398438-5.7841797,1.3251953
		c1.9492188,0.7451172,3.9023438,0.3037109,5.8496094-0.4052734c0.6328125-0.2304688,1.6054688-0.4267578,1.7167969,0.3867188
		c0.1152344,0.8496094-0.9443359,0.8564453-1.6113281,1.0341797c-0.0498047,0.0126953-0.1054688,0.0039063-0.1582031-0.0009766
		c-3.7744141-0.3251953-7.5688477,0.5761719-11.3862305-0.2402344c0.4970703,0.6337891,1.7304688,0.2519531,1.7099609,1.1875
		c-0.0136719,0.6367188-0.4360352,1.375-1.2548828,1.5898438c-1.4428711-0.2929688-2.9335938-0.0625-4.3779297-0.4853516
		c-1.7460938-0.5117188-2.2304688-1.2285156-1.3486328-2.8134766c0.9121094-1.640625,2.1176758-3.1181641,3.875-3.9697266
		c2.625-1.2714844,3.6157227-3.1748047,2.9404297-6.0078125c-0.159668-0.671875,0.137207-1.0947266,0.3549805-1.6230469
		c0.8125-1.9697266-0.1425781-3.1674805-1.9804688-4.1323242c-2.2089844-1.159668-3.9189453-3.0898438-4.7963867-5.5771484
		c-0.7954102-2.2529297-1.0883789-4.6040039-1.3813477-6.9521484c-0.1948242-1.5620117-0.7089844-2.9516602-2.0498047-4.2119141
		c5.4570313-1.1147461,10.7822266-0.3657227,16.0585938-0.6420898c0.1044922,0.1357422,0.2119141,0.1489258,0.3193359,0.0024414
		c2.2929688,0.0581055,4.6005859-0.309082,6.8769531,0.2490234c0.2109375,0.0522461,0.4033203,0.0678711,0.4091797,0.3408203
		c-1.0654297,0.1289063-2.1875-0.2661133-3.2041016,0.3364258c-1.5517578,0.265625-3.1464844-0.3803711-4.6816406,0.2255859
		c-0.6152344,0.6342773-1.4287109,0.9941406-2.109375,1.5639648c-1.5834961,1.3237305-2.043457,2.5268555-1.206543,4.3930664
		c-0.4389648,0.0864258-0.8637695,0.1699219-1.394043,0.2744141c0.7368164,0.6464844,0.7124023,1.4765625,1.0571289,2.1401367
		c0.1923828,0.3710938,0.2460938,0.574707,0.6757813,0.5673828c1.3100586-0.0239258,2.6157227,0.3325195,3.9301758,0.0444336
		c0.1855469-0.0043945,0.3701172-0.0087891,0.5566406-0.0136719c0.8310547,0,1.6630859,0,2.3164063,0
		C32.5058594,20.1171875,29.7060547,21.715332,28.6259766,24.1953125z"/>
	<path opacity="0.5" fill-rule="evenodd" clip-rule="evenodd" fill="#D3D3D3" d="M32.9960938,7.6992188
		c1.0166016-0.6025391,2.1386719-0.2075195,3.2041016-0.3364258c0.3642578,0.0625,0.7285156,0.1254883,1.2646484,0.2182617
		c-2.3808594,2.0874023-2.0048828,5.0029297-2.3046875,7.6240234c-0.4296875,3.7519531-2.4179688,6.4033203-5.1318359,8.7089844
		c-0.3896484,0.331543-0.8378906,0.6796875-1.4023438,0.28125c1.0800781-2.4799805,3.8798828-4.078125,3.5146484-7.3007813
		c-0.6533203,0-1.4853516,0-2.3164063,0c0.4257813-0.5175781,0.7773438-1.1669922,0.3095703-1.7099609
		c-0.5058594-0.5864258-1.2763672-0.2919922-1.9345703-0.0952148c-0.3896484,0.1157227-0.6552734,0.3813477-0.6308594,0.8066406
		c0.0634766,1.0869141,1.0800781,0.5546875,1.5791016,0.9082031c0.0439453,0.0302734,0.0800781,0.0693359,0.1201172,0.1040039
		c-1.3144531,0.2880859-2.6201172-0.0683594-3.9301758-0.0444336c-0.4296875,0.0073242-0.4833984-0.1962891-0.6757813-0.5673828
		c-0.3447266-0.6635742-0.3203125-1.4936523-1.0571289-2.1401367c0.5302734-0.1044922,0.9550781-0.1879883,1.394043-0.2744141
		c-0.8369141-1.8662109-0.3769531-3.0693359,1.206543-4.3930664c0.6806641-0.5698242,1.4941406-0.9296875,2.109375-1.5634766
		C29.9101563,8.5756836,31.4550781,8.1743164,32.9960938,7.6992188z M27.0039063,13.8969727
		c2.8623047,0.7758789,2.7978516,0.7426758,3.8017578-1.1679688c0.4140625-0.7875977,0.5107422-1.3862305-0.1738281-1.9399414
		c-0.6748047-0.5458984-1.4990234-0.9755859-2.3154297-0.4169922c-0.6933594,0.4741211-1.1396484,1.5551758-0.6796875,2.078125
		C28.4707031,13.3974609,27.5361328,13.4389648,27.0039063,13.8969727z"/>
	<path opacity="0.5" fill-rule="evenodd" clip-rule="evenodd" fill="#D3D3D3" d="M21.300293,43.1855469
		c0.8188477-0.2148438,1.2412109-0.953125,1.2548828-1.5898438c0.0205078-0.9355469-1.2128906-0.5537109-1.7099609-1.1875
		c3.8173828,0.8164063,7.6118164-0.0849609,11.3862305,0.2402344c0.0527344,0.0048828,0.1083984,0.0136719,0.1582031,0.0009766
		c0.6669922-0.1777344,1.7265625-0.1845703,1.6113281-1.0341797c-0.1113281-0.8134766-1.0839844-0.6171875-1.7167969-0.3867188
		c-1.9472656,0.7089844-3.9003906,1.1503906-5.8496094,0.4052734c1.7128906-0.9853516,3.8652344-0.5761719,5.7841797-1.3251953
		c-3.4716797-0.1054688-6.9360352,0.4980469-10.3828125-0.4482422c0.8266602,0,1.6962891,0.1601563,2.465332-0.0488281
		c0.6552734-0.1796875,2.0078125,0.9960938,1.9956055-0.8496094c-0.0009766-0.0800781,0.6787109-0.1611328,1.0166016,0.0742188
		c0.3847656,0.2685547,1.0566406,0.3447266,1.1533203,0.0800781c0.2480469-0.6757813,1.9716797-0.2128906,1.1894531-1.3125
		c-0.4404297-0.6220703-0.4101563-2.4589844-2.1933594-1.5068359c-0.7167969,0.3818359-1.3828125-0.3222656-1.8911133-0.8369141
		c-0.7231445-0.7314453-0.890625-1.734375-0.4946289-2.5957031c0.4453125-0.9677734,0.46875-1.7558594,0.1044922-2.7626953
		c-0.5751953-1.5898438-0.1674805-2.2211914,1.4345703-2.7431641c0.5908203-0.1923828,0.7792969-1.0791016,1.5761719-0.8759766
		c-0.7324219,0.8886719-0.9433594,2.0820313-0.5771484,2.9707031c0.5605469,1.3554688,0.3574219,2.6982422,0.5439453,4.0390625
		c0.2519531,1.8193359,1.1376953,3.2578125,2.9697266,3.9472656c1.9492188,0.7333984,3.2177734,2.3115234,4.3447266,3.9042969
		c1.1933594,1.6875,0.5917969,2.90625-1.4550781,3.2226563C29.8066406,43.2197266,25.5629883,43.4482422,21.300293,43.1855469z
		 M28.9599609,42.6445313c1.0507813-0.0644531,2.234375,0.0556641,2.1679688-1.0585938
		c-0.0693359-1.1357422-1.2373047-0.484375-1.9277344-0.6054688c-0.0498047-0.0087891-0.1044922,0.0048828-0.1572266,0.0097656
		c-0.6113281,0.0654297-1.4589844-0.0498047-1.4355469,0.8359375C27.6347656,42.8125,28.5195313,42.6220703,28.9599609,42.6445313z
		 M26.1660156,33.1884766c1.28125-0.5556641,0.8242188-1.5566406,0.6572266-2.4189453
		c-0.0488281-0.25-0.5522461-0.1923828-0.7509766-0.0146484C25.1196289,31.6005859,25.7314453,32.3857422,26.1660156,33.1884766z"/>
	<path fill-rule="evenodd" clip-rule="evenodd" fill="#B6B6B5" d="M28.9140625,6.7729492
		c-0.1074219,0.1464844-0.2148438,0.1333008-0.3193359-0.0024414C28.7001953,6.7714844,28.8076172,6.7719727,28.9140625,6.7729492z"
		/>
	<path fill-rule="evenodd" clip-rule="evenodd" fill="#FFFFFF" d="M29.2675781,16.9082031
		c-0.0400391-0.034668-0.0761719-0.0737305-0.1201172-0.1040039c-0.4990234-0.3535156-1.515625,0.1787109-1.5791016-0.9082031
		c-0.0244141-0.425293,0.2412109-0.690918,0.6308594-0.8066406c0.6582031-0.1967773,1.4287109-0.4912109,1.9345703,0.0952148
		c0.4677734,0.5429688,0.1162109,1.1923828-0.3095703,1.7099609C29.6376953,16.8994141,29.453125,16.9038086,29.2675781,16.9082031z
		"/>
	<path fill-rule="evenodd" clip-rule="evenodd" fill="#FFFFFF" d="M32.9960938,7.6992188
		c-1.5410156,0.4750977-3.0859375,0.8764648-4.6816406,0.2260742C29.8496094,7.3188477,31.4443359,7.9648438,32.9960938,7.6992188z"
		/>
	<path fill-rule="evenodd" clip-rule="evenodd" fill="#FFFFFF" d="M27.0039063,13.8969727
		c0.5322266-0.4580078,1.4667969-0.4995117,0.6328125-1.4467773c-0.4599609-0.5229492-0.0136719-1.6040039,0.6796875-2.078125
		c0.8164063-0.5585938,1.640625-0.1289063,2.3154297,0.4169922c0.6845703,0.5537109,0.5878906,1.1523438,0.1738281,1.9399414
		C29.8017578,14.6396484,29.8662109,14.6728516,27.0039063,13.8969727z"/>
	<path fill-rule="evenodd" clip-rule="evenodd" fill="#FFFFFF" d="M28.9599609,42.6445313
		c-0.4404297-0.0224609-1.3251953,0.1679688-1.3525391-0.8183594c-0.0234375-0.8857422,0.8242188-0.7705078,1.4355469-0.8359375
		c0.0527344-0.0048828,0.1074219-0.0185547,0.1572266-0.0097656c0.6904297,0.1210938,1.8583984-0.5302734,1.9277344,0.6054688
		C31.1943359,42.7001953,30.0107422,42.5800781,28.9599609,42.6445313z"/>
	<path fill-rule="evenodd" clip-rule="evenodd" fill="#FFFFFF" d="M26.1660156,33.1884766
		c-0.4345703-0.8027344-1.0463867-1.5878906-0.09375-2.4335938c0.1987305-0.1777344,0.7021484-0.2353516,0.7509766,0.0146484
		C26.9902344,31.6318359,27.4472656,32.6328125,26.1660156,33.1884766z"/>
</g>
</svg>
