<?xml version="1.0" encoding="utf-8"?>
<!-- Generator: Adobe Illustrator 16.0.0, SVG Export Plug-In . SVG Version: 6.00 Build 0)  -->
<!DOCTYPE svg PUBLIC "-//W3C//DTD SVG 1.1//EN" "http://www.w3.org/Graphics/SVG/1.1/DTD/svg11.dtd">
<svg version="1.1" id="Layer_1" xmlns="http://www.w3.org/2000/svg" xmlns:xlink="http://www.w3.org/1999/xlink" x="0px" y="0px"
	 width="100px" height="50px" viewBox="0 0 100 50" enable-background="new 0 0 100 50" xml:space="preserve">
<g>
	<path fill-rule="evenodd" clip-rule="evenodd" fill="#EFEFEF" d="M98.0966797,26.3066406
		c-0.4355469-0.8964844-1.2685547-1.2880859-2.1494141-1.609375c-0.3300781-0.1181641-0.7216797-0.203125-0.9462891-0.4375
		c-0.1513672-0.1572266-0.1835938-0.0888672-0.3300781-0.1064453c-0.5722656-0.0673828-1.1337891-0.2392578-1.7001953-0.3720703
		c0.0302734-0.2490234,0.0507813-0.4248047,0.0927734-0.753418c-0.1777344,0.2871094-0.2666016,0.4326172-0.3457031,0.5610352
		c-0.296875-0.0429688-0.5634766-0.0664063-0.8222656-0.1245117c-0.2636719-0.0585938-0.5214844-0.1533203-0.7509766-0.2231445
		v-0.8725586c-0.1494141,0.3608398-0.2294922,0.5537109-0.2949219,0.7177734
		c-0.5986328-0.1455078-1.1279297-0.2739258-1.6435547-0.4003906v-0.8500977
		c-0.0478516-0.0131836-0.0927734-0.0263672-0.1376953-0.0375977c-0.0869141,0.2001953-0.1738281,0.4023438-0.2607422,0.6025391
		c-0.5097656-0.0927734-1.0244141-0.1850586-1.5302734-0.277832c0.0302734-0.3608398,0.0488281-0.578125,0.0683594-0.793457
		c-0.0341797-0.0092773-0.0664063-0.0185547-0.0986328-0.0283203c-0.0810547,0.1967773-0.1621094,0.3930664-0.2509766,0.6083984
		c-1.4619141-0.3193359-2.8408203-0.7158203-4.0703125-1.7641602c-0.2685547,0.6459961-0.6386719,1.1181641-1.0810547,1.4560547
		l-39.1357422-0.4057617c-1.1577148-0.9179688-1.4033203-1.6791992-0.902832-3.152832
		c0.3496094-1.0351563,0.8291016-2.0322266,1.3071289-3.0180664c0.3662109-0.7592773,0.2324219-1.5717773,0.1625977-2.3066406
		c-0.1494141-1.5449219-1.4980469-2.7011719-3.0527344-2.875c-1.5244141-0.1679688-3.0166016,0.0361328-4.4541016,0.5214844
		c-2.300293,0.7802734-4.5654297,1.6586914-6.8696289,2.4213867c-1.9194336,0.6367188-3.8608398,1.1621094-5.9311523,1.0522461
		c-1.8945313-0.1000977-3.6645508-0.6362305-5.4248047-1.2729492c-1.3676758-0.4951172-2.7353516-1.0180664-4.140625-1.3769531
		c-2.984375-0.7631836-5.4780273,0.2133789-7.0097656,2.8745117c-0.9614258,1.671875-1.7563477,3.4643555-2.4272461,5.277832
		c-0.7329102,1.9814453-1.2333984,4.0498047-1.828125,6.0615234c-0.0644531-0.0703125-0.1645508-0.1835938-0.3134766-0.3496094
		c-0.0664063,0.3603516-0.1157227,0.6289063-0.1743164,0.9443359c0.1474609-0.0126953,0.2626953-0.0244141,0.4628906-0.0429688
		c-0.0830078,0.78125-0.1850586,1.5166016-0.2324219,2.2529297c-0.1450195,2.3310547-0.1264648,4.65625,0.5029297,6.9306641
		c0.4946289,1.7910156,1.3164063,3.3964844,2.9389648,4.4316406c0.4589844,0.2939453,1.0141602,0.5283203,1.5488281,0.5888672
		c0.9897461,0.1132813,1.996582,0.0761719,2.9467773-0.3017578c0.9707031-0.3857422,1.9663086-0.7333984,2.8916016-1.2128906
		c2.2216797-1.1503906,4.3994141-2.3896484,6.6152344-3.5566406c2.3476563-1.2373047,4.7993164-1.5322266,7.3325195-0.6240234
		c1.5849609,0.5683594,3.1542969,1.1826172,4.7280273,1.7851563c1.4316406,0.5478516,2.8974609,0.8007813,4.4331055,0.5859375
		c2.1743164-0.3027344,3.4604492-1.6552734,3.5361328-3.84375c0.0263672-0.7353516-0.0947266-1.4775391-0.1967773-2.2099609
		c-0.2397461-1.7207031,0.8500977-3.3212891,2.5463867-3.6308594c0.5986328-0.109375,1.2202148-0.0888672,1.8266602-0.1660156
		c0.0678711-0.0097656,0.1357422-0.0185547,0.2041016-0.0283203v-0.1435547l35.8891602-0.9296875
		c0.0654297,0.0488281,0.1445313,0.0947266,0.2353516,0.1435547c0.5292969,0.2871094,1.1113281,0.6025391,1.4628906,1.0654297
		c0.4599609,0.6044922,0.9628906,0.8486328,1.6826172,0.7666016c0.1757813-0.0185547,0.3564453,0,0.5361328,0.0039063
		c2.7841797,0.0644531,5.5683594,0.1269531,8.3525391,0.1933594c1.0771484,0.0263672,1.9833984,0.4414063,2.71875,1.2275391
		c0.7949219,0.8476563,0.9746094,0.8876953,2.0341797,0.4023438C98.1328125,29.0039063,98.7353516,27.6240234,98.0966797,26.3066406
		z M8.8222656,30.6611328c0.387207,0.0322266,0.7250977,0.0976563,0.7480469,0.5761719
		c0.0170898,0.3964844-0.3232422,0.7402344-0.7119141,0.7402344c-0.3950195-0.0019531-0.6181641-0.2207031-0.6162109-0.6230469
		C8.3007813,31.0214844,8.2651367,30.6152344,8.8222656,30.6611328z M8.9091797,35.84375
		c-0.3798828-0.0449219-0.5952148-0.2509766-0.5400391-0.6621094c0.0585938-0.3554688,0.0849609-0.7109375,0.6191406-0.6425781
		c0.4042969,0.0507813,0.684082,0.1621094,0.6577148,0.6308594C9.6230469,35.5888672,9.3056641,35.8916016,8.9091797,35.84375z
		 M12.2636719,33.8662109c-0.3793945-0.0107422-0.6269531-0.1777344-0.6289063-0.6025391
		c-0.0019531-0.4794922,0.190918-0.7363281,0.6972656-0.8515625c0.2094727,0.2363281,0.515625,0.4414063,0.6040039,0.7177734
		C13.0551758,33.4960938,12.6567383,33.8798828,12.2636719,33.8662109z M15.440918,31.8984375
		c-0.3022461-0.0283203-0.5795898-0.2080078-0.5195313-0.6142578c0.0493164-0.3271484,0.0795898-0.7626953,0.5991211-0.7197266
		c0.3754883,0.0302734,0.7060547,0.1455078,0.7041016,0.6220703C16.2231445,31.6201172,15.9321289,31.9169922,15.440918,31.8984375z
		 M19.2226563,21.0483398h1.2973633c0,1.6376953,0.0058594,3.2358398-0.003418,4.8334961
		c-0.0019531,0.3310547,0.1000977,0.7763672-0.4023438,0.7578125c0.0869141-1.8554688,0.171875-3.644043,0.2568359-5.4267578
		c-0.5517578-0.1152344-0.5004883,0.2490234-0.5102539,0.5004883c-0.043457,1.1992188-0.065918,2.3989258-0.0942383,3.5981445
		c-0.0058594,0.2548828-0.0131836,0.5117188-0.0058594,0.7666016c0.0097656,0.4042969-0.215332,0.46875-0.5380859,0.3935547
		V21.0483398z M40.597168,15.3305664c-0.171875,0.449707-0.4248047,0.8710938-0.6704102,1.2885742
		c-0.2436523,0.4189453-0.512207,0.8251953-0.7895508,1.2236328c-0.7875977,1.1279297-1.0712891,2.3535156-0.7348633,3.7421875
		h1.6450195v2.8251953c-0.065918,0.0019531-0.1303711,0.0039063-0.1943359,0.0058594c0-0.1474609-0.0039063-0.2958984,0-0.4453125
		c0.0092773-0.6083984,0.043457-1.2167969,0.0131836-1.8232422c-0.0058594-0.1206055-0.3061523-0.3491211-0.3852539-0.3168945
		c-0.1645508,0.065918-0.3759766,0.2680664-0.3833008,0.4248047c-0.0419922,0.7236328-0.019043,1.4526367-0.1342773,2.1782227
		c0-0.7109375,0.0019531-1.4189453,0-2.1289063c-0.0019531-0.4082031-0.0058594-0.4082031-0.6308594-0.4892578
		c-0.0322266,0.9384766-0.0678711,1.8701172-0.0947266,2.8027344c-0.0356445,1.2392578,0.0078125,2.4628906-0.3662109,3.6962891
		c-0.2910156,0.9560547-0.2060547,2.0253906-0.2983398,3.0439453c-0.105957,1.1708984-0.5214844,2.1816406-1.5244141,2.8818359
		c-0.9501953,0.6630859-2.0024414,0.7236328-3.0864258,0.4873047c-3.0805664-0.6708984-6.0463867-1.7128906-8.9667969-2.8798828
		c-1.6376953-0.6542969-3.2392578-1.3925781-4.8579102-2.09375c-0.1401367-0.0615234-0.3120117-0.0957031-0.4121094-0.1982422
		c-0.1738281-0.1787109-0.3056641-0.4023438-0.4550781-0.6064453c0.2114258-0.1015625,0.4194336-0.2792969,0.6367188-0.2939453
		c0.7382813-0.0478516,1.480957-0.0380859,2.2211914-0.0498047c0.7421875-0.0107422,1.4848633-0.0068359,2.2250977-0.0371094
		c0.7045898-0.0283203,0.9916992-0.2705078,1.0219727-0.9746094c0.0698242-1.6572266,0.090332-3.3173828,0.128418-4.9755859
		c0.0053711-0.300293,0-0.6025391,0-1.0048828h-2.1230469c0.0019531-0.0527344,0.003418-0.1079102,0.0053711-0.1606445h2.1230469
		c0.0268555-0.5024414,0.0683594-0.9521484,0.0703125-1.4033203c0-0.4174805,0.1337891-0.7387695,0.5024414-0.965332
		c3.6074219-2.230957,7.2133789-4.4692383,11.0859375-6.2275391c0.6401367-0.2890625,1.3598633-0.4589844,2.0605469-0.5478516
		C39.996582,12.0800781,41.2299805,13.6743164,40.597168,15.3305664z"/>
	<path fill-rule="evenodd" clip-rule="evenodd" fill="#EFEFEF" d="M28.0859375,26.4501953
		c0,0.7626953-0.6767578,1.3808594-1.5112305,1.3808594l0,0c-0.8344727,0-1.5112305-0.6181641-1.5112305-1.3808594v-4.8491211
		c0-0.7626953,0.6767578-1.3808594,1.5112305-1.3808594l0,0c0.8344727,0,1.5112305,0.6181641,1.5112305,1.3808594V26.4501953z"/>
	<path fill-rule="evenodd" clip-rule="evenodd" fill="#EFEFEF" d="M32.8413086,26.4501953
		c0,0.7626953-0.6762695,1.3808594-1.5112305,1.3808594l0,0c-0.8344727,0-1.5107422-0.6181641-1.5107422-1.3808594v-4.8491211
		c0-0.7626953,0.6762695-1.3808594,1.5107422-1.3808594l0,0c0.8349609,0,1.5112305,0.6181641,1.5112305,1.3808594V26.4501953z"/>
	<path fill-rule="evenodd" clip-rule="evenodd" fill="#EFEFEF" d="M37.6728516,26.4501953
		c0,0.7626953-0.6762695,1.3808594-1.5107422,1.3808594l0,0c-0.8349609,0-1.5112305-0.6181641-1.5112305-1.3808594v-4.8491211
		c0-0.7626953,0.6762695-1.3808594,1.5112305-1.3808594l0,0c0.8344727,0,1.5107422,0.6181641,1.5107422,1.3808594V26.4501953z"/>
</g>
</svg>
