<?xml version="1.0" encoding="utf-8"?>
<!-- Generator: Adobe Illustrator 16.0.0, SVG Export Plug-In . SVG Version: 6.00 Build 0)  -->
<!DOCTYPE svg PUBLIC "-//W3C//DTD SVG 1.1//EN" "http://www.w3.org/Graphics/SVG/1.1/DTD/svg11.dtd">
<svg version="1.1" id="Layer_1" xmlns="http://www.w3.org/2000/svg" xmlns:xlink="http://www.w3.org/1999/xlink" x="0px" y="0px"
	 width="100.0004883px" height="50.0004883px" viewBox="0 0 100.0004883 50.0004883"
	 enable-background="new 0 0 100.0004883 50.0004883" xml:space="preserve">
<rect x="45.9116211" y="5.5" fill="#EFEFEF" width="4.5136719" height="30.887207"/>
<ellipse fill="#5E5E5E" cx="48.1682129" cy="34.9614258" rx="13.067627" ry="4.9892578"/>
<circle fill="#5E5E5E" cx="48.1689453" cy="5.5" r="4.6118164"/>
<rect x="22.9682617" y="32.9418945" fill="#1C5929" width="3.8012695" height="1.1875"/>
<rect x="31.5214844" y="32.9418945" fill="#CF2221" width="3.8012695" height="1.1875"/>
<rect x="27.2451172" y="33.3422852" fill="#3A509E" width="3.8007813" height="1.1894531"/>
<rect x="19.9980469" y="33.6538086" fill="#EFEFEF" width="56.3100586" height="12.59375"/>
<circle cx="48.1687012" cy="39.9506836" r="2.2565918"/>
<g>
	<g>
		<path fill="#3D3D3D" d="M47.6723633,41.1577148c3.6518555,6.2851563,12.0810547,5.0693359,18.1699219,6.7001953
			c5.2177734,1.3974609,8.4970703,7.6386719,12.2041016,11.2197266c2.8652344,2.7675781,6.2431641,4.1640625,10.0927734,4.9960938
			c0.7861328,0.1699219,1.1201172-1.0351563,0.3320313-1.2050781c-9.3515625-2.0214844-12.2910156-9.5234375-19.2802734-14.8466797
			c-5.9697266-4.5458984-16.1494141-0.1123047-20.4394531-7.4951172
			C48.3466797,39.8305664,47.2666016,40.4594727,47.6723633,41.1577148L47.6723633,41.1577148z"/>
	</g>
</g>
</svg>
