<?xml version="1.0" encoding="utf-8"?>
<!-- Generator: Adobe Illustrator 16.0.0, SVG Export Plug-In . SVG Version: 6.00 Build 0)  -->
<!DOCTYPE svg PUBLIC "-//W3C//DTD SVG 1.1//EN" "http://www.w3.org/Graphics/SVG/1.1/DTD/svg11.dtd">
<svg version="1.1" id="Layer_1" xmlns="http://www.w3.org/2000/svg" xmlns:xlink="http://www.w3.org/1999/xlink" x="0px" y="0px"
	 width="100.0004883px" height="50.0004883px" viewBox="0 0 100.0004883 50.0004883"
	 enable-background="new 0 0 100.0004883 50.0004883" xml:space="preserve">
<path fill-rule="evenodd" clip-rule="evenodd" fill="#EFEFEF" d="M70.4018555,9.8999023
	c-0.4033203-0.0698242-0.8417969-0.0600586-1.203125-0.2231445c-2.5244141-1.1416016-5.0234375-0.9438477-7.5136719,0.0844727
	c-0.3388672,0.1396484-0.6826172,0.3027344-0.9677734,0.5263672c-0.7958984,0.625-0.7236328,1.2314453,0.1953125,1.6738281
	c0.3867188,0.1865234,0.8115234,0.2949219,1.3964844,0.5014648c-0.5585938,0.1870117-0.9296875,0.3120117-1.5048828,0.5048828
	c0.4384766,0.1801758,0.6826172,0.3149414,0.9453125,0.3837891c1.6171875,0.4248047,2.4423828,1.1298828,2.4550781,2.8222656
	c0.0195313,2.4169922-0.2597656,4.8378906-0.4492188,7.2543945c-0.0380859,0.4833984-0.4921875,1.0664063,0.3066406,1.2607422
	c0.71875,0.1738281,1.1328125-0.3154297,1.2451172-0.9541016c0.1601563-0.9072266,0.1738281-1.8398438,0.3300781-2.7480469
	c0.1923828-1.1201172,0.4658203-2.2270508,0.7421875-3.5151367c-0.3369141,0.4453125-0.5810547,0.7666016-0.8769531,1.1577148
	c-0.2363281-0.4707031-0.4755859-0.8706055-0.6416016-1.2988281c-0.1914063-0.4951172-0.3759766-1.0053711,0.4453125-1.1845703
	c0.2236328-0.0488281,0.3710938-0.4023438,0.5751953-0.5932617c0.6171875-0.5795898,1.2441406-1.1479492,2.0761719-1.9121094
	c0.0419922,0.7431641,0.0605469,1.0883789,0.0839844,1.4956055c1.3222656-0.703125,2.4785156-0.2890625,3.4199219,0.6586914
	c1.3457031,1.3564453,2.5947266,2.809082,4.046875,4.1826172c-0.7880859-1.5913086-1.5761719-3.1826172-2.5039063-5.0576172
	c0.7226563,0.0380859,1.2431641,0.0043945,1.7373047,0.1049805c0.8984375,0.1821289,1.7724609,0.5834961,2.671875,0.6342773
	c0.8974609,0.050293,1.2402344,0.5083008,1.2324219,1.2177734c-0.0126953,1.0917969-0.0214844,2.2314453-0.3310547,3.2607422
	c-0.4316406,1.4404297-1.0634766,2.8354492-1.7480469,4.1801758c-0.6826172,1.3408203-1.0722656,2.65625-0.5908203,4.1435547
	c0.3662109,1.1328125,0.1015625,2.1689453-0.8037109,2.9150391c-1.5068359,1.2421875-1.5585938,2.7871094-1.2197266,4.5214844
	c0.375,1.9179688,0.6738281,3.8525391,0.9404297,5.7890625c0.5761719,4.1796875-3.3085938,7.1103516-6.9980469,6.265625
	c-5.1103516-1.1708984-10.28125-2.1054688-15.4599609-2.9355469c-3.6474609-0.5839844-6.3789063-4.2587891-4.1523438-8.5859375
	c0.8261719-1.6044922,1.8486328-3.1083984,2.7958984-4.6484375c0.9462891-1.5390625,1.3671875-3.0742188,0.3330078-4.7783203
	c-0.6025391-0.9912109-0.3857422-2.0087891,0.3408203-2.8847656c1.0869141-1.3085938,1.0712891-2.7685547,0.9042969-4.3759766
	c-0.1875-1.8198242-0.1904297-3.6855469-0.0244141-5.5083008c0.2060547-2.2519531,1.7470703-3.7128906,3.7070313-4.4702148
	c2.4882813-0.9619141,4.9853516-2.1816406,7.7910156-1.7880859c1.8935547,0.265625,3.7744141,0.628418,5.6494141,1.0029297
	c0.2861328,0.0571289,0.5126953,0.4140625,0.7666016,0.6328125C70.4975586,9.7084961,70.449707,9.8041992,70.4018555,9.8999023z
	 M48.5063477,39.815918c0.1152344,1.1425781,0.8300781,1.7587891,1.5771484,2.3652344
	c0.6972656,0.5654297,1.1386719-0.0175781,1.6513672-0.3261719c0.0888672-0.0546875,0.2109375-0.0771484,0.3173828-0.0771484
	c2.1376953-0.0019531,4.2802734-0.0810547,6.4130859,0.0234375c3.2207031,0.15625,6.2041016,1.2148438,9.1083984,2.5751953
	c2.1503906,1.0078125,3.9375-0.2695313,3.7304688-2.6640625c-0.1171875-1.3515625-0.421875-2.6982422-0.765625-4.015625
	c-1.0195313-3.8984375-3.7978516-5.8457031-7.5751953-6.5400391c-3.7050781-0.6806641-6.9042969,0.21875-9.2460938,3.3388672
	c-0.6845703,0.9121094-1.2910156,1.8925781-1.8369141,2.8945313c-0.3828125,0.7021484-0.4042969,1.75-0.9511719,2.1728516
	C50.4106445,39.9633789,49.4174805,39.7504883,48.5063477,39.815918z M55.6831055,19.7397461
	c0.3457031,0.1201172,0.4960938,0.2319336,0.6083984,0.2021484c1.7675781-0.465332,3.4794922-0.2954102,5.1914063,0.3085938
	c0.2304688,0.081543,0.8144531-0.2407227,0.9150391-0.5c0.3642578-0.9428711,0.5351563-1.9833984-0.1748047-2.8305664
	c-0.6699219-0.8007813-1.6103516-0.53125-2.4707031-0.2998047c-0.3867188,0.1040039-0.7705078,0.2558594-1.125,0.4438477
	C57.4672852,17.6772461,56.3422852,18.3398438,55.6831055,19.7397461z M69.4116211,17.8989258
	c-1.1142578,0.0258789-1.8808594,1.1206055-1.9794922,2.5546875c-0.0458984,0.6801758,0.2070313,1.0410156,0.9257813,1.0546875
	c1.5634766,0.0307617,3.0771484,0.2260742,4.3623047,1.2641602c0.1894531,0.1533203,0.5429688,0.1044922,0.8203125,0.1489258
	c0.0322266-0.3037109,0.1757813-0.6503906,0.0791016-0.9042969c-0.6699219-1.75-1.8525391-3.0664063-3.5273438-3.9179688
	C69.8374023,17.9697266,69.5356445,17.934082,69.4116211,17.8989258z M55.699707,42.8725586
	c0.1650391,0.0527344,0.3261719,0.1367188,0.4941406,0.1533203c4.4736328,0.4189453,8.7841797,1.5253906,13.0205078,2.9892578
	c1.1787109,0.4082031,2.3535156,0.15625,3.3671875-0.5791016c0.3671875-0.2675781,0.625-0.6865234,0.9335938-1.0361328
	c-0.0878906-0.1044922-0.1757813-0.2089844-0.2636719-0.3144531c-0.5078125,0.2480469-1.03125,0.46875-1.5214844,0.7480469
	c-1.1835938,0.671875-2.3339844,0.8935547-3.6582031,0.2617188c-1.4267578-0.6796875-2.9248047-1.2265625-4.4277344-1.7246094
	C61.0708008,42.5170898,58.4487305,42.0141602,55.699707,42.8725586z M59.7524414,26.9584961
	c-0.0048828,0.1611328-0.0087891,0.3232422-0.0136719,0.484375c1.8388672,0.3339844,3.7558594,0.4492188,5.4970703,1.0625
	c1.7734375,0.625,3.3730469,1.7412109,5.1054688,2.6728516c-0.3222656-0.2978516-0.6123047-0.5703125-0.90625-0.8378906
	c-0.3212891-0.2900391-0.6474609-0.5761719-0.9677734-0.8613281c0.8310547-1.0058594-0.5058594-2.4199219-2.6396484-2.8212891
	c0.1826172,0.2285156,0.3222656,0.4033203,0.5400391,0.6767578c-0.3955078,0.0322266-0.6738281,0.0556641-0.9746094,0.0810547
	c0.1533203,0.2421875,0.2460938,0.3896484,0.4238281,0.6708984c-1.5791016-0.2939453-2.9736328-0.5527344-4.4365234-0.8251953
	c0.1875-0.2480469,0.28125-0.3730469,0.5146484-0.6816406C61.0385742,26.730957,60.3959961,26.8452148,59.7524414,26.9584961z
	 M73.0795898,24.6713867c-0.9560547-1.621582-2.8720703-2.6123047-4.2734375-2.2783203
	C69.2749023,24.3510742,70.0454102,24.793457,73.0795898,24.6713867z M61.3208008,20.9765625
	c-1.1044922-0.5913086-2.0175781-0.5268555-2.8242188,0.2119141c-0.1894531,0.1728516-0.1845703,0.5556641-0.2695313,0.8422852
	c0.2587891,0.0405273,0.5644531,0.1899414,0.7685547,0.1025391C59.7485352,21.8105469,60.4682617,21.4091797,61.3208008,20.9765625z
	 M67.550293,23.9248047c-0.1914063-0.4492188-0.4492188-1.1489258-0.7998047-1.7978516
	c-0.0820313-0.1518555-0.4814453-0.1323242-0.7353516-0.1914063c-0.0302734,0.234375-0.171875,0.5898438-0.0712891,0.6831055
	C66.4887695,23.1230469,67.0932617,23.5629883,67.550293,23.9248047z"/>
<path fill-rule="evenodd" clip-rule="evenodd" fill="#EFEFEF" d="M38.0864258,15.0009766
	c0.1269531,0.1357422,0.3095703,0.409668,0.3720703,0.3847656c0.4746094-0.1923828,0.9277344-0.4423828,1.6259766-0.7954102
	c-0.4941406,0.5258789-0.8310547,0.8613281-1.1416016,1.2192383c-0.5839844,0.671875-0.421875,1.262207,0.4550781,1.2573242
	c1.4140625-0.0083008,2.8320313-0.2011719,4.2382813-0.3896484c0.7636719-0.1025391,1.5-0.3959961,2.2617188-0.527832
	c0.3837891-0.0668945,0.796875,0.0341797,1.3359375,0.0678711c0.0214844-0.0756836,0.0957031-0.3271484,0.1816406-0.6181641
	c0.1308594,0.090332,0.2646484,0.1318359,0.2929688,0.2104492c0.6191406,1.7617188,0.2324219,4.1787109-2.1826172,4.6723633
	c-1.0849609,0.222168-2.0458984,1.1103516-3.0341797,1.7416992c-1.7363281,1.1088867-3.3691406,2.4086914-5.1933594,3.340332
	c-2.1923828,1.1210938-4.4228516,0.3515625-6.5605469-0.5419922c0.7363281,0.1445313,1.4736328,0.2890625,2.2109375,0.4335938
	c0.0175781-0.1054688,0.0371094-0.2119141,0.0546875-0.3173828c-1.5761719-0.296875-3.1533203-0.5927734-4.7304688-0.8891602
	c-0.0175781,0.0932617-0.0351563,0.1865234-0.0527344,0.2797852c5.1074219,2.9677734,8.9746094,2.4316406,13.0908203-0.6821289
	c1.0292969-0.7792969,1.9921875-1.6572266,3.0712891-2.3579102c1.140625-0.7412109,2.3945313-1.1484375,3.7773438-0.5117188
	c0.2304688,0.1064453,0.5761719-0.0395508,0.78125-0.0600586c1.6142578,0.9819336,1.8007813,2.5722656,1.7167969,4.1801758
	c-0.25,4.8330078-1.4511719,9.2910156-4.9667969,12.9150391c-5.2890625,5.4501953-11.4296875,4.4355469-16.3925781,0.4423828
	c-3.171875-2.5498047-5.234375-5.9824219-6.4746094-9.8779297c-0.4746094-1.4902344-0.5546875-2.9628906,0.0644531-4.4418945
	c0.4316406-1.0307617,0.4023438-1.9926758-0.0839844-3.0834961c-0.2919922-0.6557617-0.109375-1.6533203,0.1533203-2.394043
	c0.2988281-0.8452148,0.4589844-1.5341797,0.0732422-2.4179688c-0.5742188-1.3129883-1.0429688-2.6884766-1.3945313-4.0786133
	c-0.7490234-2.9628906-0.0439453-4.9609375,2.5664063-6.5639648c2.0273438-1.2451172,4.1699219-2.4082031,6.4082031-3.1796875
	c2.3974609-0.8266602,4.9511719-0.5751953,7.40625,0.1645508c0.0839844,0.0253906,0.1396484,0.1469727,0.4335938,0.4746094
	c-1.0507813,0-1.8691406,0.015625-2.6875-0.003418c-1.8144531-0.0424805-3.4814453,0.418457-5.1054688,1.2387695
	c-2.6494141,1.3393555-2.1152344,2.5610352-0.6074219,4.7114258c-1.0019531,0-1.9267578,0-2.8515625,0
	c4.4941406,0.6210938,5.5253906,4.2207031,6.5996094,7.6459961c0.4326172,1.3793945,0.3046875,2.9272461,0.5273438,4.3842773
	c0.0683594,0.4516602,0.4394531,1.2104492,0.6845703,1.215332c0.7373047,0.0151367,1.0283203-0.5473633,0.9072266-1.3095703
	c-0.3115234-1.9599609-0.6308594-3.9194336-0.8789063-5.887207c-0.1464844-1.159668-0.1621094-2.3354492-0.2382813-3.5244141
	c-0.2041016,0.7114258-0.4160156,1.4477539-0.7138672,2.4848633c-0.6357422-1.0581055-1.1259766-1.8710938-1.4521484-2.4130859
	c0.4628906-0.652832,0.8525391-1.0410156,1.0488281-1.5107422c0.6464844-1.5439453,1.8447266-2.3759766,3.4023438-2.8085938
	c-0.2910156,0.246582-0.5800781,0.4931641-0.8701172,0.7392578c0.0283203,0.0839844,0.0576172,0.1679688,0.0869141,0.2514648
	c0.3916016-0.0874023,0.7792969-0.2255859,1.1748047-0.2539063c1.3798828-0.0991211,2.7998047-0.3891602,4.1376953-0.1806641
	c1.8203125,0.2841797,2.8095703,1.6450195,3.1015625,3.5087891c0.6103516-0.9868164,0.5673828-0.9833984,0.4316406-2.6342773
	c-0.046875-0.5722656,0.1757813-1.1669922,0.5234375-1.71875c0.4804688,2.465332,0.2578125,4.8813477-0.15625,7.2592773
	c-0.9785156,0.4399414-1.8525391,0.4501953-2.8603516,0.0273438c-1.6455078-0.690918-3.1767578-0.0283203-4.6162109,0.8198242
	c0.921875-1.2719727,2.1542969-1.9389648,3.7294922-2.0849609c0.4482422-0.0415039,1.1142578-0.3349609,1.2294922-0.6689453
	c0.125-0.3583984-0.1835938-0.9775391-0.4755859-1.3481445c-0.8291016-1.0541992-1.9345703-1.3095703-3.0537109-0.8256836
	c-1.5625,0.675293-2.6123047,2.3378906-2.6035156,4.0488281C36.8696289,15.1591797,37.222168,15.4550781,38.0864258,15.0009766z
	 M24.003418,28.1821289c-0.0839844,0.0322266-0.1679688,0.0644531-0.2509766,0.0966797
	c-0.0126953,0.0703125-0.0478516,0.1464844-0.0332031,0.2099609c1.3310547,5.6191406,7.3056641,10.6708984,13.1025391,11.0283203
	c1.2041016,0.0742188,2.3867188-0.1523438,3.40625-0.9765625c-2.0498047,0.7851563-3.9433594,0.2998047-5.8027344-0.5830078
	c0.3867188-0.1230469,0.7734375-0.1699219,1.1455078-0.1162109c2.2763672,0.3300781,4.3154297-0.1972656,6.1552734-1.5849609
	c1.8828125-1.4189453,3.3554688-3.1962891,4.0507813-5.421875c0.5302734-1.6972656,0.6855469-3.5224609,0.8828125-5.3046875
	c0.046875-0.4140625-0.3125-1.1049805-0.6660156-1.2617188c-0.3212891-0.1425781-0.953125,0.1772461-1.3330078,0.4521484
	c-0.7158203,0.5166016-1.3291016,1.171875-2.0185547,1.7285156c-2.7226563,2.2001953-5.7265625,3.6035156-9.3144531,2.7607422
	c-1.7128906-0.4023438-3.3632813-1.0800781-5.0273438-1.6748047c-1.2558594-0.4482422-1.6191406-0.171875-1.515625,1.1416016
	c0.2539063,3.2207031,2.0693359,5.4316406,4.5722656,7.2138672c0.6953125,0.4951172,1.3994141,0.9785156,2.0996094,1.4677734
	c-0.0429688,0.0791016-0.0839844,0.1591797-0.125,0.2382813c-0.8789063-0.3779297-1.7568359-0.7568359-2.6347656-1.1347656
	c-0.0195313,0.0546875-0.0400391,0.1103516-0.0605469,0.1660156c0.3330078,0.234375,0.6660156,0.46875,1.1503906,0.8095703
	c-0.2988281,0-0.3779297,0.0234375-0.4316406-0.0039063c-0.2636719-0.1328125-0.5234375-0.2744141-0.7792969-0.421875
	c-2.7412109-1.5849609-4.546875-3.9365234-5.6621094-6.8681641C24.6586914,29.4711914,24.309082,28.8354492,24.003418,28.1821289z
	 M31.7807617,16.1538086c-0.0410156-1.6943359-1.1640625-3.1455078-2.7832031-3.7392578
	c-1.8417969-0.675293-3.1796875,0.0683594-3.4121094,2.0239258c-0.0976563,0.8237305,0.1171875,1.6845703,0.2226563,2.9121094
	c0.5419922-0.6542969,0.9023438-1.0898438,1.2636719-1.5253906C28.5678711,14.8881836,30.0610352,16.3310547,31.7807617,16.1538086z
	 M37.472168,18.9121094c-0.1152344,0.0771484-0.2304688,0.1547852-0.3457031,0.2319336
	c0.0410156,0.5805664,0.0820313,1.1611328,0.1230469,1.7421875c0.4501953-0.0449219,0.9550781,0.0195313,1.3359375-0.1674805
	c0.3398438-0.1665039,0.5429688-0.6108398,0.8056641-0.9326172C38.7514648,19.4946289,38.1118164,19.2036133,37.472168,18.9121094z
	 M30.0717773,18.9311523c0.4423828-0.4926758,0.7021484-0.7822266,0.9619141-1.0722656
	c-0.3623047-0.2705078-0.6943359-0.6591797-1.0996094-0.7631836c-0.2041016-0.0522461-0.8085938,0.5068359-0.7666016,0.6259766
	C29.3012695,18.1030273,29.652832,18.4072266,30.0717773,18.9311523z M44.0463867,20.0820313
	c-0.0849609-0.1079102-0.1699219-0.215332-0.2548828-0.3232422c-0.9609375,1.0063477-1.921875,2.0126953-2.8828125,3.019043
	c0.1103516,0.112793,0.2216797,0.2250977,0.3320313,0.3374023C42.175293,22.1040039,43.1108398,21.0932617,44.0463867,20.0820313z
	 M33.2495117,22.8486328c0.1347656-0.0087891,0.2675781-0.0175781,0.4023438-0.0263672
	c-0.1542969-1.1064453-0.3066406-2.2128906-0.4589844-3.3193359c-0.0615234,0.0083008-0.1230469,0.0161133-0.1835938,0.0244141
	C33.0893555,20.6342773,33.1694336,21.7416992,33.2495117,22.8486328z M33.7788086,28.7905273
	c0.0332031-0.1533203,0.0683594-0.3056641,0.1025391-0.4580078c-0.6601563-0.1533203-1.3212891-0.3076172-1.9814453-0.4609375
	c-0.0351563,0.1435547-0.0703125,0.2861328-0.1054688,0.4296875C32.456543,28.4643555,33.1166992,28.6274414,33.7788086,28.7905273z
	"/>
</svg>
