<?xml version="1.0" encoding="utf-8"?>
<!-- Generator: Adobe Illustrator 16.0.0, SVG Export Plug-In . SVG Version: 6.00 Build 0)  -->
<!DOCTYPE svg PUBLIC "-//W3C//DTD SVG 1.1//EN" "http://www.w3.org/Graphics/SVG/1.1/DTD/svg11.dtd">
<svg version="1.1" id="Layer_1" xmlns="http://www.w3.org/2000/svg" xmlns:xlink="http://www.w3.org/1999/xlink" x="0px" y="0px"
	 width="100.0004883px" height="50.0004883px" viewBox="0 0 100.0004883 50.0004883"
	 enable-background="new 0 0 100.0004883 50.0004883" xml:space="preserve">
<path fill-rule="evenodd" clip-rule="evenodd" fill="#E3E3E2" d="M42.9179688,114.7797852
	c0.003418-8.5507813,0.0068359-17.1035156,0.0087891-25.6582031c0.0019531-2.7558594-0.0073242-5.5117188,0.0053711-8.2675781
	c0.0043945-0.5292969-0.034668-0.9628906-0.5805664-1.2558594c-0.4711914-0.2539063-0.5493164-0.7890625-0.7070313-1.2695313
	c-0.453125-1.3867188-0.3710938-2.8144531-0.4174805-4.234375c1.7333984,0.3183594,3.4243164,0.7949219,5.0908203,1.359375
	c0.0078125,0.7480469,0.0488281,1.5019531,0.0131836,2.25c-0.0336914,0.703125,0.2192383,0.7441406,0.8369141,0.5917969
	c0.859375-0.2109375,1.5942383-0.6445313,2.3706055-1.0195313c0.456543-0.2226563,0.6811523-0.4765625,0.7509766-1.0390625
	c0.1289063-1.0078125,0.1411133-2.1503906,1.4277344-2.5722656c0.2441406-0.0800781,0.3613281-0.3867188,0.4365234-0.6855469
	c0.2617188-1.0488281,0.2333984-2.1035156,0.0869141-3.15625c-0.1425781-1.0214844-0.3398438-2.0351563-0.5087891-3.0546875
	c-0.3745117-2.234375-0.7456055-4.4707031-1.1245117-6.703125c-0.0424805-0.2578125-0.2670898-0.2128906-0.4472656-0.2246094
	c-0.2265625-1.1914063-0.0258789-2.3945313-0.0961914-3.5859375c-0.0424805-1.4296875-0.0424805-1.4296875-1.5185547-1.5292969
	c-0.1225586-0.0117188-0.246582-0.0117188-0.3671875-0.0351563c-1.2924805-0.2226563-1.2924805-0.2226563-1.2700195,1.0273438
	c-0.4067383,0.0703125-0.8051758,0.0332031-1.2099609-0.0449219c-1.2548828-0.2382813-2.5112305-0.4589844-3.7680664-0.6835938
	c-0.4047852-0.0683594-0.8540039-0.2089844-0.8613281,0.4628906c-0.0317383-0.0078125-0.0830078-0.0058594-0.0893555-0.0195313
	c-0.1801758-0.5839844,0.6889648-1.9394531,1.262207-1.9863281c0.3681641-0.0332031,0.8486328,0.1621094,0.909668-0.4921875
	c0.0522461-0.5488281-0.1616211-0.7753906-0.6552734-1.0390625c-0.5395508-0.2851563-1.4047852-0.4824219-1.1464844-1.4882813
	c0.0849609-0.3339844-0.4091797-0.4316406-0.4365234-0.9082031c-0.0541992-0.9160156,0.2783203-1.0976563,1.0390625-1.03125
	c0.2485352,0.0195313,0.4995117,0.0078125,0.7485352,0.0117188c0.0166016,0.7773438-0.0410156,1.5683594,0.3598633,2.3554688
	c0.2709961-1.0117188-0.0927734-1.9941406,0.2226563-2.9277344c0.027832,0.3085938,0.0537109,0.6191406,0.0820313,0.9335938
	c0.2172852-0.0585938,0.1611328-0.2851563,0.2446289-0.4199219c0.1464844-0.234375,0.2993164-0.4179688,0.5942383-0.2871094
	c0.3022461,0.1308594,0.2543945,0.3789063,0.1782227,0.6328125c-0.0541992,0.1777344-0.0854492,0.359375-0.1269531,0.5390625
	c-0.1464844,0.3984375,0.0693359,0.5742188,0.4160156,0.6367188c0.4047852,0.0742188,0.668457-0.0742188,0.7021484-0.5175781
	c0.3710938-0.1484375,0.3452148-0.5429688,0.5078125-0.8886719c0.6352539,0.8066406,1.4760742,0.4765625,2.2480469,0.4980469
	c0.0708008,0.5566406,0.0654297,1.1328125,0.4907227,1.921875c0.2890625-1.1738281,0.6010742-2.0859375,0.6328125-3.0585938
	c0.0126953-0.3964844,0.3374023-0.8515625-0.1303711-1.2050781c-0.0834961-0.3945313,0.0478516-0.6347656,0.4765625-0.6601563
	c0.0209961,0.3339844-0.0498047,0.78125,0.2939453,0.9101563c0.40625,0.1503906,0.5288086-0.3046875,0.7050781-0.578125
	c0.2470703-0.1542969,0.4882813-0.3105469,0.5175781-0.640625c-0.4135742-0.1132813-0.703125-0.0585938-0.7998047,0.3769531
	c-0.2099609-0.0507813-0.4194336-0.1035156-0.6289063-0.1582031c0.1425781-0.5820313,0.7163086-0.8691406,1.1005859-0.7617188
	c0.8203125,0.2304688,0.7685547-0.2460938,0.8720703-0.7402344c0.1279297-0.6054688,0.2597656-1.2226563,0.7480469-1.6875
	c-0.3320313-0.2773438-0.7519531-0.328125-1.1020508-0.515625c-0.7241211-0.3847656-1.2382813-0.4746094-1.4643555,0.5449219
	c-0.1616211,0.7324219-0.746582,0.2753906-1.074707,0.1894531c-2.5083008-0.6386719-4.8964844-1.6289063-7.324707-2.5058594
	c-0.5546875-0.2011719-1.0966797-0.4238281-1.5219727-0.8574219c0.1132813-0.0136719,0.2246094-0.03125,0.3359375-0.046875
	c-0.1469727-0.1464844-0.2949219-0.2929688-0.4433594-0.4414063c-0.0947266-0.0761719-0.1875-0.1992188-0.3007813-0.0214844
	l-0.0053711-0.0039063c0.2446289-0.3808594-0.1821289-0.4453125-0.3193359-0.6132813
	c-0.6108398-0.75-1.2661133-1.4589844-1.5888672-2.3945313c0.1835938-0.1113281,0.3637695-0.2382813,0.5991211-0.2109375
	c1.1103516,1.875,2.3076172,3.6582031,4.4438477,4.5214844c-1.5576172-1.8457031-3.2626953-3.5742188-3.2075195-6.2265625
	c0.7167969,0.2460938,0.5273438-0.6660156,0.9760742-0.7617188c-0.0703125,1.8085938,0.4101563,3.4179688,1.5610352,4.859375
	c0.6445313,0.8046875,1.4423828,1.4550781,2.0737305,2.2558594c0.5249023,0.6640625,1.0654297,0.6015625,1.5234375,0.390625
	c-0.6938477-0.7832031-1.4438477-1.5332031-2.074707-2.3730469c-0.8300781-1.1074219-1.6962891-2.2402344-1.3422852-3.7851563
	c0.8671875-0.40625,0.5327148-1.28125,0.7333984-1.9414063c0.1523438-0.5019531,0.159668-1.0566406,0.6352539-1.390625
	c0.3061523-0.2128906,0.6547852-0.4433594,0.918457,0.078125c-0.7329102,0.0625-1.043457,0.4628906-1.1899414,1.1914063
	c-0.6108398,3.0175781,0.8422852,5.2421875,2.7299805,7.296875c0.8334961,0.9082031,1.8920898,1.3261719,3.4267578,1.0703125
	c-1.2382813-0.796875-2.0253906-1.7226563-2.8027344-2.6484375c-0.8486328-1.0136719-1.612793-2.078125-1.4165039-3.5175781
	c0.3085938-0.7753906,0.1259766-1.6054688,0.2695313-2.4042969c0.0444336-0.2539063,0.0126953-0.734375-0.5048828-0.7363281
	l-0.0224609,0.0351563c-0.2045898-0.6074219-0.5117188-1.1660156-0.25-1.8828125
	c0.1479492-0.4082031-0.5571289-0.0351563-0.6445313-0.3964844c0.5161133-0.0214844,1.0356445-0.0761719,1.5239258,0.1621094
	c0.1411133,0.5742188,0.2670898,1.1542969,0.4360352,1.7207031c0.046875,0.1601563,0.0795898,0.5644531,0.3862305,0.3261719
	c0.4287109-0.3320313,1.0151367-0.0605469,1.4365234-0.5644531c0.3969727-0.4765625,1.4291992-0.0996094,1.4794922,0.5019531
	c0.0649414,0.7753906,0.1943359,1.6484375-0.0859375,2.3222656c-0.3081055,0.7382813-0.1445313,1.1640625,0.2973633,1.65625
	c0.4179688,0.4648438,0.2670898,1.2421875,0.887207,1.6015625c0.2373047,0.1367188,0.5532227,0.2636719,0.5883789-0.0917969
	c0.1352539-1.3652344,1.3383789-2.2441406,1.5483398-3.5605469c0.0722656-0.4609375,0.4257813-0.7089844,0.7861328-0.625
	c0.3759766,0.0878906,0.4970703,0.4765625,0.4033203,0.9179688c-0.0947266,0.4472656-0.2822266,0.7949219-0.5986328,1.125
	c-0.6953125,0.7207031-1.3671875,1.4648438-1.7661133,2.4082031c-0.1391602,0.3222656-0.269043,0.6582031-0.0727539,0.9863281
	c1.0712891,1.7832031,4.0917969,1.9121094,5.1552734,0.1191406c0.7050781-1.1855469,1.2148438-2.515625,1.3603516-3.9355469
	c0.1298828-1.2734375,0.1816406-2.5625,0.4365234-3.8085938c0.4628906-2.2695313,1.0371094-4.5175781,1.5927734-6.7670898
	c0.8867188-3.5751953,1.28125-7.2416992,2.0742188-10.8339844c0.2001953-0.9111328,0.3935547-1.8549805-0.2714844-2.6845703
	c-0.5957031-0.7470703-1.15625-1.5170898-1.4306641-2.4448242c-0.2685547-0.9047852-0.8857422-1.472168-1.6699219-1.9287109
	c-0.3974609-0.230957-0.8056641-0.4609375-1.046875-0.9077148c-0.2519531-0.4624023-0.7304688-0.4052734-1.1757813-0.387207
	c-0.4746094,0.0209961-0.3779297,0.4296875-0.4667969,0.6953125c-0.1777344,0.5322266-0.4179688,1.0698242-0.4570313,1.6171875
	c-0.0332031,0.5053711-0.2480469,0.8046875-0.6044922,1.0766602c-1.7880859-0.5200195-3.6567383-0.5800781-5.4707031-0.9628906
	c-0.0629883-0.1020508-0.1181641-0.2875977-0.1875-0.2924805c-1.6274414-0.112793-2.8286133-0.8657227-3.5712891-2.3276367
	c0.1821289-0.4902344,0.3789063-0.9765625,0.5439453-1.4716797c0.237793-0.7070313,0.6870117-0.8916016,1.3569336-0.6000977
	c-0.1987305,0.519043-0.4116211,1.0322266-0.590332,1.5576172c-0.1132813,0.3330078-0.378418,0.7265625,0.1264648,0.9692383
	c0.4638672,0.2226563,0.8999023,0.0576172,1.1411133-0.3413086c0.269043-0.4428711,0.4160156-0.9609375,0.6162109-1.4462891
	c0.1064453-0.2553711,0.2011719-0.7021484,0.4384766-0.6557617c0.7124023,0.1386719,0.8793945-0.4545898,1.2529297-0.7724609
	c0.3637695-0.3095703,0.7514648-0.5581055,1.2636719-0.4677734c0.0927734,0.0146484,0.1855469,0.0292969,0.2783203,0.0444336
	c-0.1025391,0.1137695-0.1835938,0.2939453-0.3056641,0.3325195c-1.3110352,0.4003906-1.7412109,1.4697266-2.059082,2.6386719
	c-0.1391602,0.5205078-0.0551758,1.0117188,0.512207,1.1030273c0.4550781,0.0722656,1.0136719,0.0961914,1.1547852-0.6459961
	c0.097168-0.5029297,0.4711914-0.9365234,0.5239258-1.4726563c0.0175781-0.1958008,0.1523438-0.2675781,0.3095703-0.2861328
	c1.0664063-0.1269531,1.9150391-0.9448242,3.0234375-0.9316406c0.125-0.0039063,0.2607422-0.0439453,0.3701172-0.0068359
	c4.8066406,1.6411133,8.6328125,4.3369141,9.8554688,9.6040039c0.4033203,1.7387695,0.2167969,3.512207-0.4228516,5.2519531
	c-0.3769531,1.0224609-0.4082031,2.1733398-0.5791016,3.269043c-0.1044922,0.6713867-0.0361328,1.3876953-0.5351563,1.9453125
	c-0.1757813,0.1953125-0.1035156,0.3886719-0.0722656,0.609375c0.0947266,0.6464844-0.6982422,4.1772461-1.0888672,4.7475586
	c-0.1640625,0.2363281-0.0546875,0.4023438-0.0234375,0.609375c0.1464844,0.9257813-0.6269531,1.6347656-0.6943359,2.390625
	c-0.0712891,0.8222656,0.1757813,1.640625-0.5351563,2.2890625c-0.2568359,0.234375-0.0673828,0.4550781-0.0537109,0.6875
	c0.0439453,0.7558594,0.1152344,1.53125-0.6386719,2.03125c-0.2080078,0.1386719-0.1640625,0.2597656-0.1132813,0.4648438
	c0.5927734,2.4082031-1.3212891,5.6601563-3.7333984,6.203125c-0.9130859,0.2070313-1.4023438,0.6757813-1.7246094,1.4902344
	c-0.4453125,1.1328125-0.9423828,2.2519531-1.4013672,3.3808594c-0.1533203,0.3769531-0.3310547,0.7226563-0.6630859,0.9746094
	c-0.3115234-0.0625-0.4238281,0.1914063-0.5761719,0.375c-0.6601563,0.7949219-1.1289063,1.7480469-2.1235352,2.3652344
	c0.5849609,0.2382813,0.7631836-0.1152344,0.987793-0.3925781c0.5009766-0.625,0.9355469-1.3046875,1.5791016-1.8027344
	c0.3623047,0.0683594,0.3251953,0.3613281,0.28125,0.5917969c-0.1357422,0.7070313-0.1757813,1.5117188-0.6835938,2.0214844
	c-1.1210938,1.1210938-0.6025391,2.2421875-0.2441406,3.4414063c0.5244141,1.734375,0.6728516,3.5488281,0.9140625,5.3417969
	c0.0136719,0.0917969-0.1113281,0.2011719-0.1728516,0.3027344c-0.2285156-0.1347656-0.1835938-0.3789063-0.2353516-0.5839844
	c-0.3759766-1.4550781-0.7480469-2.9121094-1.1230469-4.3691406c-0.0634766-0.2480469-0.1318359-0.5429688-0.453125-0.4941406
	c-0.3769531,0.0585938-0.2431641,0.4023438-0.2041016,0.6132813c0.3134766,1.6914063,0.6181641,3.3847656,0.9853516,5.0644531
	c0.3984375,1.8242188,1.1015625,3.5722656,1.3710938,5.4316406c0.1855469,1.265625,0.3457031,2.5390625,0.4648438,3.8144531
	c0.0449219,0.46875,0.1865234,0.1777344,0.3271484,0.1015625c0.4511719,1.3964844,0.1845703,2.8320313,0.2041016,4.2519531
	c0.0019531,0.1835938-0.2587891,0.4589844-0.4589844,0.546875c-1.0664063,0.4707031-1.8720703,1.3457031-2.9042969,1.8574219
	c-0.453125,0.2246094-0.6513672,0.5292969-0.6113281,1.0351563c0.0693359,0.8632813-0.1367188,1.6171875-0.9462891,2.0976563
	c-0.4770508,0.28125-0.3486328,0.7636719-0.3486328,1.1875c0,10.0273438,0.0053711,20.0527344,0.0087891,30.0820313
	c0,1.2519531,0.0073242,2.5039063,0.0097656,3.7597656c-0.1879883,0-0.3769531,0-0.5644531,0
	c-0.0131836-3.7929688-0.0336914-7.5859375-0.0356445-11.3808594c-0.0053711-7.4296875,0.0063477-14.8632813-0.0185547-22.2929688
	c-0.0014648-0.2558594,0.3730469-0.828125-0.3432617-0.8222656c-0.59375,0.0058594-0.8203125,0.3320313-0.7348633,0.9160156
	c0.0371094,0.2460938,0.0073242,0.5,0.0073242,0.7519531c-0.0019531,10.9394531-0.0039063,21.8847656-0.0053711,32.828125
	c-0.1245117,0-0.2504883,0-0.375,0c-0.003418-6.7949219-0.0078125-13.5859375-0.0092773-20.3808594
	c0-4.3535156,0.0068359-8.7050781-0.0170898-13.0566406c-0.0019531-0.1933594,0.3344727-0.6621094-0.2724609-0.6445313
	c-1.6108398-0.796875-2.2109375-0.4609375-2.2070313,1.2402344c0.0078125,5.3027344,0.0112305,10.6035156,0.0209961,15.9042969
	c0.0087891,5.6464844,0.0239258,11.2910156,0.0366211,16.9375c-0.3134766,0-0.6274414,0-0.940918,0
	c0.0073242-0.09375,0.0205078-0.1894531,0.0205078-0.2832031c0.0014648-11.1875,0.0014648-22.3808594,0-33.5683594
	c0-0.2148438,0.0556641-0.4453125-0.2104492-0.7207031c0,11.5859375,0,23.078125,0,34.5722656
	C43.2944336,114.7797852,43.1069336,114.7797852,42.9179688,114.7797852z M47.4335938,52.8540039
	c-0.1020508-0.7871094,0.5180664-0.2871094,0.8706055-0.4648438c-0.4545898-0.7304688-1.3100586-0.4414063-1.8432617-0.8398438
	c-0.1875,0.6152344,0.4995117,0.6914063,0.6088867,1.1054688c-0.2709961,0.0644531-0.7387695-0.1289063-0.7280273,0.34375
	c0.019043,0.7128906-0.3505859,0.8125-0.9238281,0.8027344c-0.2451172-0.0019531-0.4643555,0.1679688-0.4829102,0.6523438
	c1.3164063-0.3085938,2.6245117-0.3398438,3.9350586-0.3085938c0.2485352,0.0058594,0.6757813,0.1601563,0.7163086-0.2011719
	c0.0429688-0.3769531-0.25-0.6015625-0.6679688-0.7558594C48.4282227,53.0083008,47.8530273,53.2680664,47.4335938,52.8540039z
	 M56.5375977,40.7055664c0.9111328,0.15625,1.4589844-0.0742188,1.9189453-0.546875
	c1.0341797-1.0546875,1.3974609-2.4394531,1.5615234-3.8085938c0.1552734-1.296875,0.6484375-2.4824219,0.9179688-3.734375
	c0.2587891-1.1972656,0.5683594-2.4101563,0.8710938-3.6074219c0.3574219-1.4199219,0.6757813-2.859375,0.9277344-4.3139648
	c0.4082031-2.3652344,1.1572266-4.671875,1.3222656-7.0898438c0.0244141-0.3642578,0.1201172-0.7353516,0.2490234-1.0791016
	c0.8427734-2.2568359,0.6162109-4.4428711-0.4013672-6.5810547C63.871582,9.875,63.8305664,9.6987305,63.6186523,9.8398438
	c0.1904297,1.1269531,0.2382813,2.2817383,0.2138672,3.4399414c-0.0078125,0.3452148,0.0039063,0.6743164-0.5048828,0.4584961
	c-0.6367188-0.2680664-0.5751953,0.1928711-0.5927734,0.5717773c-0.0273438,0.6308594,0.4482422,1.090332,0.5722656,1.675293
	c0.0888672,0.4111328,0.1416016,0.7280273-0.4472656,0.5336914c-0.65625-0.2163086-0.6386719,0.2216797-0.65625,0.6518555
	c-0.0195313,0.480957,0.3007813,0.8012695,0.5039063,1.1845703c0.15625,0.2998047,0.4658203,0.7128906-0.2353516,0.8203125
	c-0.9482422,0.1459961-1.1669922,0.6552734-0.6318359,1.4824219c0.2509766,0.3862305,0.6503906,0.7080078,0.4013672,1.2353516
	c-0.3330078,0.1699219-0.5957031-0.6162109-0.9990234,0.0185547c-0.3183594,0.5029297-0.2822266,0.9228516-0.0625,1.3759766
	c0.1328125,0.2744141,0.4228516,0.4765625,0.4589844,0.8046875c0.0283203,0.2851563,0.0390625,0.6669922-0.4121094,0.4365234
	c-0.5664063-0.2890625-0.65625,0.2060547-0.8261719,0.4677734c-0.2089844,0.3222656-0.2441406,0.6875,0.1015625,1.0117188
	c0.2470703,0.2319336,0.5107422,0.4936523,0.6347656,0.7983398c0.1328125,0.3222656,0.1425781,0.7753906-0.4492188,0.5175781
	c-0.5644531-0.2460938-0.6357422,0.1445313-0.7617188,0.5019531c-0.2011719,0.5722656,0.0742188,1.0195313,0.3486328,1.4902344
	c0.3203125,0.5546875,0.2128906,0.7851563-0.4072266,0.7558594c-0.3847656-0.0175781-0.4248047,0.1992188-0.4873047,0.4140625
	c-0.1455078,0.5-0.0869141,0.9589844,0.2011719,1.4335938c0.2099609,0.34375,0.4345703,0.8242188-0.3251953,0.9570313
	c-0.4121094,0.0722656-0.5068359,0.4511719-0.5761719,0.8574219c-0.0976563,0.5566406,0.4345703,0.9375,0.3710938,1.3925781
	C58.7758789,37.1489258,58.737793,39.2895508,56.5375977,40.7055664z M46.3198242,34.527832
	c-0.0444336,0.8164063,0.1879883,1.5917969,0.5996094,2.2421875c1.0917969,1.7148438,2.043457,3.6640625,4.5322266,3.6640625
	c0.2275391,0,0.5556641,0.125,0.6669922-0.1738281c0.1064453-0.2851563-0.2607422-0.2851563-0.3916016-0.4355469
	c-1.6264648-1.90625-3.6865234-3.5898438-2.9995117-6.5761719c0.1464844-0.6445313-0.3569336-1.0488281-0.9985352-1.1132813
	c-0.5981445-0.0625-1.1254883,0.0546875-1.2070313,0.8105469C46.4643555,33.4750977,46.3886719,34.0004883,46.3198242,34.527832z
	 M53.5786133,5.9526367c0.8164063-0.0097656,1.8544922-1.0874023,1.8222656-1.8081055
	c-0.0087891-0.1464844-1.3095703-1.0063477-1.4990234-0.9897461c-0.375,0.0341797-1.2412109,1.402832-1.2558594,1.9814453
	C52.6264648,5.8540039,53.1469727,5.8999023,53.5786133,5.9526367z M50.3666992,52.5493164
	c-0.2006836-0.4257813-0.559082-0.6816406-0.8989258-0.9453125c-0.1333008-0.1035156-0.2768555-0.2871094-0.4916992-0.1640625
	c-0.2026367,0.1152344-0.15625,0.3242188-0.1577148,0.5039063c-0.0039063,0.1894531,1.1728516,1,1.3232422,0.9042969
	C50.2382813,52.7875977,50.2885742,52.6567383,50.3666992,52.5493164z M43.4130859,53.5668945
	c-0.0727539,0.0351563-0.1186523,0.0605469-0.1669922,0.0839844c0.0483398,0.046875,0.0888672,0.109375,0.1484375,0.1328125
	c0.0336914,0.0136719,0.0927734-0.0390625,0.1411133-0.0644531C43.4946289,53.668457,43.4521484,53.6176758,43.4130859,53.5668945z
	 M46.0214844,32.3793945c0.0107422-0.0488281,0.0185547-0.078125,0.0239258-0.1054688
	c-0.0151367,0.0058594-0.043457,0.0117188-0.043457,0.0175781C46.0009766,32.3129883,46.0097656,32.3364258,46.0214844,32.3793945z"
	/>
<path fill-rule="evenodd" clip-rule="evenodd" fill="#FFFFFF" d="M47.4355469,114.7797852
	c0.0014648-10.9433594,0.003418-21.8886719,0.0053711-32.828125c0-0.2519531,0.0297852-0.5058594-0.0073242-0.7519531
	c-0.0854492-0.5839844,0.1411133-0.9101563,0.7348633-0.9160156c0.7163086-0.0058594,0.3417969,0.5664063,0.3432617,0.8222656
	c0.0249023,7.4296875,0.0131836,14.8632813,0.0185547,22.2929688c0.0019531,3.7949219,0.0224609,7.5878906,0.0356445,11.3808594
	C48.1889648,114.7797852,47.8125,114.7797852,47.4355469,114.7797852z"/>
<path fill-rule="evenodd" clip-rule="evenodd" fill="#FFFFFF" d="M46.7636719,88.2211914
	c-0.0039063-0.4296875-0.0073242-0.8613281-0.0092773-1.2910156c0.2451172-1.203125,0.2202148-2.40625,0.0053711-3.6054688
	c0-0.3066406,0-0.6113281,0-0.9140625c0.2246094-0.4492188,0.2285156-0.8964844-0.003418-1.3457031
	c0.0014648-0.1210938,0.003418-0.2441406,0.0053711-0.3671875c0.6069336-0.0175781,0.2705078,0.4511719,0.2724609,0.6445313
	c0.0239258,4.3515625,0.0170898,8.703125,0.0170898,13.0566406c0.0014648,6.7949219,0.0058594,13.5859375,0.0092773,20.3808594
	c-0.0629883,0-0.1264648,0-0.1894531,0c0.0092773-3.5976563,0.0185547-7.1914063,0.0263672-10.7871094
	c0-0.1855469,0.0161133-0.3769531-0.1396484-0.5234375c0.0019531-0.1796875,0.0019531-0.3574219,0.0019531-0.5390625
	c0.0444336-0.0800781,0.1245117-0.1582031,0.1245117-0.2382813c0.0053711-3.1132813,0.003418-6.2246094-0.0019531-9.3378906
	c0-0.078125-0.0800781-0.1582031-0.1225586-0.2402344c0-0.5527344-0.0019531-1.1113281-0.003418-1.6660156
	C46.9941406,90.371582,46.984375,89.2954102,46.7636719,88.2211914z"/>
<path fill-rule="evenodd" clip-rule="evenodd" fill="#FFFFFF" d="M43.4814453,114.7797852c0-11.4941406,0-22.9863281,0-34.5722656
	c0.2661133,0.2753906,0.2104492,0.5058594,0.2104492,0.7207031c0.0014648,11.1875,0.0014648,22.3808594,0,33.5683594
	c0,0.09375-0.0131836,0.1894531-0.0205078,0.2832031C43.6083984,114.7797852,43.5444336,114.7797852,43.4814453,114.7797852z"/>
<path fill-rule="evenodd" clip-rule="evenodd" fill="#E3E3E2" d="M60.0844727,90.3540039
	c0.1152344,0.1074219,0.1025391,0.25,0.1025391,0.3867188c-0.0058594,2.6523438-0.0126953,5.3066406-0.0195313,7.9589844
	c-0.0458984,0-0.0927734,0-0.1376953,0c0-2.484375-0.0029297-4.96875,0.0009766-7.4570313
	C60.0307617,90.9458008,60.065918,90.6508789,60.0844727,90.3540039z"/>
<path fill-rule="evenodd" clip-rule="evenodd" fill="#E3E3E2" d="M41.5126953,57.1606445
	c0.0444336,0.0449219,0.0869141,0.0859375,0.1318359,0.1269531c0.3989258-0.8769531,1.0834961-0.4589844,1.6831055-0.3574219
	c0.8637695,0.1484375,1.7211914,0.3300781,2.5800781,0.4960938c0.3623047,0.0683594,0.612793,0.1777344,0.5976563,0.6542969
	c-0.0463867,1.5976563-0.0292969,3.1933594-0.0649414,4.7871094c-0.0053711,0.265625,0.0556641,0.6621094-0.2060547,0.7734375
	c-0.3149414,0.1308594-0.590332-0.1757813-0.7817383-0.4140625c-0.6064453-0.7519531-1.5996094-0.2988281-2.293457-0.765625
	c-0.0336914-0.0214844-0.1899414,0.0585938-0.2119141,0.1191406c-0.0595703,0.1582031-0.0073242,0.3300781,0.1499023,0.3964844
	c0.2866211,0.1171875,0.5883789,0.1972656,0.878418,0.2910156c-0.6459961,0.5390625-1.3569336,0.5039063-2.0454102,0.1054688
	c-0.2856445-0.1601563-0.4580078-0.0566406-0.6772461,0.0507813c-0.0888672-0.7617188,0.5102539-1.4199219,0.3374023-2.1914063
	c0.2641602-0.7753906,0.4770508-1.5488281-0.105957-2.2832031C41.3974609,58.3500977,41.2954102,57.7524414,41.5126953,57.1606445z
	 M43.5693359,58.9418945c0.159668,0.3183594,0.277832,0.5878906,0.4248047,0.8457031
	c0.1191406,0.2089844,0.2861328,0.3125,0.534668,0.1542969c0.1630859-0.1035156,0.3398438-0.2089844,0.2543945-0.421875
	c-0.0708008-0.1777344-0.2670898-0.3339844-0.4438477-0.2246094C43.9091797,59.5571289,43.8789063,59.0571289,43.5693359,58.9418945
	z"/>
<path fill-rule="evenodd" clip-rule="evenodd" fill="#E3E3E2" d="M41.237793,65.996582
	c1.1323242,0.1347656,1.9526367,1.0566406,3.0981445,1.1992188c0.4882813,0.0644531,0.7792969,0.140625,0.7236328-0.5
	c-0.0224609-0.2421875,0.0649414-0.4960938,0.1240234-0.7382813c0.0986328-0.4160156,0.4550781-0.5234375,0.7944336-0.5175781
	c0.4472656,0.0058594,0.2822266,0.4082031,0.2973633,0.6503906c0.1357422,2.0917969,0.0151367,4.1855469-0.0053711,6.2792969
	c-0.0053711,0.546875-0.1694336,0.7285156-0.7294922,0.5664063c-0.9594727-0.2773438-1.9438477-0.4765625-2.9033203-0.7597656
	c-0.4399414-0.1269531-1.1269531-0.0449219-1.0151367-0.859375c-0.1171875,0.0117188-0.2333984,0.0253906-0.3525391,0.0351563
	c-0.0576172-0.3320313-0.1650391-0.6738281,0.1225586-0.9609375c0.2041016,0.0234375,0.3525391,0.0058594,0.3339844-0.2695313
	c-0.0332031-0.5136719-0.0483398-1.0292969-0.0668945-1.5449219c-0.0078125-0.1914063-0.0078125-0.3828125-0.0112305-0.5742188
	c0.0019531,0.1875,0.1577148,0.4433594-0.2094727,0.46875C40.9667969,67.6782227,41.3862305,66.8149414,41.237793,65.996582z"/>
<path fill-rule="evenodd" clip-rule="evenodd" fill="#E3E3E2" d="M46.1289063,8.78125
	c2.925293,0.2407227,5.8745117,0.331543,8.6938477,1.2910156c-0.6835938,0.0200195-0.3193359,0.6928711-0.6015625,0.9624023
	c-2.3427734-0.6992188-4.7626953-0.925293-7.1811523-1.1513672c-0.0263672-0.1123047,0.0039063-0.2744141-0.159668-0.284668
	c-0.1762695-0.0102539-0.1357422,0.1616211-0.168457,0.2661133c-0.1469727,0.0976563-0.2866211,0.1010742-0.4179688-0.027832
	c-0.0371094-0.1835938-0.1245117-0.3554688-0.3320313-0.2670898c-0.1748047,0.0751953,0.0292969,0.1655273,0.0498047,0.253418
	c-0.0019531,0.1679688-0.1357422,0.2207031-0.2519531,0.2880859c-0.5776367,0.0102539-1.152832-0.168457-1.7324219-0.012207
	c-0.027832-0.0932617-0.0551758-0.1870117-0.081543-0.28125c0.2456055-0.0336914,0.4887695-0.0883789,0.7329102-0.0981445
	C45.6499023,9.6821289,45.6499023,9.6875,45.1650391,8.78125C45.5068359,8.78125,45.8173828,8.78125,46.1289063,8.78125z"/>
<path fill-rule="evenodd" clip-rule="evenodd" fill="#E3E3E2" d="M44.6845703,7.7192383
	C44.5625,8.6826172,43.9926758,8.8710938,43.0883789,8.8271484c-0.9462891-0.0458984-1.9155273-0.1479492-2.8657227,0.0742188
	c-0.2993164,0.0703125-0.453125-0.1669922-0.6069336-0.3486328c-0.4824219-0.5693359-0.1132813-2.3964844,0.565918-2.8515625
	c0.0019531-0.0004883-0.0424805-0.0341797-0.0424805-0.0341797c0.2836914,0.5776367-0.2060547,1.0786133-0.1518555,1.659668
	c1.0073242,0.230957,1.9765625-0.4594727,2.9936523-0.1835938c-0.0727539,0.0532227-0.1450195,0.1083984-0.2192383,0.159668
	c-0.1767578,0.1210938-0.5883789,0.0292969-0.4897461,0.3881836c0.081543,0.3056641,0.3857422,0.1904297,0.6269531,0.1396484
	c0.5664063-0.1196289,1.1582031,0.0371094,1.7148438-0.171875L44.6845703,7.7192383z"/>
<path fill-rule="evenodd" clip-rule="evenodd" fill="#E3E3E2" d="M40.6733398,24.8173828
	c0.0859375,0.9589844-0.3168945,1.3706055-1.3100586,1.2924805c-1.2124023-0.0932617-2.4228516-0.0795898-3.3930664-1.0170898
	c-0.5917969-0.5742188-0.2563477-1.0839844,0.0073242-1.5996094c0.1152344-0.2236328,0.4438477-0.2832031,0.4882813,0.0146484
	c0.1816406,1.2470703,1.0410156,0.8388672,1.7597656,0.7646484c0.2172852-0.0214844,0.4248047-0.1074219,0.6328125,0.0234375
	c-0.0097656,0.2363281-0.4287109,0.21875-0.3344727,0.46875c0.0839844,0.2207031,0.3432617,0.2441406,0.559082,0.1933594
	C39.6083984,24.8349609,40.159668,25.0449219,40.6733398,24.8173828z"/>
<path fill-rule="evenodd" clip-rule="evenodd" fill="#E3E3E2" d="M46.8657227,11.7978516
	c2.4316406,0.112793,4.8388672,0.3847656,7.171875,1.1245117c-0.7373047-0.0136719-0.5849609,0.5136719-0.5761719,0.9516602
	c-1.7314453-0.5-3.5297852-0.6235352-5.2851563-0.9790039c-0.4140625-0.6616211-1.2680664-0.2197266-1.7802734-0.7260742
	C46.5556641,12.0439453,46.7094727,11.9204102,46.8657227,11.7978516z"/>
<path fill-rule="evenodd" clip-rule="evenodd" fill="#E3E3E2" d="M39.8383789,27.8969727
	c0.3173828,0.8496094-0.0258789,1.1191406-0.8691406,1.0820313c-1.2558594-0.0527344-2.4902344-0.1015625-3.5170898-0.9804688
	c-0.4897461-0.4199219-0.5092773-0.8867188-0.2739258-1.4296875c0.09375-0.2148438,0.2241211-0.4277344,0.465332-0.3945313
	c0.3916016,0.0507813,0.0615234,0.3496094,0.1279297,0.4960938c0.3232422,0.7265625,1.0039063,0.5195313,1.5834961,0.5449219
	c0.347168,0.015625,0.6958008-0.3613281,1.0463867,0.0019531c-0.03125,0.296875-0.4619141,0.1347656-0.6347656,0.5664063
	C38.5893555,27.4418945,39.1679688,28.027832,39.8383789,27.8969727z"/>
<path fill-rule="evenodd" clip-rule="evenodd" fill="#E3E3E2" d="M40.9482422,18.9458008
	c0.4750977,0.2583008,0.3862305,0.7055664,0.2602539,1.0639648c-0.1225586,0.3447266-0.5307617,0.2329102-0.8334961,0.2734375
	c-0.8374023,0.1123047-1.6499023-0.1708984-2.4946289-0.1328125c-0.4658203,0.0205078-0.8706055-0.4799805-0.9594727-1.0083008
	c-0.0859375-0.4990234-0.046875-1.0141602,0.3950195-1.3730469c0.1542969-0.1245117,0.4506836-0.1445313,0.4375,0.0942383
	c-0.0605469,1.2548828,0.8261719,0.6000977,1.3256836,0.6630859c0.2211914,0.0273438,0.4770508-0.2094727,0.6459961,0.1181641
	c-0.0830078,0.1025391-0.1689453,0.2045898-0.2524414,0.3081055C39.9643555,18.8803711,40.4604492,19.4819336,40.9482422,18.9458008
	z"/>
<path fill-rule="evenodd" clip-rule="evenodd" fill="#E3E3E2" d="M50.7988281,25.5839844
	c-1.6782227-0.3193359-3.3564453-0.6376953-5.0356445-0.9560547c-0.1225586-0.2001953-0.2509766-0.2792969-0.3955078-0.0205078
	c-0.1318359,0.0976563-0.2602539,0.1083984-0.378418-0.0205078c0.1757813-0.3291016,0.2705078-0.7080078,0.5805664-0.9541016
	c1.8540039,0.1201172,3.6972656,0.2939453,5.4482422,0.9775391C50.9453125,24.9355469,50.8725586,25.2587891,50.7988281,25.5839844z
	"/>
<path fill-rule="evenodd" clip-rule="evenodd" fill="#E3E3E2" d="M52.6665039,16.7519531
	c-1.6210938-0.3081055-3.2431641-0.6166992-4.8637695-0.9248047c-0.0610352-0.1494141-0.1430664-0.1308594-0.2319336-0.0244141
	c-0.2524414,0.1123047-0.484375,0.050293-0.7109375-0.0776367c-0.0576172-0.3115234-0.1152344-0.6225586-0.1728516-0.9335938
	c2.0566406,0.0732422,4.0878906,0.3164063,6.0605469,0.9311523c-0.0595703,0.0834961-0.3085938,0.1142578-0.2265625,0.1523438
	C53.0249023,16.1142578,52.5776367,16.4731445,52.6665039,16.7519531z"/>
<path fill-rule="evenodd" clip-rule="evenodd" fill="#E3E3E2" d="M41.9804688,16.3154297
	c-0.6538086,0.9609375-1.5444336,1.3364258-2.6660156,0.996582c-0.4951172-0.1499023-1.0888672,0.3125-1.5141602-0.3608398
	c-0.3486328-0.5527344-0.402832-1.4389648,0.0761719-1.8808594c0.1538086-0.1430664,0.4848633-0.324707,0.456543,0.0395508
	c-0.0932617,1.2006836,0.7963867,0.4658203,1.2006836,0.6411133c0.2807617,0.1206055,0.6293945-0.359375,0.940918,0.0249023
	c-0.2592773,0.1367188-0.5195313,0.2744141-1.0244141,0.5395508C40.4672852,16.3154297,41.2246094,16.3154297,41.9804688,16.3154297
	z M39.1386719,16.2705078c-0.2900391,0.1064453-0.6923828-0.0996094-0.8393555,0.3291016
	c-0.0126953,0.0400391,0.0449219,0.1459961,0.081543,0.1547852C38.7856445,16.8457031,38.8803711,16.4360352,39.1386719,16.2705078z
	"/>
<path fill-rule="evenodd" clip-rule="evenodd" fill="#E3E3E2" d="M41.3862305,21.9287109
	c-0.0053711,0.9160156-0.3950195,1.3271484-1.3735352,1.2265625c-0.8647461-0.0869141-1.7348633-0.0869141-2.5913086-0.2695313
	c-0.9985352-0.2109375-1.456543-1.2226563-0.9462891-2.1030273c0.0800781-0.1376953,0.1616211-0.2841797,0.3452148-0.2617188
	c0.2373047,0.0273438,0.1708984,0.1972656,0.1396484,0.3491211c-0.0966797,0.4619141,0.2109375,0.5273438,0.5493164,0.5371094
	c0.2705078,0.0078125,0.5078125,0.0351563,0.5004883,0.390625c-0.1220703,0.0136719-0.2446289,0.0214844-0.3671875,0.0429688
	c-0.2319336,0.0390625-0.515625-0.0878906-0.6738281,0.1816406c-0.0283203,0.0478516,0.0371094,0.1738281,0.0888672,0.2431641
	c0.2485352,0.3310547,0.5297852,0.1044922,0.7426758-0.0214844c0.3579102-0.2080078,0.7480469-0.3916016,1.1245117-0.2929688
	C39.7602539,22.1679688,40.5678711,21.9892578,41.3862305,21.9287109z"/>
<path fill-rule="evenodd" clip-rule="evenodd" fill="#E3E3E2" d="M43.2905273,13.2963867
	c0.0336914,0.9711914-0.4189453,1.2021484-1.3754883,1.2026367c-0.8945313,0.0014648-1.7758789-0.3828125-2.6821289-0.0712891
	c-0.2705078,0.09375-0.4580078-0.1518555-0.5136719-0.4243164c-0.0649414-0.3105469,0.0273438-0.6494141,0.328125-0.6899414
	c0.828125-0.112793,1.5834961-0.5512695,2.4389648-0.5117188c-0.0551758,0.0708008-0.1000977,0.1523438-0.168457,0.2099609
	c-0.1689453,0.1435547-0.5664063,0.1264648-0.4511719,0.4667969c0.1020508,0.3041992,0.4306641,0.0864258,0.6196289,0.140625
	C42.1660156,13.8129883,42.6870117,13.3642578,43.2905273,13.2963867z"/>
<path fill-rule="evenodd" clip-rule="evenodd" fill="#E3E3E2" d="M35.784668,36.4223633
	c0.3989258-0.5117188-0.1489258-0.8203125-0.2836914-1.203125c-0.25-0.703125-0.7177734-1.34375-0.5043945-2.1542969
	c0.2675781,0.1367188,0.081543,0.5761719,0.487793,0.6679688c0.2597656-0.3632813,0.0366211-0.9121094,0.409668-1.2382813
	c-0.4545898,2.7929688,1.3198242,4.5449219,2.9643555,6.3574219C37.6132813,38.3208008,36.5917969,37.5063477,35.784668,36.4223633z
	"/>
<path fill-rule="evenodd" clip-rule="evenodd" fill="#E3E3E2" d="M40.2631836,11.324707
	c0.6035156-0.4829102,1.90625-0.6538086,2.4257813-0.2392578c0.2099609,0.1665039,0.2563477,0.0576172,0.3325195-0.0405273
	c0.2211914-0.2880859,0.5795898-0.3422852,0.8574219-0.5263672c0.1152344,0.8286133-0.1967773,1.2114258-1.078125,1.125
	c-0.5805664-0.0561523-1.1713867,0.0058594-1.7573242-0.0136719C40.7592773,11.6196289,40.3969727,11.7451172,40.2631836,11.324707z
	"/>
<path fill-rule="evenodd" clip-rule="evenodd" fill="#E3E3E2" d="M41.5366211,10.0688477
	c-0.3725586,0.5209961-1.0078125,0.5576172-1.5297852,0.7041016c-0.4375,0.125-0.3969727,0.3413086-0.4262695,0.6225586
	c-0.4887695,0.1010742-0.7055664-0.2167969-0.7851563-0.597168c-0.1137695-0.5429688,0.0273438-1.0322266,0.5004883-1.4038086
	c0.3051758,0.3198242-0.1411133,0.5439453,0.0131836,0.8520508C40.0351563,10.2211914,40.7753906,9.9545898,41.5366211,10.0688477z"
	/>
<path fill-rule="evenodd" clip-rule="evenodd" fill="#E3E3E2" d="M47.8232422,12.875
	c-0.6435547-0.0209961-1.293457,0.0146484-1.9267578-0.0820313c-0.5068359-0.078125-0.7163086,0.152832-0.8867188,0.5385742
	c-0.3769531-0.8325195-1.09375-0.2695313-1.6391602-0.4023438c-0.2602539-0.1450195-0.6088867,0.0678711-0.8334961-0.2089844
	c1.2416992-0.3745117,2.5117188-0.1591797,3.762207-0.1040039C46.7910156,12.6376953,47.3632813,12.5263672,47.8232422,12.875z"/>
<path fill-rule="evenodd" clip-rule="evenodd" fill="#E3E3E2" d="M50.0595703,21.2407227
	c0.5458984-0.0205078,1.0625,0.105957,1.5600586,0.3227539c0.0048828,0.2011719-0.7001953-0.2368164-0.3051758,0.3515625
	c0.1225586,0.1826172,0.0727539,0.4785156,0.1010742,0.7246094c-0.3920898-0.1171875-0.7841797-0.234375-1.1757813-0.3496094
	C50.234375,21.9306641,50.3046875,21.5576172,50.0595703,21.2407227z"/>
<path fill-rule="evenodd" clip-rule="evenodd" fill="#E3E3E2" d="M46.4926758,7.0576172
	c0.03125,0.1777344,0.0332031,0.3422852-0.1767578,0.4189453c-0.6049805-0.328125-1.1821289-0.4760742-1.6313477,0.2426758
	l-0.0708008-0.0605469c0.046875-0.2695313,0.0336914-0.4829102-0.3374023-0.4648438
	c-0.2670898,0.012207-0.5493164,0.0727539-0.7983398-0.0947266C44.4770508,6.6918945,45.484375,6.8295898,46.4926758,7.0576172z"/>
<path fill-rule="evenodd" clip-rule="evenodd" fill="#E3E3E2" d="M47.8027344,1.8242188
	c-0.3930664-0.1972656,1.0561523-0.3764648,0.0053711-0.5810547c0.7612305-0.3261719,1.5185547-0.3300781,2.2739258,0.0234375
	C49.3950195,1.7504883,48.5991211,1.7890625,47.8027344,1.8242188z"/>
<path fill-rule="evenodd" clip-rule="evenodd" fill="#E3E3E2" d="M45.3637695,26.6665039
	c0.2041016-0.0898438,0.3974609-0.0429688,0.5869141,0.046875c0.1132813,0.3496094,0.5546875,0.578125,0.3779297,1.0332031
	c-0.519043,0.0292969-1.0410156,0.0761719-1.543457-0.1210938C45.2617188,27.4770508,45.3432617,27.0883789,45.3637695,26.6665039z"
	/>
<path fill-rule="evenodd" clip-rule="evenodd" fill="#E3E3E2" d="M47.6064453,21.8115234
	c-0.6240234-0.0908203-1.2714844,0.046875-1.8769531-0.2128906c0.1821289-0.15625,0.5610352,0.1181641,0.6220703-0.2324219
	c0.1000977-0.5644531,0.512207-0.3525391,0.7978516-0.331543C47.6137695,21.0703125,47.6303711,21.4462891,47.6064453,21.8115234z"
	/>
<path fill-rule="evenodd" clip-rule="evenodd" fill="#E3E3E2" d="M46.6704102,17.8574219
	c0.3901367-0.0776367,0.7783203-0.1708984,1.1660156,0.003418c0.0556641,0.0498047,0.1108398,0.1010742,0.1669922,0.1518555
	l-0.0039063-0.0024414c0.0390625,0.2792969-0.0405273,0.5307617-0.1889648,0.7641602
	c-0.2617188,0.0683594-0.5180664,0.0488281-0.7666016-0.0507813C47.0268555,18.3886719,46.5522461,18.25,46.6704102,17.8574219z"/>
<path fill-rule="evenodd" clip-rule="evenodd" fill="#E3E3E2" d="M45.5439453,1.8286133
	c0.0131836-0.1044922,0.0239258-0.2094727,0.0371094-0.3134766c0.5644531-0.3876953,1.1699219-0.2973633,1.777832-0.1420898
	C46.8598633,1.9472656,46.1430664,1.6582031,45.5439453,1.8286133z"/>
<path fill-rule="evenodd" clip-rule="evenodd" fill="#E3E3E2" d="M42.1376953,16.1352539l-0.003418,0.0058594
	c0.4863281,0.1689453,0.9316406-0.3461914,1.4277344-0.0083008C43.0810547,16.0039063,42.659668,17.0053711,42.1376953,16.1352539z"
	/>
<path fill-rule="evenodd" clip-rule="evenodd" fill="#E3E3E2" d="M43.1181641,24.3798828
	c-0.1782227,0.015625-0.3564453,0.0302734-0.5332031,0.0449219c-0.4189453-0.1621094-0.8217773,0.3378906-1.3896484-0.0371094
	C41.9208984,24.1826172,42.5131836,24.1113281,43.1181641,24.3798828z"/>
<path fill-rule="evenodd" clip-rule="evenodd" fill="#E3E3E2" d="M44.246582,27.574707
	c-0.7719727,0.1210938-1.5126953-0.1933594-2.2758789-0.1601563C42.7636719,26.980957,43.4946289,27.4145508,44.246582,27.574707z"
	/>
<path fill-rule="evenodd" clip-rule="evenodd" fill="#E3E3E2" d="M36.9057617,30.9711914
	c-0.269043,0.1757813-0.5361328,0.3535156-0.8056641,0.53125c-0.2246094-0.3984375,0.0610352-0.5585938,0.3417969-0.7050781
	C36.6474609,30.6860352,36.8613281,30.621582,36.9057617,30.9711914z"/>
<path fill-rule="evenodd" clip-rule="evenodd" fill="#E3E3E2" d="M44.9848633,47.5766602
	c0.2695313,0.0058594,0.4677734-0.3125,0.7651367-0.1660156C45.5537109,47.730957,45.4008789,48.262207,44.9848633,47.5766602z"/>
<path fill-rule="evenodd" clip-rule="evenodd" fill="#E3E3E2" d="M53.2485352,61.699707
	c-0.2519531-0.2285156-0.2421875-0.5-0.1220703-0.7890625C53.5268555,61.1196289,53.5200195,61.3891602,53.2485352,61.699707z"/>
<path fill-rule="evenodd" clip-rule="evenodd" fill="#E3E3E2" d="M37.9335938,34.3598633
	c0.0893555,0.265625,0.1083984,0.5351563,0.0317383,0.8066406C37.4160156,34.918457,37.4213867,34.6489258,37.9335938,34.3598633z"
	/>
<path fill-rule="evenodd" clip-rule="evenodd" fill="#E3E3E2" d="M53.9790039,67.3520508
	c-0.265625-0.2382813-0.2617188-0.5-0.0751953-0.78125C54.2661133,66.7993164,54.2729492,67.0629883,53.9790039,67.3520508z"/>
<path fill-rule="evenodd" clip-rule="evenodd" fill="#E3E3E2" d="M53.7963867,65.6567383
	c-0.2929688-0.2910156-0.2207031-0.6269531-0.1337891-0.9707031C53.8920898,64.9848633,54.1674805,65.2758789,53.7963867,65.6567383
	z"/>
<path fill-rule="evenodd" clip-rule="evenodd" fill="#E3E3E2" d="M41.4365234,55.6293945
	c0.2172852,0.3144531,0.2041016,0.6464844,0.0834961,0.9882813C41.3232422,56.3032227,41.3955078,55.9672852,41.4365234,55.6293945z
	"/>
<path fill-rule="evenodd" clip-rule="evenodd" fill="#E3E3E2" d="M38.7563477,30.9848633
	c-0.1298828,0.1992188-0.3007813,0.3476563-0.5327148,0.4160156C38.1865234,30.9868164,38.4448242,30.9516602,38.7563477,30.9848633
	z"/>
<path fill-rule="evenodd" clip-rule="evenodd" fill="#E3E3E2" d="M44.25,24.5244141
	c-0.3300781,0.0585938-0.6601563,0.1171875-0.9541016-0.1171875C43.625,24.3642578,43.9570313,24.2861328,44.25,24.5244141z"/>
<path fill-rule="evenodd" clip-rule="evenodd" fill="#E3E3E2" d="M53.5981445,64.152832
	c-0.1826172-0.0820313-0.2148438-0.21875-0.1464844-0.3945313C53.652832,63.8325195,53.9223633,63.8813477,53.5981445,64.152832z"/>
<path fill-rule="evenodd" clip-rule="evenodd" fill="#E3E3E2" d="M40.5678711,31.9086914
	c0.050293,0.1582031,0.0576172,0.3046875-0.0942383,0.4160156C40.2055664,32.1176758,40.2949219,31.9926758,40.5678711,31.9086914z"
	/>
<path fill-rule="evenodd" clip-rule="evenodd" fill="#E3E3E2" d="M45.1191406,49.355957
	c-0.105957-0.0273438-0.2099609-0.0527344-0.3154297-0.078125c0.0180664-0.1367188,0.0126953-0.3378906,0.190918-0.3222656
	C45.2543945,48.980957,45.1523438,49.1938477,45.1191406,49.355957z"/>
<path fill-rule="evenodd" clip-rule="evenodd" fill="#E3E3E2" d="M44.7905273,15.6796875
	c-0.0595703,0.0888672-0.1206055,0.1762695-0.1801758,0.2646484c-0.1298828-0.0610352-0.1889648-0.1650391-0.1020508-0.2836914
	C44.5898438,15.5517578,44.7070313,15.5341797,44.7905273,15.6796875z"/>
<path fill-rule="evenodd" clip-rule="evenodd" fill="#E3E3E2" d="M53.4057617,62.8344727
	c-0.1630859-0.1230469-0.1904297-0.2597656-0.0585938-0.4238281C53.6254883,62.5141602,53.652832,62.6547852,53.4057617,62.8344727z
	"/>
<path fill-rule="evenodd" clip-rule="evenodd" fill="#E3E3E2" d="M46.2958984,20.6879883
	c0.2783203-0.0439453,0.5527344-0.0615234,0.7939453,0.1274414C46.8041992,20.9003906,46.5258789,20.9428711,46.2958984,20.6879883z
	"/>
<path fill-rule="evenodd" clip-rule="evenodd" fill="#E3E3E2" d="M45.753418,15.690918
	c-0.1962891-0.0063477-0.3911133-0.0131836-0.5883789-0.0185547C45.3676758,15.4863281,45.5644531,15.4819336,45.753418,15.690918z"
	/>
<path fill-rule="evenodd" clip-rule="evenodd" fill="#E3E3E2" d="M47.9882813,20.8833008
	c0.2192383-0.0478516,0.4267578-0.0317383,0.6088867,0.1162109C48.3725586,21.0703125,48.1611328,21.0786133,47.9882813,20.8833008z
	"/>
<path fill-rule="evenodd" clip-rule="evenodd" fill="#E3E3E2" d="M49.1430664,22.1005859
	c-0.2192383,0.0585938-0.4155273,0.0214844-0.5883789-0.1269531C48.7753906,21.9003906,48.9814453,21.8955078,49.1430664,22.1005859
	z"/>
<path fill-rule="evenodd" clip-rule="evenodd" fill="#E3E3E2" d="M39.3535156,27.1762695
	c-0.1943359,0.1015625-0.3911133,0.1210938-0.5883789,0.0078125C38.9584961,26.9672852,39.1547852,26.9770508,39.3535156,27.1762695
	z"/>
<path fill-rule="evenodd" clip-rule="evenodd" fill="#E3E3E2" d="M47.2612305,7.0336914
	C47.1201172,7.1044922,46.9882813,7.0864258,46.8598633,7C47.0068359,6.8432617,47.1420898,6.8520508,47.2612305,7.0336914z"/>
<path fill-rule="evenodd" clip-rule="evenodd" fill="#E3E3E2" d="M49.3046875,21.0869141
	c0.1611328-0.0507813,0.3041992-0.0288086,0.4213867,0.1044922C49.5610352,21.2543945,49.4125977,21.2519531,49.3046875,21.0869141z
	"/>
<path fill-rule="evenodd" clip-rule="evenodd" fill="#E3E3E2" d="M41.9042969,27.7875977
	c0.0424805,0.1523438-0.0053711,0.2773438-0.1186523,0.3828125C41.7426758,28.0180664,41.7524414,27.8813477,41.9042969,27.7875977z
	"/>
<path fill-rule="evenodd" clip-rule="evenodd" fill="#E3E3E2" d="M39.4619141,33.6430664
	c-0.0913086-0.1503906-0.0966797-0.2949219,0.0273438-0.4296875C39.5673828,33.3618164,39.5805664,33.5063477,39.4619141,33.6430664
	z"/>
<path fill-rule="evenodd" clip-rule="evenodd" fill="#E3E3E2" d="M43.300293,19.5209961
	c0.0239258-0.0258789,0.0478516-0.0527344,0.0717773-0.0795898c-0.003418,0.015625-0.0053711,0.0371094-0.0166016,0.0444336
	c-0.0185547,0.0131836-0.0424805,0.0170898-0.0649414,0.0263672L43.300293,19.5209961z"/>
<path fill-rule="evenodd" clip-rule="evenodd" fill="#E3E3E2" d="M49.8911133,22.2060547
	c-0.0932617,0.0849609-0.15625,0.046875-0.2060547-0.046875C49.7705078,22.0966797,49.8422852,22.1044922,49.8911133,22.2060547z"/>
<path fill-rule="evenodd" clip-rule="evenodd" fill="#E3E3E2" d="M43.2905273,19.512207
	c-0.0273438,0.0263672-0.0556641,0.0532227-0.0834961,0.081543c0.0053711-0.0166016,0.0073242-0.0419922,0.0205078-0.0493164
	c0.0205078-0.0131836,0.0488281-0.0161133,0.0727539-0.0234375L43.2905273,19.512207z"/>
<path fill-rule="evenodd" clip-rule="evenodd" fill="#E3E3E2" d="M41.3530273,69.3930664
	c-0.0058594,0.0722656-0.0097656,0.1464844-0.0151367,0.2167969C41.1953125,69.527832,41.2006836,69.4575195,41.3530273,69.3930664z
	"/>
<path fill-rule="evenodd" clip-rule="evenodd" fill="#E3E3E2" d="M46.3198242,18.6552734
	c-0.0683594-0.0083008-0.1376953-0.0166016-0.2060547-0.0249023C46.1972656,18.5249023,46.265625,18.5317383,46.3198242,18.6552734z
	"/>
<path fill-rule="evenodd" clip-rule="evenodd" fill="#E3E3E2" d="M41.3955078,31.1762695
	c-0.0556641,0.0136719-0.1132813,0.0273438-0.168457,0.0410156C41.2661133,31.1274414,41.3232422,31.1176758,41.3955078,31.1762695z
	"/>
<path fill-rule="evenodd" clip-rule="evenodd" fill="#E3E3E2" d="M48.0112305,21.9179688
	c-0.0913086-0.0205078-0.1845703-0.0400391-0.2768555-0.0595703C47.847168,21.7841797,47.9365234,21.8164063,48.0112305,21.9179688z
	"/>
<path fill-rule="evenodd" clip-rule="evenodd" fill="#E3E3E2" d="M38.0605469,32.1313477
	c0.0161133,0.0527344,0.0390625,0.1054688,0.0458984,0.1582031c0.0019531,0.0136719-0.0444336,0.0351563-0.0708008,0.0527344
	c-0.0126953-0.0507813-0.03125-0.1015625-0.034668-0.1542969C38.0009766,32.1704102,38.0400391,32.1508789,38.0605469,32.1313477z"
	/>
<path fill-rule="evenodd" clip-rule="evenodd" fill="#E3E3E2" d="M39.4946289,32.9243164
	c-0.0976563-0.0898438-0.0922852-0.1777344,0.0131836-0.2578125C39.5043945,32.7524414,39.4990234,32.8383789,39.4946289,32.9243164
	z"/>
<path fill-rule="evenodd" clip-rule="evenodd" fill="#FFFFFF" d="M46.3286133,27.746582
	c0.1767578-0.4550781-0.2646484-0.6835938-0.3779297-1.0332031c0.1762695,0.015625,0.3540039,0.0332031,0.5322266,0.0488281
	c0.1713867,0.1933594,0.3789063,0.1484375,0.5883789,0.0917969c3.1542969,0.5019531,6.2016602,1.3320313,9.0317383,2.8671875
	c0.3466797,0.1855469,0.828125,0.7246094,1.1455078-0.0234375c0.2607422-0.6113281,0.296875-1.203125-0.5029297-1.5410156
	c-1.9902344-0.8378906-3.9638672-1.7128906-5.9467773-2.5727539c0.0737305-0.3251953,0.1464844-0.6484375,0.2192383-0.9736328
	c0.9541016-0.078125,1.7636719,0.3769531,2.5849609,0.7392578c1.0605469,0.4658203,2.0869141,1.0102539,3.1396484,1.4907227
	c0.3496094,0.1582031,0.7949219,0.6679688,1.1074219,0.03125c0.265625-0.5449219,0.34375-1.1479492-0.3613281-1.5395508
	c-1.7001953-0.9482422-3.4648438-1.7480469-5.2978516-2.3974609c-0.2597656-0.0917969-0.5166016-0.1962891-0.7753906-0.2949219
	c-0.0283203-0.2460938,0.0214844-0.5419922-0.1010742-0.7246094c-0.3950195-0.5883789,0.3100586-0.1503906,0.3051758-0.3515625
	c2.1787109,0.5107422,4.1455078,1.5214844,6.0849609,2.5976563c0.2880859,0.1591797,0.6386719,0.2539063,0.7861328-0.1591797
	c0.2060547-0.5839844,0.2880859-1.1845703-0.4052734-1.5458984c-1.0517578-0.546875-2.1015625-1.1054688-3.1738281-1.6123047
	c-0.7275391-0.3427734-1.4921875-0.6035156-2.2392578-0.9003906c0.0830078-0.3681641-0.2333984-0.9121094,0.4492188-1.0180664
	c1.4560547,0.1318359,2.5986328,1.0297852,3.8671875,1.612793c0.3115234,0.1430664,0.5839844,0.3730469,0.9013672,0.503418
	c0.3779297,0.1567383,0.7490234,0.7680664,1.1923828,0.1645508c0.4248047-0.5795898,0.2089844-1.2578125-0.4863281-1.65625
	c-1.5205078-0.8720703-3.0830078-1.6630859-4.7197266-2.3012695c-0.4072266-0.1577148-0.8056641-0.3300781-1.2099609-0.496582
	c-0.0888672-0.2788086,0.3583984-0.6376953-0.1455078-0.8769531c-0.0820313-0.0380859,0.1669922-0.0688477,0.2265625-0.1523438
	c2.1376953,0.2861328,3.8515625,1.5498047,5.7177734,2.465332c0.3652344,0.1801758,0.7490234,0.7578125,1.1972656,0.2021484
	c0.4609375-0.5732422,0.2197266-1.2822266-0.5058594-1.7124023c-1.8242188-1.0869141-3.734375-1.9990234-5.6953125-2.8037109
	c-0.0087891-0.4379883-0.1611328-0.965332,0.5761719-0.9516602c1.8632813,0.4912109,3.4462891,1.5644531,5.1152344,2.4604492
	c0.3378906,0.1811523,0.7529297,0.7509766,1.0849609,0.15625c0.2929688-0.5273438,0.4023438-1.2075195-0.3369141-1.6152344
	c-0.8525391-0.4707031-1.6650391-1.0439453-2.5644531-1.3911133c-1.0869141-0.418457-2.0371094-1.0864258-3.1152344-1.4980469
	c0.2822266-0.2695313-0.0820313-0.9423828,0.6015625-0.9624023c1.7480469,0.543457,3.2578125,1.5610352,4.8505859,2.4150391
	c0.3466797,0.1860352,0.7695313,0.8535156,1.1503906,0.222168c0.3525391-0.581543,0.2998047-1.234375-0.453125-1.671875
	c-1.5947266-0.9233398-3.1943359-1.8276367-4.9111328-2.5053711c-0.2304688-0.0917969-0.4550781-0.2036133-0.6806641-0.3056641
	c0.3564453-0.2719727,0.5712891-0.5712891,0.6044922-1.0766602c0.0390625-0.5473633,0.2792969-1.0849609,0.4570313-1.6171875
	c0.0888672-0.265625-0.0078125-0.6743164,0.4667969-0.6953125c0.4453125-0.0180664,0.9238281-0.0751953,1.1757813,0.387207
	c0.2412109,0.4467773,0.6494141,0.6767578,1.046875,0.9077148c0.7841797,0.456543,1.4013672,1.0239258,1.6699219,1.9287109
	c0.2744141,0.9277344,0.8349609,1.6977539,1.4306641,2.4448242c0.6650391,0.8295898,0.4716797,1.7734375,0.2714844,2.6845703
	c-0.7929688,3.5922852-1.1875,7.2587891-2.0742188,10.8339844c-0.5556641,2.2495117-1.1298828,4.4975586-1.5927734,6.7670898
	c-0.2548828,1.2460938-0.3066406,2.5351563-0.4365234,3.8085938c-0.1455078,1.4199219-0.6552734,2.75-1.3603516,3.9355469
	c-1.0634766,1.7929688-4.0839844,1.6640625-5.1552734-0.1191406c-0.1962891-0.328125-0.0664063-0.6640625,0.0727539-0.9863281
	c0.3989258-0.9433594,1.0708008-1.6875,1.7661133-2.4082031c0.3164063-0.3300781,0.5039063-0.6777344,0.5986328-1.125
	c0.09375-0.4414063-0.0273438-0.8300781-0.4033203-0.9179688c-0.3603516-0.0839844-0.7138672,0.1640625-0.7861328,0.625
	c-0.2099609,1.3164063-1.4130859,2.1953125-1.5483398,3.5605469c-0.0351563,0.3554688-0.3510742,0.2285156-0.5883789,0.0917969
	c-0.6201172-0.359375-0.4692383-1.1367188-0.887207-1.6015625c-0.4418945-0.4921875-0.6054688-0.9179688-0.2973633-1.65625
	c0.2802734-0.6738281,0.1508789-1.546875,0.0859375-2.3222656c-0.050293-0.6015625-1.0825195-0.9785156-1.4794922-0.5019531
	c-0.4213867,0.5039063-1.0078125,0.2324219-1.4365234,0.5644531c-0.3066406,0.2382813-0.3393555-0.1660156-0.3862305-0.3261719
	c-0.1689453-0.5664063-0.2949219-1.1464844-0.4360352-1.7207031c0.1201172,0.0136719,0.2407227,0.0292969,0.3603516,0.0429688
	c0.1591797,0.21875,0.3730469,0.1875,0.5913086,0.1308594c3.1186523,0.421875,6.0795898,1.3515625,8.9057617,2.734375
	c0.3818359,0.1894531,0.8720703,0.7246094,1.2578125-0.0253906c0.3525391-0.6894531,0.1171875-1.1621094-0.6650391-1.5566406
	c-2.1494141-1.0859375-4.3857422-1.9433594-6.675293-2.6777344c-0.3842773-0.7285156-1.019043-0.28125-1.5478516-0.3320313
	C47.2871094,27.996582,46.793457,27.9575195,46.3286133,27.746582z"/>
<path fill-rule="evenodd" clip-rule="evenodd" fill="#FFFFFF" d="M46.3178711,75.4536133
	c1.4501953-1.1074219,2.5834961-2.5117188,3.7124023-3.9199219c0.2949219-0.3671875,0.1782227-0.84375,0.1835938-1.2773438
	c0.0092773-1.0292969,0.0073242-2.0625,0.0117188-3.0957031c0.3149414-0.5097656,0.3266602-1.0195313,0.0009766-1.53125
	c0-0.4296875,0-0.8632813-0.0009766-1.2929688c0.3188477-0.578125,0.355957-1.1542969-0.0283203-1.7207031
	c-0.0800781-0.9257813-0.1445313-1.8496094-0.0371094-2.7753906c0.1801758,0.0117188,0.4047852-0.0332031,0.4472656,0.2246094
	c0.3789063,2.2324219,0.75,4.46875,1.1245117,6.703125c0.1689453,1.0195313,0.3662109,2.0332031,0.5087891,3.0546875
	c0.1464844,1.0527344,0.1748047,2.1074219-0.0869141,3.15625c-0.0751953,0.2988281-0.1923828,0.6054688-0.4365234,0.6855469
	c-1.2866211,0.421875-1.2988281,1.5644531-1.4277344,2.5722656c-0.0698242,0.5625-0.2944336,0.8164063-0.7509766,1.0390625
	c-0.7763672,0.375-1.5112305,0.8085938-2.3706055,1.0195313c-0.6176758,0.1523438-0.8706055,0.1113281-0.8369141-0.5917969
	C46.3666992,76.9555664,46.3256836,76.2016602,46.3178711,75.4536133z"/>
<path fill-rule="evenodd" clip-rule="evenodd" fill="#FFFFFF" d="M47.4335938,52.8540039
	c0.4194336,0.4140625,0.9946289,0.1542969,1.4848633,0.3339844c0.4179688,0.1542969,0.7109375,0.3789063,0.6679688,0.7558594
	c-0.0405273,0.3613281-0.4677734,0.2070313-0.7163086,0.2011719c-1.3105469-0.03125-2.6186523,0-3.9350586,0.3085938
	c0.0185547-0.484375,0.237793-0.6542969,0.4829102-0.6523438c0.5732422,0.0097656,0.9428711-0.0898438,0.9238281-0.8027344
	c-0.0107422-0.4726563,0.4570313-0.2792969,0.7280273-0.34375C47.1904297,52.7231445,47.3129883,52.7875977,47.4335938,52.8540039z"
	/>
<path fill-rule="evenodd" clip-rule="evenodd" fill="#FFFFFF" d="M50.0639648,56.2543945
	c-0.987793-0.5683594-2.1289063-0.2148438-3.1557617-0.5371094c-0.0224609-1.25-0.0224609-1.25,1.2700195-1.0273438
	c0.1206055,0.0234375,0.2446289,0.0234375,0.3671875,0.0351563C50.0214844,54.824707,50.0214844,54.824707,50.0639648,56.2543945z"
	/>
<path fill-rule="evenodd" clip-rule="evenodd" fill="#FFFFFF" d="M45.1855469,34.9145508
	c-0.3798828-0.671875-0.2167969-1.4101563-0.1352539-2.0917969c0.0463867-0.390625-0.0483398-0.703125-0.1000977-1.0488281
	c0.5175781,0.0019531,0.5493164,0.4824219,0.5048828,0.7363281C45.3115234,33.309082,45.4941406,34.1391602,45.1855469,34.9145508z"
	/>
<path fill-rule="evenodd" clip-rule="evenodd" fill="#FFFFFF" d="M43.4130859,53.5668945
	c0.0390625,0.0507813,0.081543,0.1015625,0.1225586,0.1523438c-0.0483398,0.0253906-0.1074219,0.078125-0.1411133,0.0644531
	c-0.0595703-0.0234375-0.1000977-0.0859375-0.1484375-0.1328125C43.2944336,53.6274414,43.340332,53.6020508,43.4130859,53.5668945z
	"/>
<path fill-rule="evenodd" clip-rule="evenodd" fill="#FFFFFF" d="M46.0214844,32.3793945
	c-0.0117188-0.0429688-0.0205078-0.0664063-0.0195313-0.0878906c0-0.0058594,0.0283203-0.0117188,0.043457-0.0175781
	C46.0400391,32.3012695,46.0322266,32.3305664,46.0214844,32.3793945z"/>
<path fill-rule="evenodd" clip-rule="evenodd" fill="#E3E3E2" d="M60.0854492,82.7114258
	c0.03125,0.0605469,0.0908203,0.1210938,0.0908203,0.1777344c0.0039063,2.2988281,0.0048828,4.59375,0.0009766,6.890625
	c0,0.0605469-0.0585938,0.1171875-0.0917969,0.1777344C59.9936523,87.5415039,59.9975586,85.1274414,60.0854492,82.7114258z"/>
<path fill-rule="evenodd" clip-rule="evenodd" fill="#E3E3E2" d="M46.7597656,83.324707
	c0.2148438,1.1992188,0.2397461,2.4023438-0.0053711,3.6054688C46.6523438,85.7270508,46.6293945,84.5239258,46.7597656,83.324707z"
	/>
<path fill-rule="evenodd" clip-rule="evenodd" fill="#E3E3E2" d="M46.7636719,88.2211914
	c0.2207031,1.0742188,0.2304688,2.1503906-0.0073242,3.2265625C46.6445313,90.371582,46.6313477,89.2954102,46.7636719,88.2211914z"
	/>
<path fill-rule="evenodd" clip-rule="evenodd" fill="#E3E3E2" d="M46.7563477,81.0649414
	c0.2319336,0.4492188,0.2280273,0.8964844,0.003418,1.3457031C46.6357422,81.9633789,46.6259766,81.5141602,46.7563477,81.0649414z"
	/>
<path fill-rule="evenodd" clip-rule="evenodd" fill="#E3E3E2" d="M50.1972656,62.6157227
	c0.3842773,0.5664063,0.347168,1.1425781,0.0283203,1.7207031C50.0454102,63.7661133,50.0117188,63.1918945,50.1972656,62.6157227z"
	/>
<path fill-rule="evenodd" clip-rule="evenodd" fill="#E3E3E2" d="M50.2265625,65.6293945
	c0.3256836,0.5117188,0.3139648,1.0214844-0.0009766,1.53125C50.0410156,66.6489258,50.019043,66.1391602,50.2265625,65.6293945z"/>
<path fill-rule="evenodd" clip-rule="evenodd" fill="#E3E3E2" d="M47.7841797,28.0083008
	c0.5288086,0.0507813,1.1635742-0.3964844,1.5478516,0.3320313C48.7958984,28.3208008,48.2749023,28.2426758,47.7841797,28.0083008z
	"/>
<path fill-rule="evenodd" clip-rule="evenodd" fill="#E3E3E2" d="M46.5087891,29.8657227
	c-0.2182617,0.0566406-0.4321289,0.0878906-0.5913086-0.1308594C46.1342773,29.6879883,46.3364258,29.7114258,46.5087891,29.8657227
	z"/>
<path fill-rule="evenodd" clip-rule="evenodd" fill="#E3E3E2" d="M47.0712891,26.8540039
	c-0.2094727,0.0566406-0.4169922,0.1015625-0.5883789-0.0917969C46.6889648,26.7231445,46.8930664,26.7075195,47.0712891,26.8540039
	z"/>
<path fill-rule="evenodd" clip-rule="evenodd" fill="#FFFFFF" d="M45.3676758,24.6074219
	c0.1445313-0.2587891,0.2729492-0.1796875,0.3955078,0.0205078C45.6308594,24.6210938,45.4995117,24.6142578,45.3676758,24.6074219z
	"/>
<path fill-rule="evenodd" clip-rule="evenodd" fill="#FFFFFF" d="M46.7119141,9.8647461
	c0.0327148-0.1044922-0.0078125-0.2763672,0.168457-0.2661133c0.1635742,0.0102539,0.1333008,0.1723633,0.159668,0.284668
	C46.9301758,9.8764648,46.8212891,9.8710938,46.7119141,9.8647461z"/>
<path fill-rule="evenodd" clip-rule="evenodd" fill="#FFFFFF" d="M46.0117188,9.8232422
	c-0.0205078-0.0878906-0.2246094-0.1782227-0.0498047-0.253418c0.2075195-0.0883789,0.2949219,0.0834961,0.3320313,0.2670898
	C46.1992188,9.8320313,46.1064453,9.828125,46.0117188,9.8232422z"/>
<path fill-rule="evenodd" clip-rule="evenodd" fill="#E3E3E2" d="M53.121582,18.925293
	c-0.6826172,0.105957-0.3662109,0.6499023-0.4492188,1.0180664c-0.6933594-0.2978516-1.4970703-0.2929688-2.1201172-0.7817383
	c-0.5961914-0.2001953-0.0693359-0.5297852-0.0913086-0.796875c0.1835938,0.003418,0.3691406,0.0083008,0.5527344,0.012207
	c0.0522461,0.1162109,0.1098633,0.1679688,0.1801758,0.0112305C51.8608398,18.4790039,52.574707,18.4018555,53.121582,18.925293z"/>
<path fill-rule="evenodd" clip-rule="evenodd" fill="#FFFFFF" d="M50.4609375,18.3647461
	c0.0219727,0.2670898-0.5048828,0.5966797,0.0913086,0.796875c-0.0727539,0.0214844-0.1435547,0.0429688-0.2158203,0.0639648
	c-0.0981445-0.0214844-0.1948242-0.0444336-0.2910156-0.0664063c-0.7685547,0.0092773-1.5078125-0.1616211-2.2348633-0.3847656
	c0.1484375-0.2333984,0.2280273-0.4848633,0.1889648-0.7641602C48.2670898,18,48.5322266,17.9902344,48.7993164,17.9799805
	C49.3637695,18.0634766,49.9692383,17.972168,50.4609375,18.3647461z"/>
<path fill-rule="evenodd" clip-rule="evenodd" fill="#E3E3E2" d="M50.0454102,19.1591797
	c0.0961914,0.0219727,0.1928711,0.0449219,0.2910156,0.0664063C50.2158203,19.3012695,50.1171875,19.2895508,50.0454102,19.1591797z
	"/>
<path fill-rule="evenodd" clip-rule="evenodd" fill="#E3E3E2" d="M48.7993164,17.9799805
	C48.5322266,17.9902344,48.2670898,18,47.9995117,18.0102539l0.0039063,0.0024414
	c-0.0258789-0.0449219-0.0356445-0.0932617-0.0239258-0.1445313C48.2631836,17.8208008,48.5454102,17.8046875,48.7993164,17.9799805
	z"/>
<path fill-rule="evenodd" clip-rule="evenodd" fill="#FFFFFF" d="M47.9794922,17.8681641
	c-0.0117188,0.0512695-0.0019531,0.0996094,0.0239258,0.1445313c-0.0561523-0.0507813-0.1113281-0.1020508-0.1669922-0.1518555
	C47.8842773,17.8442383,47.9331055,17.847168,47.9794922,17.8681641z"/>
<path fill-rule="evenodd" clip-rule="evenodd" fill="#FFFFFF" d="M47.5708008,15.8027344
	c0.0888672-0.1064453,0.1708984-0.125,0.2319336,0.0244141C47.7246094,15.8188477,47.6489258,15.8105469,47.5708008,15.8027344z"/>
<path fill-rule="evenodd" clip-rule="evenodd" fill="#FFFFFF" d="M51.1938477,18.3881836
	c-0.0703125,0.1567383-0.1279297,0.1049805-0.1801758-0.0112305C51.0751953,18.3520508,51.1362305,18.3554688,51.1938477,18.3881836
	z"/>
<path fill-rule="evenodd" clip-rule="evenodd" fill="#E3E3E2" d="M47.4335938,2.5834961
	c-0.2280273-0.4326172,0.1499023-0.5668945,0.3803711-0.7744141C47.9458008,2.1943359,47.7084961,2.3979492,47.4335938,2.5834961z"
	/>
<path fill-rule="evenodd" clip-rule="evenodd" fill="#E3E3E2" d="M44.4228516,3.3286133
	c-0.1464844-0.3774414,0.1298828-0.4702148,0.3862305-0.5771484C44.7773438,3.0087891,44.8383789,3.3286133,44.4228516,3.3286133z"
	/>
<path fill-rule="evenodd" clip-rule="evenodd" fill="#E3E3E2" d="M44.9838867,2.5864258
	c-0.0244141-0.1816406-0.0058594-0.3383789,0.2016602-0.4013672C45.1191406,2.3183594,45.0522461,2.4526367,44.9838867,2.5864258z"
	/>
<path fill-rule="evenodd" clip-rule="evenodd" fill="#E3E3E2" d="M45.1674805,2.2060547
	c0.0029297-0.1347656,0.0737305-0.2026367,0.2070313-0.2075195C45.3745117,2.1367188,45.3046875,2.2055664,45.1674805,2.2060547z"/>
<path fill-rule="evenodd" clip-rule="evenodd" fill="#E3E3E2" d="M44.7905273,2.7719727
	c0.003418-0.1352539,0.0522461-0.2260742,0.2075195-0.2055664C44.965332,2.6704102,44.9316406,2.7744141,44.7905273,2.7719727z"/>
<path fill-rule="evenodd" clip-rule="evenodd" fill="#E3E3E2" d="M45.3549805,2.0175781
	c0.0014648-0.1362305,0.078125-0.1982422,0.2075195-0.2075195C45.5849609,1.9697266,45.4907227,2.0141602,45.3549805,2.0175781z"/>
</svg>
