<?xml version="1.0" encoding="utf-8"?>
<!-- Generator: Adobe Illustrator 16.0.0, SVG Export Plug-In . SVG Version: 6.00 Build 0)  -->
<!DOCTYPE svg PUBLIC "-//W3C//DTD SVG 1.1//EN" "http://www.w3.org/Graphics/SVG/1.1/DTD/svg11.dtd">
<svg version="1.1" id="Layer_1" xmlns="http://www.w3.org/2000/svg" xmlns:xlink="http://www.w3.org/1999/xlink" x="0px" y="0px"
	 width="100px" height="50px" viewBox="69.5 64.4724121 100 50" enable-background="new 69.5 64.4724121 100 50"
	 xml:space="preserve">
<path fill="#EFEFEF" d="M70,77.1223145v24.699707h99v-24.699707H70z M121.9697266,78.642334h3.3105469v2.2099609h-3.3105469
	V78.642334z M113.7202148,78.642334h3.3095703v2.2099609h-3.3095703V78.642334z M105.4702148,78.642334h3.3095703v2.2099609
	h-3.3095703V78.642334z M88.9702148,78.642334h3.3095703v2.2099609h-3.3095703V78.642334z M80.7202148,78.642334h3.3095703
	v2.2099609h-3.3095703V78.642334z M72.4702148,78.642334h3.3095703v2.2099609h-3.3095703V78.642334z M75.7797852,100.3122559
	h-3.3095703v-2.2099609h3.3095703V100.3122559z M84.0297852,100.3122559h-3.3095703v-2.2099609h3.3095703V100.3122559z
	 M92.2797852,100.3122559h-3.3095703v-2.2099609h3.3095703V100.3122559z M100.5297852,100.3122559h-3.3095703v-2.2099609h3.3095703
	V100.3122559z M100.5297852,96.8122559H72.4702148V82.1325684h28.0595703V96.8122559z M100.5297852,80.8522949h-3.3095703V78.642334
	h3.3095703V80.8522949z M108.7797852,100.3122559h-3.3095703v-2.2099609h3.3095703V100.3122559z M117.0297852,100.3122559
	h-3.3095703v-2.2099609h3.3095703V100.3122559z M125.2802734,100.3122559h-3.3105469v-2.2099609h3.3105469V100.3122559z
	 M133.5302734,100.3122559h-3.3105469v-2.2099609h3.3105469V100.3122559z M133.5302734,96.8122559h-28.0600586V82.1325684
	h28.0600586V96.8122559z M133.5302734,80.8522949h-3.3105469V78.642334h3.3105469V80.8522949z M154.9697266,78.642334h3.3105469
	v2.2099609h-3.3105469V78.642334z M146.7197266,78.642334h3.3105469v2.2099609h-3.3105469V78.642334z M138.4697266,78.642334
	h3.3105469v2.2099609h-3.3105469V78.642334z M141.7802734,100.3122559h-3.3105469v-2.2099609h3.3105469V100.3122559z
	 M150.0302734,100.3122559h-3.3105469v-2.2099609h3.3105469V100.3122559z M158.2802734,100.3122559h-3.3105469v-2.2099609h3.3105469
	V100.3122559z M166.5302734,100.3122559h-3.3105469v-2.2099609h3.3105469V100.3122559z M166.5302734,96.8122559h-28.0605469
	V82.1325684h28.0605469V96.8122559z M166.5302734,80.8522949h-3.3105469V78.642334h3.3105469V80.8522949z"/>
</svg>
