<?xml version="1.0" encoding="utf-8"?>
<!-- Generator: Adobe Illustrator 16.0.0, SVG Export Plug-In . SVG Version: 6.00 Build 0)  -->
<!DOCTYPE svg PUBLIC "-//W3C//DTD SVG 1.1//EN" "http://www.w3.org/Graphics/SVG/1.1/DTD/svg11.dtd">
<svg version="1.1" id="Layer_1" xmlns="http://www.w3.org/2000/svg" xmlns:xlink="http://www.w3.org/1999/xlink" x="0px" y="0px"
	 width="50.0004883px" height="50.0004883px" viewBox="0 0 50.0004883 50.0004883"
	 enable-background="new 0 0 50.0004883 50.0004883" xml:space="preserve">
<g>
	<path fill="#FFFFFF" d="M23.7397461,35.5151367c-0.0097656,0-0.0097656,0.0097656-0.0097656,0.0097656
		s-0.0102539-0.0097656,0-0.0097656H23.7397461z"/>
</g>
<path fill="#FFFFFF" d="M46.5795898,9.6152344c-0.3496094,0.5200195-0.8095703,1.1499023-1.2998047,1.8798828
	c-0.2402344,0.3798828-0.5,0.7802734-0.7695313,1.2001953c-0.25,0.3696289-0.5205078,0.7597656-0.7900391,1.1796875
	c-0.1298828,0.2001953-0.2607422,0.4101563-0.4003906,0.6201172c-0.1298828,0.2099609-0.3300781,0.4399414-0.5,0.6601563
	c-0.3496094,0.4697266-0.7099609,0.9399414-1.0800781,1.4296875c-0.3603516,0.4101563-0.7294922,0.8300781-1.1103516,1.25
	c-0.4199219,0.4404297-0.7294922,0.8901367-1.2392578,1.3701172c-0.4707031,0.4799805-0.9306641,0.9799805-1.390625,1.4799805
	L37.8198242,20.875l-0.0302734,0.0302734c0,0-0.0097656,0-0.0097656,0.0097656h-0.0097656l-0.0800781,0.0703125
	l-0.2998047,0.2700195c-0.1904297,0.199707-0.4199219,0.3798828-0.6503906,0.5595703
	c-0.9296875,0.7304688-2.0195313,1.4604492-3.1894531,2.1904297l-1.8105469,1.159668
	c-0.2998047,0.1899414-0.5898438,0.3901367-0.8798828,0.590332l-0.8701172,0.5898438
	c-0.5703125,0.3798828-1.1103516,0.7695313-1.6699219,1.1699219c-0.5703125,0.3896484-1.1298828,0.7802734-1.6699219,1.1904297
	c-1.0800781,0.7900391-2.2700195,1.7392578-3.1801758,2.5800781c-0.4296875,0.4394531-0.8398438,0.8691406-1.25,1.2792969
	C22,32.8051758,21.7797852,33.0454102,21.5698242,33.2651367c-0.1899414,0.2597656-0.3701172,0.5-0.5600586,0.75
	c-0.3300781,0.4902344-0.7299805,0.9404297-0.9296875,1.3798828c-0.2202148,0.4404297-0.4301758,0.8603516-0.6201172,1.2597656
	l-0.1499023,0.2900391c-0.0302734,0.0703125-0.0102539,0.0400391-0.1000977,0.1904297l-0.0600586,0.1396484
	C19.0698242,37.465332,19,37.6547852,18.9399414,37.8354492c-0.1298828,0.3798828-0.25,0.7197266-0.3500977,1.0292969
	c-0.1499023,0.5-0.25,0.9208984-0.2797852,1.2402344c-0.0302734,0.0400391-0.050293,0.0898438-0.0800781,0.1201172
	c-0.1000977,0.1503906-0.2099609,0.2597656-0.3100586,0.3896484c-0.1201172,0.1308594-0.2402344,0.2607422-0.3500977,0.3808594
	c-0.2299805,0.25-0.4501953,0.4892578-0.6201172,0.7197266c-0.1098633,0.0898438-0.1499023,0.2294922-0.1699219,0.359375
	c-0.0297852,0.1201172-0.0600586,0.2109375-0.0600586,0.3105469c-0.0097656,0.1796875,0,0.2695313,0,0.2695313
	s0.0703125-0.0693359,0.1699219-0.1992188c0.090332-0.1308594,0.3203125-0.2207031,0.4604492-0.4404297
	c0.1499023-0.2001953,0.3598633-0.4296875,0.5898438-0.6796875c0.1098633-0.1201172,0.2299805-0.2607422,0.3500977-0.390625
	c0.1196289-0.1396484,0.2597656-0.2998047,0.3598633-0.4394531c0.0498047-0.0898438,0.0898438-0.1298828,0.1601563-0.25
	l0.1298828-0.2402344c0.0400391-0.0703125,0.0698242-0.1396484,0.1098633-0.2099609
	c0.1201172-0.1396484,0.2602539-0.2998047,0.3999023-0.4599609c0.2099609-0.2197266,0.4501953-0.4697266,0.7099609-0.7402344
	c0.1303711-0.1396484,0.2700195-0.2802734,0.4101563-0.4296875l0.0898438-0.0898438
	c0.0102539,0,0.0703125-0.0703125,0.090332-0.0800781l0.2397461-0.2197266
	c0.3203125-0.3007813,0.6601563-0.6201172,1.0200195-0.9609375c0.3598633-0.359375,0.75-0.5595703,1.1298828-0.8691406
	c0.1904297-0.140625,0.3803711-0.2802734,0.5703125-0.4306641l0.0200195-0.0097656h0.0097656l0.0200195-0.0195313v0.0097656
	l0.0400391-0.0302734l0.1801758-0.1103516l0.3701172-0.2294922c0.4897461-0.3105469,0.9897461-0.6298828,1.5097656-0.9599609
	c0.5195313-0.3398438,1.0195313-0.5703125,1.5400391-0.8603516c0.5302734-0.2695313,1.0097656-0.5693359,1.6201172-0.8798828
	c0.5898438-0.3095703,1.1699219-0.6298828,1.7597656-0.9599609c0.6103516-0.3300781,1.2304688-0.6894531,1.8398438-1.0595703
	l0.9101563-0.5400391l0.9003906-0.5507813l1.7900391-1.0996094c1.2294922-0.7900391,2.5097656-1.6396484,3.6992188-2.7397461
	c0.5908203-0.5200195,1.1904297-1.1899414,1.6708984-1.8100586c0.4091797-0.5400391,0.8193359-1.0800781,1.2099609-1.6298828
	c0.3896484-0.5102539,0.7792969-1.1601563,1.1396484-1.7402344c0.1796875-0.2998047,0.3496094-0.5898438,0.5302734-0.8798828
	l0.2597656-0.4301758l0.1699219-0.2998047l0.0898438-0.2099609c0.4902344-1.1503906,1-2.1000977,1.3203125-3.3100586
	c0.1601563-0.5600586,0.3095703-1.090332,0.4501953-1.6103516c0.109375-0.4697266,0.2197266-0.9199219,0.3095703-1.3398438
	c0.1904297-0.8500977,0.3300781-1.6098633,0.4296875-2.25c0.2099609-1.2700195,0.2705078-1.9897461,0.2705078-1.9897461
	S47.2895508,8.5751953,46.5795898,9.6152344z M47.0600586,9.8051758c-0.4599609,1.1499023-1.1005859,2.7998047-1.9902344,4.75
	c-0.3798828,1.0097656-1.0400391,1.9599609-1.6298828,3.0200195c-0.3203125,0.5297852-0.7197266,1.0200195-1.0898438,1.5498047
	c-0.3798828,0.5102539-0.7402344,1.0703125-1.1806641,1.5600586c-0.859375,1.0102539-1.6894531,2.1298828-2.7695313,3.050293
	c-1.0595703,0.9199219-2.25,1.7197266-3.4501953,2.4799805c-2.3994141,1.5097656-4.8095703,3.0195313-7.0703125,4.4296875
	c-1.1191406,0.7099609-2.1796875,1.4296875-3.1694336,2.140625c-0.9301758,0.7998047-1.8901367,1.4394531-2.5800781,2.25
	c-0.3598633,0.3896484-0.75,0.7099609-1.0400391,1.109375c-0.2900391,0.390625-0.5698242,0.75-0.8300781,1.1005859
	c-0.1699219,0.2197266-0.3198242,0.4296875-0.4599609,0.6396484c0.0102539-0.0498047,0.0102539-0.0703125,0.0102539-0.0703125
	s-0.050293,0.0400391-0.1201172,0.1103516c0.1499023-0.2402344,0.3100586-0.4902344,0.5-0.7402344
	c0.25-0.3398438,0.5200195-0.7197266,0.8100586-1.1103516c0.2700195-0.3994141,0.6699219-0.7392578,1.0297852-1.1396484
	c0.7001953-0.8203125,1.6601563-1.4697266,2.5800781-2.2695313c0.9799805-0.7304688,2.0498047-1.4599609,3.1699219-2.1806641
	c2.25-1.4296875,4.6396484-2.9492188,7.0400391-4.4794922c1.2001953-0.75,2.3798828-1.5302734,3.4404297-2.4404297
	c1.0595703-0.8896484,1.8896484-1.9897461,2.7597656-3c0.4501953-0.4897461,0.8095703-1.0395508,1.1894531-1.5498047
	c0.3701172-0.5200195,0.7802734-1,1.0908203-1.5200195c0.5996094-1.0600586,1.2695313-2.0097656,1.6494141-3
	c0.8798828-1.9301758,1.5898438-3.5698242,2.0703125-4.7099609c0.25-0.6298828,0.4501953-1.1098633,0.5898438-1.4101563
	C47.4995117,8.6850586,47.300293,9.1650391,47.0600586,9.8051758z"/>
<path fill="#FFFFFF" d="M8.5498047,35.675293c-0.5,0-4.8798828,0.0400391-4.8798828,1.25l0.0498047,0.1601563H3.7099609
	l1.2397461,5.7792969c0,0.4003906,1.6000977,0.7099609,3.5703125,0.7099609c1.9697266,0,3.5600586-0.3095703,3.5600586-0.7099609
	l1.2197266-5.6699219c0.0302734-0.0292969,0.050293-0.0693359,0.0698242-0.0996094l0.050293-0.2099609
	C13.4199219,35.6948242,8.75,35.675293,8.5498047,35.675293z M8.5498047,36.175293
	c2.7099609,0,4.2602539,0.4599609,4.3701172,0.6601563l-0.0102539,0.0498047
	c-0.199707,0.2597656-1.7597656,0.6796875-4.3598633,0.6796875c-2.6298828,0-4.1899414-0.4296875-4.3798828-0.6796875
	C4.3100586,36.6254883,5.8598633,36.175293,8.5498047,36.175293z"/>
</svg>
