<?xml version="1.0" encoding="utf-8"?>
<!-- Generator: Adobe Illustrator 16.0.0, SVG Export Plug-In . SVG Version: 6.00 Build 0)  -->
<!DOCTYPE svg PUBLIC "-//W3C//DTD SVG 1.1//EN" "http://www.w3.org/Graphics/SVG/1.1/DTD/svg11.dtd">
<svg version="1.1" id="Layer_1" xmlns="http://www.w3.org/2000/svg" xmlns:xlink="http://www.w3.org/1999/xlink" x="0px" y="0px"
	 width="50.0004883px" height="50.0004883px" viewBox="0 0 50.0004883 50.0004883"
	 enable-background="new 0 0 50.0004883 50.0004883" xml:space="preserve">
<rect x="12.8620043" y="13.8463802" transform="matrix(0.7071068 0.7071068 -0.7071068 0.7071068 19.5539684 -3.3451519)" fill="#D3D3D3" width="1.9058738" height="16.1695442"/>
<rect x="9.8913012" y="21.0182915" transform="matrix(0.7071068 0.7071068 -0.7071068 0.7071068 20.7844734 -0.3744488)" fill="#FFFFFF" width="1.9058738" height="7.7671261"/>
<rect x="14.2715893" y="11.1745005" transform="matrix(0.7071068 0.7071068 -0.7071068 0.7071068 16.648407 -10.3598003)" fill="#FFFFFF" width="13.1160021" height="7.4840069"/>
<path fill-rule="evenodd" clip-rule="evenodd" fill="#FFFFFF" d="M35.2866211,42.3579102
	c-0.7578125,0.0146484-1.5185547,0.0205078-2.2695313-0.0771484c-0.6083984-0.078125-1.21875-0.1494141-1.828125-0.1611328
	c-0.8417969-0.015625-1.6816406-0.1435547-2.5273438-0.046875c-0.4130859,0.0478516-0.8242188-0.0644531-1.2412109-0.0449219
	c-0.8251953,0.0390625-1.6513672,0.0527344-2.4755859,0.1386719c-1.4189453,0.1474609-2.8457031,0.0966797-4.2705078,0.0791016
	c-0.2568359-0.0029297-0.5302734-0.0214844-0.6191406-0.3603516c-0.0302734-0.1162109-0.1669922-0.1601563-0.2890625-0.1699219
	c-0.7441406-0.0595703-1.4902344-0.1132813-2.2353516-0.171875c-1.3730469-0.1083984-2.7558594-0.0800781-4.1230469-0.2763672
	c-0.0888672-0.0126953-0.1787109-0.0292969-0.2646484-0.0556641c-0.1064453-0.0332031-0.2607422-0.0322266-0.2675781-0.1826172
	c-0.0058594-0.1464844,0.1298828-0.1992188,0.2460938-0.2548828c0.3574219-0.1728516,0.7480469-0.2099609,1.1308594-0.2490234
	c0.8154297-0.0839844,1.6357422-0.1074219,2.4560547-0.1230469c1.1435547-0.0214844,2.2871094-0.0820313,3.4306641-0.1220703
	c0.0917969-0.0039063,0.1767578,0.0185547,0.1953125-0.1152344c0.03125-0.2275391,0.1894531-0.3857422,0.3300781-0.5488281
	c0.3525391-0.4101563,0.7099609-0.8164063,1.0673828-1.2236328c0.1806641-0.2060547,0.4248047-0.2998047,0.6816406-0.3642578
	c0.4902344-0.1240234,0.9863281-0.2294922,1.4541016-0.4228516c1.0761719-0.4443359,1.3720703-0.9648438,1.1132813-2.1552734
	c-0.2412109-1.1132813-0.8662109-1.5615234-2.1376953-1.7050781c-1.1025391-0.1240234-2.2138672-0.1298828-3.3125-0.296875
	c-1.8945313-0.2880859-3.6220703-1.0185547-5.2763672-1.9511719c-1.0595703-0.5976563-2.0048828-1.3486328-2.9091797-2.1542969
	c-0.1757813-0.15625-0.3476563-0.3212891-0.4472656-0.5380859c-0.125-0.2685547-0.0292969-0.4345703,0.2578125-0.4248047
	c1.0722656,0.0380859,2.1445313,0.0869141,3.2167969,0.1318359c0.2158203,0.0087891,0.4316406,0.0244141,0.6484375,0.0283203
	c1.3798828,0.0253906,2.7597656,0.0830078,4.140625,0.0517578c0.6582031-0.015625,1.3164063-0.0322266,1.9746094-0.0458984
	c0.1210938-0.0029297,0.2402344-0.0029297,0.2841797-0.1484375c0.0585938-0.1904297,0.2050781-0.2285156,0.3808594-0.2363281
	c0.3417969-0.0166016,0.6845703-0.0351563,1.0253906-0.0664063c0.2617188-0.0244141,0.4824219-0.1074219,0.4570313-0.4433594
	c-0.0117188-0.1435547,0.0810547-0.2138672,0.2138672-0.2265625c0.1074219-0.0117188,0.2158203-0.0126953,0.3242188-0.0126953
	c4.1425781,0.0146484,8.2841797,0.03125,12.4267578,0.0429688c1.9667969,0.0058594,3.9345703,0.0029297,5.9023438,0.0048828
	c0.4169922,0,0.4267578,0.0107422,0.4257813,0.4228516c-0.0009766,0.2314453,0.0009766,0.4472656-0.15625,0.6621094
	c-0.1044922,0.1435547-0.0898438,0.3789063-0.1113281,0.5761719c-0.0302734,0.2695313-0.1650391,0.4306641-0.4355469,0.4726563
	c-0.9169922,0.1445313-1.8339844,0.2919922-2.7529297,0.4316406c-1.8564453,0.28125-3.5957031,0.8544922-5.0869141,2.0449219
	c-0.6689453,0.5341797-1.2714844,1.1367188-1.6396484,1.9189453c-0.4248047,0.8994141-0.4785156,1.8369141-0.1523438,2.7900391
	c0.0888672,0.2597656,0.2890625,0.4033203,0.4990234,0.5478516c0.5859375,0.4033203,1.2714844,0.5478516,1.9384766,0.734375
	c0.3486328,0.0976563,0.6474609,0.2519531,0.9013672,0.5166016c0.4306641,0.4501953,0.8808594,0.8798828,1.3193359,1.3232422
	c0.2646484,0.2675781,0.2597656,0.2802734,0.6357422,0.3154297c0.7353516,0.0673828,1.4746094,0.0820313,2.2050781,0.1953125
	c0.7744141,0.1201172,1.5556641,0.2089844,2.3017578,0.4667969c0.0087891,0.0029297,0.0175781,0.0058594,0.0244141,0.0097656
	c0.1455078,0.0810547,0.3623047,0.1132813,0.3583984,0.3232422c-0.0039063,0.2158203-0.2148438,0.2666016-0.3779297,0.3349609
	c-0.6005859,0.2519531-1.2392578,0.3076172-1.8779297,0.3535156c-0.7226563,0.0527344-1.4472656,0.0908203-2.1708984,0.1376953
	c-0.3203125,0.0205078-0.5957031,0.2021484-0.9023438,0.265625C36.4975586,42.4272461,35.8901367,42.3276367,35.2866211,42.3579102z
	"/>
</svg>
